<svg xmlns="http://www.w3.org/2000/svg" width="101" height="101" viewBox="0 0 101 101">
  <g id="Grupo_81666" data-name="Grupo 81666" transform="translate(-637 -1157)">
    <g id="Grupo_81657" data-name="Grupo 81657">
      <circle id="Elipse_1146" data-name="Elipse 1146" cx="50.5" cy="50.5" r="50.5" transform="translate(637 1157)" fill="#b3009d"/>
    </g>
    <g id="Group_36_" data-name="Group (36)" transform="translate(658.382 1177.764)">
      <path id="Trazado_117974" data-name="Trazado 117974" d="M.982,310.376a3.354,3.354,0,0,1,0-4.743L20.51,286.106l4.743,4.743L5.725,310.376A3.354,3.354,0,0,1,.982,310.376Z" transform="translate(0 -254.123)" fill="#3c0061"/>
      <path id="Trazado_117975" data-name="Trazado 117975" d="M8.787,329.218a3.354,3.354,0,0,0,4.743,0L33.057,309.69l-2.371-2.371Z" transform="translate(-7.805 -272.964)" fill="#3c0061"/>
      <path id="Trazado_117976" data-name="Trazado 117976" d="M131.65,147.3a15.65,15.65,0,1,1,15.65-15.65A15.668,15.668,0,0,1,131.65,147.3Z" transform="translate(-103.033 -103.031)" fill="#4c007b"/>
      <path id="Trazado_117977" data-name="Trazado 117977" d="M157.053,179.173a15.643,15.643,0,1,0,22.123-22.123Z" transform="translate(-139.496 -139.494)" fill="#3c0061"/>
      <path id="Trazado_117978" data-name="Trazado 117978" d="M158.3,170.592a12.3,12.3,0,1,0-12.3-12.3A12.3,12.3,0,0,0,158.3,170.592Z" transform="translate(-129.679 -129.677)" fill="#bceaf9"/>
      <path id="Trazado_117979" data-name="Trazado 117979" d="M178.256,195.635a12.291,12.291,0,1,0,17.382-17.382Z" transform="translate(-158.329 -158.326)" fill="#b3ddff"/>
      <path id="Trazado_117980" data-name="Trazado 117980" d="M12.856,80.061H1.677A1.677,1.677,0,0,1,0,78.384V76.148A6.155,6.155,0,0,1,6.148,70H8.384a6.155,6.155,0,0,1,6.148,6.148v2.236A1.677,1.677,0,0,1,12.856,80.061Z" transform="translate(0 -62.175)" fill="#ffd947"/>
      <path id="Trazado_117981" data-name="Trazado 117981" d="M66.118,70H65V80.061h5.589a1.677,1.677,0,0,0,1.677-1.677V76.148A6.155,6.155,0,0,0,66.118,70Z" transform="translate(-57.734 -62.175)" fill="#ffca00"/>
      <path id="Trazado_117982" data-name="Trazado 117982" d="M25.03,10.061a5.03,5.03,0,1,1,5.03-5.03A5.036,5.036,0,0,1,25.03,10.061Z" transform="translate(-17.764)" fill="#ffd7aa"/>
      <path id="Trazado_117983" data-name="Trazado 117983" d="M394.856,80.061H383.677A1.677,1.677,0,0,1,382,78.384V76.148A6.155,6.155,0,0,1,388.148,70h2.236a6.155,6.155,0,0,1,6.148,6.148v2.236A1.677,1.677,0,0,1,394.856,80.061Z" transform="translate(-339.297 -62.175)" fill="#04dab3"/>
      <path id="Trazado_117984" data-name="Trazado 117984" d="M448.118,70H447V80.061h5.589a1.677,1.677,0,0,0,1.677-1.677V76.148A6.155,6.155,0,0,0,448.118,70Z" transform="translate(-397.03 -62.175)" fill="#00cca7"/>
      <path id="Trazado_117985" data-name="Trazado 117985" d="M407.031,10.061a5.03,5.03,0,1,1,5.03-5.03A5.036,5.036,0,0,1,407.031,10.061Z" transform="translate(-357.061)" fill="#ffd7aa"/>
      <path id="Trazado_117986" data-name="Trazado 117986" d="M65,0V10.061A5.03,5.03,0,1,0,65,0Z" transform="translate(-57.734)" fill="#ffc58f"/>
      <path id="Trazado_117987" data-name="Trazado 117987" d="M452.03,5.03A5.036,5.036,0,0,0,447,0V10.061A5.036,5.036,0,0,0,452.03,5.03Z" transform="translate(-397.03)" fill="#ffc58f"/>
      <path id="Trazado_117988" data-name="Trazado 117988" d="M394.856,432.061H383.677A1.677,1.677,0,0,1,382,430.384v-2.236A6.155,6.155,0,0,1,388.148,422h2.236a6.155,6.155,0,0,1,6.148,6.148v2.236A1.677,1.677,0,0,1,394.856,432.061Z" transform="translate(-339.297 -374.825)" fill="#bceaf9"/>
      <path id="Trazado_117989" data-name="Trazado 117989" d="M448.118,422H447v10.061h5.589a1.677,1.677,0,0,0,1.677-1.677v-2.236A6.155,6.155,0,0,0,448.118,422Z" transform="translate(-397.03 -374.825)" fill="#b3ddff"/>
      <path id="Trazado_117990" data-name="Trazado 117990" d="M407.031,362.061a5.03,5.03,0,1,1,5.03-5.03A5.036,5.036,0,0,1,407.031,362.061Z" transform="translate(-357.061 -312.65)" fill="#ffd7aa"/>
      <path id="Trazado_117991" data-name="Trazado 117991" d="M447,352v10.061A5.03,5.03,0,1,0,447,352Z" transform="translate(-397.03 -312.65)" fill="#ffc58f"/>
      <path id="Trazado_117992" data-name="Trazado 117992" d="M203.856,256.06H192.677A1.677,1.677,0,0,1,191,254.383v-2.236A6.155,6.155,0,0,1,197.148,246h2.236a6.155,6.155,0,0,1,6.148,6.148v2.236A1.677,1.677,0,0,1,203.856,256.06Z" transform="translate(-169.648 -218.499)" fill="#c700ae"/>
      <path id="Trazado_117993" data-name="Trazado 117993" d="M257.118,246H256V256.06h5.589a1.677,1.677,0,0,0,1.677-1.677v-2.236A6.155,6.155,0,0,0,257.118,246Z" transform="translate(-227.382 -218.499)" fill="#b3009d"/>
      <path id="Trazado_117994" data-name="Trazado 117994" d="M216.03,186.06a5.03,5.03,0,1,1,5.031-5.031A5.036,5.036,0,0,1,216.03,186.06Z" transform="translate(-187.413 -156.324)" fill="#ffd7aa"/>
      <path id="Trazado_117995" data-name="Trazado 117995" d="M256,176V186.06A5.03,5.03,0,0,0,256,176Z" transform="translate(-227.382 -156.324)" fill="#ffc58f"/>
    </g>
  </g>
</svg>
