<svg xmlns="http://www.w3.org/2000/svg" width="101" height="101" viewBox="0 0 101 101">
  <g id="Grupo_81667" data-name="Grupo 81667" transform="translate(-637 -1318)">
    <g id="Grupo_81658" data-name="Grupo 81658">
      <circle id="Elipse_1147" data-name="Elipse 1147" cx="50.5" cy="50.5" r="50.5" transform="translate(637 1318)" fill="#b3009d"/>
    </g>
    <g id="_x31_4_Coordinate" transform="translate(657.141 1335.791)">
      <path id="Trazado_118006" data-name="Trazado 118006" d="M119.157,325.586a.645.645,0,0,1-.252-1.238l6.523-2.774a.645.645,0,0,1,.5,1.186l-6.523,2.774A.647.647,0,0,1,119.157,325.586Z" transform="translate(-103.687 -281.553)" fill="#3c0061"/>
      <path id="Trazado_118007" data-name="Trazado 118007" d="M305.468,325.586a.647.647,0,0,1-.252-.052l-6.523-2.774a.645.645,0,0,1,.5-1.186l6.523,2.774a.645.645,0,0,1-.252,1.238Z" transform="translate(-261.227 -281.553)" fill="#3c0061"/>
      <path id="Trazado_118008" data-name="Trazado 118008" d="M235.435,169.143a.644.644,0,0,1-.644-.644v-5.688a.644.644,0,1,1,1.289,0V168.5A.644.644,0,0,1,235.435,169.143Z" transform="translate(-205.577 -141.916)" fill="#3c0061"/>
      <path id="Trazado_118009" data-name="Trazado 118009" d="M174.875,223.207V224.9a.466.466,0,0,1-.382.458l-1.955.359a8.413,8.413,0,0,1-1.277,3.084l1.129,1.636a.464.464,0,0,1-.053.592l-1.195,1.195a.465.465,0,0,1-.6.056l-1.639-1.129a8.365,8.365,0,0,1-3.081,1.274l-.359,1.958a.463.463,0,0,1-.458.382h-1.689a.463.463,0,0,1-.457-.382l-.359-1.958a8.386,8.386,0,0,1-3.081-1.274l-1.639,1.129a.47.47,0,0,1-.6-.056l-1.195-1.195a.464.464,0,0,1-.053-.592l1.129-1.636a8.41,8.41,0,0,1-1.277-3.084l-1.955-.359a.466.466,0,0,1-.382-.458v-1.692a.466.466,0,0,1,.382-.458l1.955-.359a8.412,8.412,0,0,1,1.277-3.084l-1.129-1.636a.464.464,0,0,1,.053-.592l1.195-1.195a.465.465,0,0,1,.6-.056l1.639,1.129a8.391,8.391,0,0,1,3.081-1.274l.359-1.958a.463.463,0,0,1,.457-.382h1.689a.463.463,0,0,1,.458.382l.359,1.958a8.367,8.367,0,0,1,3.081,1.274l1.639-1.129a.465.465,0,0,1,.6.056l1.195,1.195a.464.464,0,0,1,.053.592l-1.129,1.636a8.413,8.413,0,0,1,1.277,3.084l1.955.359A.466.466,0,0,1,174.875,223.207Z" transform="translate(-134.307 -186.759)" fill="#04dab3"/>
      <path id="Trazado_118010" data-name="Trazado 118010" d="M216.258,272.258a3.9,3.9,0,1,1-3.9-3.9A3.9,3.9,0,0,1,216.258,272.258Z" transform="translate(-182.495 -234.965)" fill="#e7e7e7"/>
      <path id="Trazado_118011" data-name="Trazado 118011" d="M205.04,10.086A4.938,4.938,0,1,0,200.1,5.147,4.938,4.938,0,0,0,205.04,10.086Z" transform="translate(-175.179 0)" fill="#fed2a4"/>
      <path id="Trazado_118012" data-name="Trazado 118012" d="M173.478,90.843h-17.6a1.814,1.814,0,0,1-1.8-2.125,10.816,10.816,0,0,1,21.207,0A1.81,1.81,0,0,1,173.478,90.843Z" transform="translate(-134.821 -69.949)" fill="#cf00b5"/>
      <path id="Trazado_118013" data-name="Trazado 118013" d="M51.181,332.5a4.938,4.938,0,1,0-4.938-4.938A4.938,4.938,0,0,0,51.181,332.5Z" transform="translate(-40.359 -282.522)" fill="#fed2a4"/>
      <path id="Trazado_118014" data-name="Trazado 118014" d="M19.619,413.263H2.021a1.814,1.814,0,0,1-1.8-2.125,10.816,10.816,0,0,1,21.207,0A1.81,1.81,0,0,1,19.619,413.263Z" transform="translate(0 -352.471)" fill="#04dab3"/>
      <path id="Trazado_118015" data-name="Trazado 118015" d="M358.9,332.5a4.938,4.938,0,1,0-4.939-4.938A4.938,4.938,0,0,0,358.9,332.5Z" transform="translate(-310 -282.522)" fill="#fed2a4"/>
      <path id="Trazado_118016" data-name="Trazado 118016" d="M327.338,413.263h-17.6a1.814,1.814,0,0,1-1.8-2.125,10.816,10.816,0,0,1,21.207,0A1.81,1.81,0,0,1,327.338,413.263Z" transform="translate(-269.641 -352.471)" fill="#b3ddff"/>
    </g>
  </g>
</svg>
