<svg xmlns="http://www.w3.org/2000/svg" width="243.186" height="281.848" viewBox="0 0 243.186 281.848">
  <g id="Grupo_81685" data-name="Grupo 81685" transform="translate(3541.79 7879.5)">
    <g id="Grupo_81667" data-name="Grupo 81667" transform="translate(-3791 -7879.5)">
      <g id="Grupo_81684" data-name="Grupo 81684">
        <path id="Trazado_118022" data-name="Trazado 118022" d="M489.625,108.151A93.043,93.043,0,1,1,431.989,22.03,93.11,93.11,0,0,1,489.625,108.151Z" transform="translate(-41.192 -2.041)" fill="#ffca00"/>
      </g>
      <path id="Trazado_118023" data-name="Trazado 118023" d="M394.531,212.229h-.06c-1.435,0-2.887-.026-4.321-.086l.035-.873c1.417.06,2.861.086,4.287.086Zm4.382-.1-.035-.873c1.443-.06,2.9-.147,4.338-.268l.069.873C401.834,211.987,400.364,212.074,398.913,212.134Zm-13.145-.259c-1.452-.121-2.921-.268-4.364-.441l.1-.864c1.426.173,2.887.32,4.33.441l-.069.873Zm21.882-.458-.1-.864c1.426-.173,2.878-.389,4.3-.622l.147.864c-1.435.242-2.9.449-4.338.631Zm-30.585-.6c-1.443-.233-2.887-.51-4.313-.8l.182-.856c1.409.294,2.843.562,4.278.8l-.138.864Zm39.228-.83-.182-.856c1.409-.294,2.835-.622,4.235-.977l.216.847C419.153,209.352,417.718,209.689,416.292,209.982Zm-47.809-.959c-1.409-.354-2.835-.743-4.226-1.158l.251-.838c1.383.415,2.791.8,4.191,1.149Zm56.3-1.193-.251-.838c1.383-.415,2.774-.856,4.14-1.322l.285.83c-1.374.475-2.774.925-4.174,1.34Zm-64.714-1.3c-1.383-.475-2.774-.985-4.131-1.512l.32-.812c1.348.527,2.722,1.028,4.1,1.5Zm73-1.547-.32-.812c1.348-.527,2.7-1.089,4.01-1.668l.354.8c-1.331.588-2.688,1.149-4.045,1.677Zm-81.186-1.651c-1.34-.588-2.679-1.21-3.984-1.849l.38-.786c1.3.631,2.627,1.253,3.95,1.832l-.354.8Zm89.215-1.875-.38-.786c1.3-.64,2.6-1.3,3.863-2l.415.769C443.732,200.13,442.418,200.8,441.1,201.452ZM344,199.473c-1.288-.7-2.567-1.426-3.82-2.169l.449-.752c1.236.735,2.506,1.461,3.785,2.152Zm104.814-2.2-.449-.752c1.245-.743,2.48-1.521,3.682-2.307l.475.726c-1.21.8-2.463,1.582-3.716,2.325Zm-112.35-2.3c-1.219-.8-2.437-1.633-3.621-2.48l.51-.709c1.175.838,2.385,1.668,3.6,2.454l-.475.735Zm119.679-2.506-.51-.709c1.167-.838,2.342-1.711,3.483-2.6l.536.691c-1.149.9-2.333,1.78-3.517,2.627Zm-126.817-2.6c-1.141-.89-2.29-1.824-3.405-2.766l.562-.665c1.106.933,2.238,1.858,3.379,2.74Zm133.74-2.791-.562-.665c1.106-.933,2.2-1.9,3.258-2.878l.588.64C465.277,185.162,464.171,186.138,463.064,187.08ZM322.635,184.2c-1.072-.994-2.143-2.014-3.163-3.033l.614-.614c1.02,1.02,2.074,2.031,3.137,3.008Zm146.876-3.068-.614-.614c1.02-1.02,2.031-2.074,3.007-3.137l.64.588C471.56,179.043,470.54,180.106,469.512,181.134ZM316.43,178c-.985-1.072-1.962-2.178-2.9-3.284l.665-.562c.933,1.1,1.9,2.2,2.878,3.258Zm159.019-3.319-.665-.562c.933-1.1,1.858-2.238,2.748-3.379l.691.536c-.9,1.149-1.824,2.29-2.766,3.405Zm-164.7-3.362c-.89-1.149-1.78-2.325-2.619-3.509l.709-.51c.838,1.175,1.711,2.342,2.6,3.483Zm170.081-3.552-.709-.51c.838-1.175,1.668-2.385,2.454-3.587l.726.475c-.8,1.219-1.625,2.437-2.48,3.621ZM305.653,164.2c-.8-1.227-1.59-2.48-2.325-3.708l.752-.449c.735,1.227,1.5,2.463,2.308,3.682l-.726.475Zm179.985-3.768-.752-.449c.735-1.227,1.461-2.5,2.152-3.777l.769.415C487.107,157.9,486.381,159.192,485.638,160.427Zm-184.479-3.742c-.7-1.279-1.374-2.593-2.005-3.889l.786-.38c.631,1.288,1.3,2.584,2,3.854l-.769.415Zm188.662-3.967-.786-.38c.64-1.314,1.253-2.636,1.832-3.95l.8.354C491.091,150.065,490.469,151.4,489.821,152.718ZM297.3,148.829c-.579-1.322-1.149-2.679-1.677-4.036l.812-.32c.527,1.348,1.089,2.688,1.668,4Zm196.042-4.14-.812-.32c.527-1.34,1.028-2.714,1.5-4.088l.821.285c-.475,1.383-.985,2.766-1.512,4.122Zm-199.231-4.01c-.475-1.383-.925-2.791-1.34-4.174l.838-.251c.406,1.374.856,2.766,1.331,4.14l-.821.285ZM496.2,136.4l-.838-.251c.415-1.383.8-2.8,1.149-4.192l.847.216C497,133.584,496.614,135.01,496.2,136.4Zm-204.59-4.122c-.363-1.417-.691-2.852-.994-4.269l.856-.181c.294,1.409.622,2.826.985,4.235ZM498.342,127.9l-.856-.181c.294-1.409.562-2.843.8-4.278l.864.147c-.242,1.443-.51,2.9-.8,4.313ZM289.8,123.706c-.242-1.426-.449-2.887-.631-4.338l.864-.1c.182,1.435.389,2.887.622,4.3l-.864.147Zm209.974-4.459-.864-.1c.173-1.426.328-2.887.441-4.33l.873.069C500.105,116.343,499.958,117.812,499.777,119.247ZM288.723,115c-.121-1.435-.207-2.912-.277-4.373l.873-.035c.061,1.452.156,2.912.268,4.338l-.873.069Zm211.771-4.5-.873-.035c.06-1.443.086-2.9.086-4.347h.873C500.581,107.571,500.555,109.049,500.494,110.5ZM289.233,106.24h-.873v-.121c0-1.417.026-2.852.086-4.269l.873.035c-.052,1.4-.086,2.826-.086,4.226Zm210.38-4.693c-.06-1.443-.156-2.9-.277-4.338l.873-.069c.121,1.452.216,2.921.277,4.373Zm-210.043-4-.873-.069c.121-1.461.268-2.921.441-4.364l.864.1c-.173,1.426-.32,2.878-.441,4.33Zm209.317-4.667c-.182-1.426-.389-2.869-.631-4.3l.864-.147c.242,1.443.458,2.9.631,4.338ZM290.624,88.912l-.864-.138c.233-1.443.51-2.9.8-4.313l.856.181c-.294,1.409-.562,2.843-.8,4.278ZM497.444,84.3c-.294-1.409-.631-2.835-.985-4.235l.847-.216c.363,1.409.691,2.852.994,4.269ZM292.387,80.391l-.847-.216c.354-1.426.752-2.852,1.158-4.235l.838.251C293.131,77.565,292.742,78.982,292.387,80.391ZM495.3,75.88c-.415-1.383-.864-2.766-1.331-4.131l.821-.285c.475,1.374.925,2.774,1.34,4.166l-.838.251ZM294.859,72.042l-.821-.285c.475-1.383.977-2.774,1.5-4.122l.812.32C295.836,69.294,295.326,70.677,294.859,72.042Zm197.607-4.364c-.527-1.34-1.089-2.688-1.668-4.01l.8-.354c.588,1.331,1.158,2.688,1.685,4.045ZM298.013,63.927l-.8-.354c.579-1.322,1.2-2.67,1.841-3.984l.786.38c-.64,1.3-1.253,2.636-1.832,3.95Zm190.943-4.192c-.631-1.279-1.3-2.575-2-3.854l.769-.415c.7,1.288,1.374,2.6,2.014,3.889l-.786.389Zm-187.123-3.63-.769-.415c.691-1.27,1.417-2.558,2.169-3.82l.752.449C303.242,53.565,302.516,54.844,301.833,56.106Zm182.975-4c-.743-1.244-1.521-2.48-2.307-3.682l.726-.475c.8,1.21,1.581,2.463,2.325,3.716l-.752.449ZM306.293,48.63l-.735-.475c.8-1.219,1.625-2.437,2.472-3.621l.709.51c-.838,1.175-1.668,2.385-2.454,3.6Zm173.745-3.794c-.838-1.167-1.711-2.342-2.61-3.483l.683-.536c.9,1.149,1.78,2.333,2.627,3.509l-.709.51ZM311.349,41.544l-.691-.536c.89-1.149,1.824-2.29,2.766-3.405l.665.562C313.155,39.271,312.23,40.4,311.349,41.544Zm163.34-3.561c-.933-1.1-1.9-2.187-2.887-3.258l.64-.588c.994,1.072,1.97,2.178,2.9,3.284l-.665.562ZM316.966,34.9l-.64-.588c.977-1.063,2.005-2.135,3.033-3.163l.614.614c-1.02,1.028-2.04,2.083-3.008,3.146Zm151.82-3.31c-1.02-1.02-2.074-2.031-3.137-3.008l.588-.64c1.072.985,2.143,2.005,3.172,3.033l-.614.622ZM323.111,28.736l-.588-.64c1.063-.985,2.169-1.962,3.284-2.9l.562.665c-1.106.942-2.2,1.91-3.258,2.887ZM462.382,25.7c-1.1-.933-2.238-1.849-3.379-2.74l.536-.691c1.149.9,2.3,1.824,3.405,2.766ZM329.739,23.11l-.536-.691c1.149-.9,2.325-1.78,3.509-2.627l.51.709c-1.175.838-2.342,1.72-3.483,2.6Zm125.772-2.748c-1.175-.838-2.385-1.659-3.6-2.454l.475-.735c1.227.8,2.446,1.633,3.621,2.472l-.51.709ZM336.8,18.045l-.475-.726c1.219-.8,2.463-1.582,3.716-2.325l.449.752c-1.236.743-2.472,1.521-3.682,2.307Zm111.425-2.437c-1.236-.735-2.515-1.461-3.785-2.152l.415-.769c1.288.691,2.567,1.426,3.82,2.169ZM344.258,13.586l-.415-.769c1.279-.691,2.584-1.374,3.889-2.014l.389.786C346.825,12.229,345.529,12.894,344.258,13.586Zm96.31-2.117c-1.3-.631-2.627-1.253-3.95-1.832l.346-.8c1.331.588,2.679,1.2,3.984,1.841l-.38.786Zm-88.515-1.72-.354-.8c.769-.337,1.547-.674,2.325-.994.57-.233,1.149-.467,1.728-.691l.32.812c-.57.225-1.141.449-1.711.683Q353.195,9.243,352.054,9.749Zm80.538-1.772c-1.348-.527-2.722-1.028-4.088-1.5l.285-.83c1.374.467,2.766.977,4.122,1.5l-.32.812Zm-72.44-1.4-.285-.821c1.374-.475,2.783-.925,4.174-1.34l.251.838c-1.383.415-2.774.864-4.14,1.331Zm64.2-1.409c-1.383-.406-2.8-.8-4.2-1.149l.216-.847c1.409.354,2.835.743,4.235,1.158Zm-55.873-1.08-.216-.847c1.409-.354,2.852-.691,4.269-.994l.182.856C371.309,3.4,369.883,3.733,368.483,4.088Zm47.438-1.037c-1.409-.294-2.852-.562-4.278-.8l.138-.864c1.435.233,2.887.5,4.313.8l-.181.856ZM377,2.307l-.147-.864c1.435-.242,2.9-.449,4.338-.631l.1.864c-1.435.181-2.878.389-4.3.631Zm30.343-.665c-1.435-.173-2.9-.32-4.33-.441l.069-.873C404.53.441,406,.6,407.442.769l-.1.864Zm-21.71-.415L385.56.354c1.452-.121,2.921-.216,4.373-.277l.035.873c-1.443.06-2.9.156-4.338.268ZM398.671.942c-1.391-.052-2.8-.086-4.2-.086h-.147V0h.147c1.409,0,2.835.026,4.235.086l-.035.873Z" transform="translate(-39.15)" fill="gray"/>
      <path id="Trazado_118024" data-name="Trazado 118024" d="M547.611,128.623,528.546,115.53V121.8H509.671a99.134,99.134,0,0,1-99.136,99.136v6.542h-.026v61.689a4.2,4.2,0,1,0,.882,0V234.016a112.2,112.2,0,0,0,110.553-98.669h6.611v6.369l19.065-13.093Z" transform="translate(-55.224 -15.686)" fill="#ffca00"/>
      <path id="Trazado_118040" data-name="Trazado 118040" d="M405.273,84a33.273,33.273,0,1,0,33.273,33.273A33.254,33.254,0,0,0,405.273,84Zm0,61.347a28.074,28.074,0,1,1,28.074-28.074A28.058,28.058,0,0,1,405.273,145.347Z" transform="translate(-50.506 -11.404)" fill="#fff"/>
      <path id="Trazado_118041" data-name="Trazado 118041" d="M410.092,116.233a2.6,2.6,0,0,0-2.6,2.6v16.739a2.6,2.6,0,0,0,5.2,0V118.833A2.6,2.6,0,0,0,410.092,116.233Z" transform="translate(-55.324 -15.781)" fill="#fff"/>
      <path id="Trazado_118042" data-name="Trazado 118042" d="M409.949,111.447a3.509,3.509,0,1,0-3.51-3.509A3.509,3.509,0,0,0,409.949,111.447Z" transform="translate(-55.182 -14.178)" fill="#fff"/>
    </g>
  </g>
</svg>
