<svg xmlns="http://www.w3.org/2000/svg" width="948" height="465" viewBox="0 0 948 465">
  <g id="Grupo_81668" data-name="Grupo 81668" transform="translate(-326 -1971)">
    <g id="Grupo_81663" data-name="Grupo 81663">
      <g id="Grupo_53347" data-name="Grupo 53347" transform="translate(113 975)">
        <text id="Los_clientes_internos_son_los_mismos_empleados_o_en_algunos_casos_como_en_las_instituciones_educativas_son_sus_estudiantes._" data-name="Los clientes internos son los mismos empleados o, en algunos casos, como en las instituciones educativas, son sus estudiantes. " transform="translate(768 1009)" fill="#12263f" font-size="16" font-family="Roboto-Regular, Roboto"><tspan x="0" y="15">Los clientes </tspan><tspan y="15" font-family="Roboto-Bold, Roboto" font-weight="700">internos</tspan><tspan y="15" xml:space="preserve"> son los mismos empleados o, en </tspan><tspan x="0" y="39">algunos casos, como en las instituciones educativas, </tspan><tspan x="0" y="63">son sus estudiantes. </tspan></text>
        <text id="Los_clientes_externos_son_quienes_reciben_un_producto_o_servicio_de_la_empresa_compradores_o_quienes_utilizan_los_servicios_de_la_misma._" data-name="Los clientes externos son quienes reciben un producto o servicio de la empresa, compradores o quienes utilizan los servicios de la misma. " transform="translate(213 1176)" fill="#12263f" font-size="16" font-family="Roboto-Regular, Roboto"><tspan x="5.242" y="15">Los clientes </tspan><tspan y="15" font-family="Roboto-Bold, Roboto" font-weight="700">externos</tspan><tspan y="15" xml:space="preserve"> son quienes reciben un producto </tspan><tspan x="46.055" y="39">o servicio de la empresa, compradores o quienes </tspan><tspan x="154.055" y="63">utilizan los servicios de la misma. </tspan></text>
        <text id="Existen_otros_roles_que_por_lo_general_se_involucran_como_los_proveedores_y_los_terceros_quienes_se_caracterizan_por_prestar_un_servicio_interno_como_la_seguridad_o_vigilancia_contratada_tecnología_servicios_de_aseo_y_o_cafetería._Cuando_estos_servici" data-name="Existen otros roles que por lo general se involucran, como los proveedores y los terceros, quienes se caracterizan por prestar un servicio interno, como la seguridad o vigilancia contratada, tecnología, servicios de aseo y/o cafetería. Cuando estos servici" transform="translate(768 1293)" fill="#12263f" font-size="16" font-family="Roboto-Regular, Roboto"><tspan x="0" y="15">Existen </tspan><tspan y="15" font-family="Roboto-Bold, Roboto" font-weight="700">otros roles</tspan><tspan y="15" xml:space="preserve"> que por lo general se involucran, </tspan><tspan x="0" y="39">como los proveedores y los terceros, quienes se </tspan><tspan x="0" y="63">caracterizan por prestar un servicio interno, como la </tspan><tspan x="0" y="87">seguridad o vigilancia contratada, tecnología, servicios </tspan><tspan x="0" y="111">de aseo y/o cafetería. Cuando estos servicios son </tspan><tspan x="0" y="135">contratados con un tercero (outsourcing), ellos deben </tspan><tspan x="0" y="159">cumplir el protocolo interno. </tspan></text>
        <line id="Línea_86" data-name="Línea 86" x2="21.177" transform="translate(736.169 1046.599)" fill="none" stroke="#b3009d" stroke-linecap="round" stroke-width="2"/>
        <line id="Línea_88" data-name="Línea 88" x2="21.177" transform="translate(736.169 1368.285)" fill="none" stroke="#b3009d" stroke-linecap="round" stroke-width="2"/>
        <line id="Línea_87" data-name="Línea 87" x2="21.177" transform="translate(617.176 1207.442)" fill="none" stroke="#bc36ac" stroke-linecap="round" stroke-width="2"/>
        <line id="Línea_90" data-name="Línea 90" y2="239" transform="translate(687 1097)" fill="none" stroke="#707070" stroke-linecap="round" stroke-width="3" stroke-dasharray="0 9"/>
        <g id="Grupo_81666" data-name="Grupo 81666">
          <g id="Grupo_81657" data-name="Grupo 81657">
            <circle id="Elipse_1146" data-name="Elipse 1146" cx="50.5" cy="50.5" r="50.5" transform="translate(637 1157)" fill="#b3009d"/>
          </g>
          <g id="Group_36_" data-name="Group (36)" transform="translate(658.382 1177.764)">
            <path id="Trazado_117974" data-name="Trazado 117974" d="M.982,310.376a3.354,3.354,0,0,1,0-4.743L20.51,286.106l4.743,4.743L5.725,310.376A3.354,3.354,0,0,1,.982,310.376Z" transform="translate(0 -254.123)" fill="#3c0061"/>
            <path id="Trazado_117975" data-name="Trazado 117975" d="M8.787,329.218a3.354,3.354,0,0,0,4.743,0L33.057,309.69l-2.371-2.371Z" transform="translate(-7.805 -272.964)" fill="#3c0061"/>
            <path id="Trazado_117976" data-name="Trazado 117976" d="M131.65,147.3a15.65,15.65,0,1,1,15.65-15.65A15.668,15.668,0,0,1,131.65,147.3Z" transform="translate(-103.033 -103.031)" fill="#4c007b"/>
            <path id="Trazado_117977" data-name="Trazado 117977" d="M157.053,179.173a15.643,15.643,0,1,0,22.123-22.123Z" transform="translate(-139.496 -139.494)" fill="#3c0061"/>
            <path id="Trazado_117978" data-name="Trazado 117978" d="M158.3,170.592a12.3,12.3,0,1,0-12.3-12.3A12.3,12.3,0,0,0,158.3,170.592Z" transform="translate(-129.679 -129.677)" fill="#bceaf9"/>
            <path id="Trazado_117979" data-name="Trazado 117979" d="M178.256,195.635a12.291,12.291,0,1,0,17.382-17.382Z" transform="translate(-158.329 -158.326)" fill="#b3ddff"/>
            <path id="Trazado_117980" data-name="Trazado 117980" d="M12.856,80.061H1.677A1.677,1.677,0,0,1,0,78.384V76.148A6.155,6.155,0,0,1,6.148,70H8.384a6.155,6.155,0,0,1,6.148,6.148v2.236A1.677,1.677,0,0,1,12.856,80.061Z" transform="translate(0 -62.175)" fill="#ffd947"/>
            <path id="Trazado_117981" data-name="Trazado 117981" d="M66.118,70H65V80.061h5.589a1.677,1.677,0,0,0,1.677-1.677V76.148A6.155,6.155,0,0,0,66.118,70Z" transform="translate(-57.734 -62.175)" fill="#ffca00"/>
            <path id="Trazado_117982" data-name="Trazado 117982" d="M25.03,10.061a5.03,5.03,0,1,1,5.03-5.03A5.036,5.036,0,0,1,25.03,10.061Z" transform="translate(-17.764)" fill="#ffd7aa"/>
            <path id="Trazado_117983" data-name="Trazado 117983" d="M394.856,80.061H383.677A1.677,1.677,0,0,1,382,78.384V76.148A6.155,6.155,0,0,1,388.148,70h2.236a6.155,6.155,0,0,1,6.148,6.148v2.236A1.677,1.677,0,0,1,394.856,80.061Z" transform="translate(-339.297 -62.175)" fill="#04dab3"/>
            <path id="Trazado_117984" data-name="Trazado 117984" d="M448.118,70H447V80.061h5.589a1.677,1.677,0,0,0,1.677-1.677V76.148A6.155,6.155,0,0,0,448.118,70Z" transform="translate(-397.03 -62.175)" fill="#00cca7"/>
            <path id="Trazado_117985" data-name="Trazado 117985" d="M407.031,10.061a5.03,5.03,0,1,1,5.03-5.03A5.036,5.036,0,0,1,407.031,10.061Z" transform="translate(-357.061)" fill="#ffd7aa"/>
            <path id="Trazado_117986" data-name="Trazado 117986" d="M65,0V10.061A5.03,5.03,0,1,0,65,0Z" transform="translate(-57.734)" fill="#ffc58f"/>
            <path id="Trazado_117987" data-name="Trazado 117987" d="M452.03,5.03A5.036,5.036,0,0,0,447,0V10.061A5.036,5.036,0,0,0,452.03,5.03Z" transform="translate(-397.03)" fill="#ffc58f"/>
            <path id="Trazado_117988" data-name="Trazado 117988" d="M394.856,432.061H383.677A1.677,1.677,0,0,1,382,430.384v-2.236A6.155,6.155,0,0,1,388.148,422h2.236a6.155,6.155,0,0,1,6.148,6.148v2.236A1.677,1.677,0,0,1,394.856,432.061Z" transform="translate(-339.297 -374.825)" fill="#bceaf9"/>
            <path id="Trazado_117989" data-name="Trazado 117989" d="M448.118,422H447v10.061h5.589a1.677,1.677,0,0,0,1.677-1.677v-2.236A6.155,6.155,0,0,0,448.118,422Z" transform="translate(-397.03 -374.825)" fill="#b3ddff"/>
            <path id="Trazado_117990" data-name="Trazado 117990" d="M407.031,362.061a5.03,5.03,0,1,1,5.03-5.03A5.036,5.036,0,0,1,407.031,362.061Z" transform="translate(-357.061 -312.65)" fill="#ffd7aa"/>
            <path id="Trazado_117991" data-name="Trazado 117991" d="M447,352v10.061A5.03,5.03,0,1,0,447,352Z" transform="translate(-397.03 -312.65)" fill="#ffc58f"/>
            <path id="Trazado_117992" data-name="Trazado 117992" d="M203.856,256.06H192.677A1.677,1.677,0,0,1,191,254.383v-2.236A6.155,6.155,0,0,1,197.148,246h2.236a6.155,6.155,0,0,1,6.148,6.148v2.236A1.677,1.677,0,0,1,203.856,256.06Z" transform="translate(-169.648 -218.499)" fill="#c700ae"/>
            <path id="Trazado_117993" data-name="Trazado 117993" d="M257.118,246H256V256.06h5.589a1.677,1.677,0,0,0,1.677-1.677v-2.236A6.155,6.155,0,0,0,257.118,246Z" transform="translate(-227.382 -218.499)" fill="#b3009d"/>
            <path id="Trazado_117994" data-name="Trazado 117994" d="M216.03,186.06a5.03,5.03,0,1,1,5.031-5.031A5.036,5.036,0,0,1,216.03,186.06Z" transform="translate(-187.413 -156.324)" fill="#ffd7aa"/>
            <path id="Trazado_117995" data-name="Trazado 117995" d="M256,176V186.06A5.03,5.03,0,0,0,256,176Z" transform="translate(-227.382 -156.324)" fill="#ffc58f"/>
          </g>
        </g>
        <g id="Grupo_81667" data-name="Grupo 81667">
          <g id="Grupo_81658" data-name="Grupo 81658">
            <circle id="Elipse_1147" data-name="Elipse 1147" cx="50.5" cy="50.5" r="50.5" transform="translate(637 1318)" fill="#b3009d"/>
          </g>
          <g id="_x31_4_Coordinate" transform="translate(657.141 1335.791)">
            <path id="Trazado_118006" data-name="Trazado 118006" d="M119.157,325.586a.645.645,0,0,1-.252-1.238l6.523-2.774a.645.645,0,0,1,.5,1.186l-6.523,2.774A.647.647,0,0,1,119.157,325.586Z" transform="translate(-103.687 -281.553)" fill="#3c0061"/>
            <path id="Trazado_118007" data-name="Trazado 118007" d="M305.468,325.586a.647.647,0,0,1-.252-.052l-6.523-2.774a.645.645,0,0,1,.5-1.186l6.523,2.774a.645.645,0,0,1-.252,1.238Z" transform="translate(-261.227 -281.553)" fill="#3c0061"/>
            <path id="Trazado_118008" data-name="Trazado 118008" d="M235.435,169.143a.644.644,0,0,1-.644-.644v-5.688a.644.644,0,1,1,1.289,0V168.5A.644.644,0,0,1,235.435,169.143Z" transform="translate(-205.577 -141.916)" fill="#3c0061"/>
            <path id="Trazado_118009" data-name="Trazado 118009" d="M174.875,223.207V224.9a.466.466,0,0,1-.382.458l-1.955.359a8.413,8.413,0,0,1-1.277,3.084l1.129,1.636a.464.464,0,0,1-.053.592l-1.195,1.195a.465.465,0,0,1-.6.056l-1.639-1.129a8.365,8.365,0,0,1-3.081,1.274l-.359,1.958a.463.463,0,0,1-.458.382h-1.689a.463.463,0,0,1-.457-.382l-.359-1.958a8.386,8.386,0,0,1-3.081-1.274l-1.639,1.129a.47.47,0,0,1-.6-.056l-1.195-1.195a.464.464,0,0,1-.053-.592l1.129-1.636a8.41,8.41,0,0,1-1.277-3.084l-1.955-.359a.466.466,0,0,1-.382-.458v-1.692a.466.466,0,0,1,.382-.458l1.955-.359a8.412,8.412,0,0,1,1.277-3.084l-1.129-1.636a.464.464,0,0,1,.053-.592l1.195-1.195a.465.465,0,0,1,.6-.056l1.639,1.129a8.391,8.391,0,0,1,3.081-1.274l.359-1.958a.463.463,0,0,1,.457-.382h1.689a.463.463,0,0,1,.458.382l.359,1.958a8.367,8.367,0,0,1,3.081,1.274l1.639-1.129a.465.465,0,0,1,.6.056l1.195,1.195a.464.464,0,0,1,.053.592l-1.129,1.636a8.413,8.413,0,0,1,1.277,3.084l1.955.359A.466.466,0,0,1,174.875,223.207Z" transform="translate(-134.307 -186.759)" fill="#04dab3"/>
            <path id="Trazado_118010" data-name="Trazado 118010" d="M216.258,272.258a3.9,3.9,0,1,1-3.9-3.9A3.9,3.9,0,0,1,216.258,272.258Z" transform="translate(-182.495 -234.965)" fill="#e7e7e7"/>
            <path id="Trazado_118011" data-name="Trazado 118011" d="M205.04,10.086A4.938,4.938,0,1,0,200.1,5.147,4.938,4.938,0,0,0,205.04,10.086Z" transform="translate(-175.179 0)" fill="#fed2a4"/>
            <path id="Trazado_118012" data-name="Trazado 118012" d="M173.478,90.843h-17.6a1.814,1.814,0,0,1-1.8-2.125,10.816,10.816,0,0,1,21.207,0A1.81,1.81,0,0,1,173.478,90.843Z" transform="translate(-134.821 -69.949)" fill="#cf00b5"/>
            <path id="Trazado_118013" data-name="Trazado 118013" d="M51.181,332.5a4.938,4.938,0,1,0-4.938-4.938A4.938,4.938,0,0,0,51.181,332.5Z" transform="translate(-40.359 -282.522)" fill="#fed2a4"/>
            <path id="Trazado_118014" data-name="Trazado 118014" d="M19.619,413.263H2.021a1.814,1.814,0,0,1-1.8-2.125,10.816,10.816,0,0,1,21.207,0A1.81,1.81,0,0,1,19.619,413.263Z" transform="translate(0 -352.471)" fill="#04dab3"/>
            <path id="Trazado_118015" data-name="Trazado 118015" d="M358.9,332.5a4.938,4.938,0,1,0-4.939-4.938A4.938,4.938,0,0,0,358.9,332.5Z" transform="translate(-310 -282.522)" fill="#fed2a4"/>
            <path id="Trazado_118016" data-name="Trazado 118016" d="M327.338,413.263h-17.6a1.814,1.814,0,0,1-1.8-2.125,10.816,10.816,0,0,1,21.207,0A1.81,1.81,0,0,1,327.338,413.263Z" transform="translate(-269.641 -352.471)" fill="#b3ddff"/>
          </g>
        </g>
      </g>
      <g id="Grupo_81665" data-name="Grupo 81665">
        <g id="Grupo_81664" data-name="Grupo 81664" transform="translate(113 975)">
          <g id="Grupo_81656" data-name="Grupo 81656">
            <g id="Grupo_81659" data-name="Grupo 81659">
              <circle id="Elipse_1142" data-name="Elipse 1142" cx="50.5" cy="50.5" r="50.5" transform="translate(637 996)" fill="#b3009d"/>
            </g>
          </g>
        </g>
        <g id="Grupo_81662" data-name="Grupo 81662">
          <g id="Group_10_1_" data-name="Group 10 (1)" transform="translate(772.881 1993)">
            <path id="Trazado_117996" data-name="Trazado 117996" d="M467.689,374.151a6.362,6.362,0,0,1-6.356-6.356,6.357,6.357,0,1,1,12.712,0A6.362,6.362,0,0,1,467.689,374.151Z" transform="translate(-424.68 -332.625)" fill="#f6a96c"/>
            <path id="Trazado_117997" data-name="Trazado 117997" d="M439.373,522.667a11.039,11.039,0,0,0-6.466,2.1l-2.333,5.271,4.033,5.337h16V533.79A11.214,11.214,0,0,0,439.373,522.667Z" transform="translate(-396.364 -481.141)" fill="#b3ddff"/>
            <path id="Trazado_117998" data-name="Trazado 117998" d="M8.051,13.423,3.129,16l.934-5.643L0,6.494,5.633,5.7,8.051,0l2.477,5.7L16,6.494l-3.957,3.859L12.973,16Z" fill="#fdbf00"/>
            <path id="Trazado_117999" data-name="Trazado 117999" d="M253.25,10.339,254.2,16l-4.926-2.574L244.352,16l.953-5.657-3.973-3.845,5.53-.794L249.278,0l2.479,5.7,5.466.794Z" transform="translate(-222.159)" fill="#fdbf00"/>
            <path id="Trazado_118000" data-name="Trazado 118000" d="M489.278,13.423,484.356,16l.934-5.643-3.957-3.859L486.86,5.7,489.278,0l2.477,5.7,5.574.794-4.063,3.859L494.2,16Z" transform="translate(-443.091)" fill="#fdbf00"/>
            <path id="Trazado_118001" data-name="Trazado 118001" d="M67.689,374.151a6.362,6.362,0,0,1-6.356-6.356,6.357,6.357,0,1,1,12.712,0A6.362,6.362,0,0,1,67.689,374.151Z" transform="translate(-56.46 -332.625)" fill="#ffbd86"/>
            <path id="Trazado_118002" data-name="Trazado 118002" d="M11.229,522.667A11.214,11.214,0,0,0,0,533.79v1.589H16l3.942-4.767L17.7,524.771A11.037,11.037,0,0,0,11.229,522.667Z" transform="translate(0 -481.141)" fill="#04dab3"/>
            <path id="Trazado_118003" data-name="Trazado 118003" d="M346.259,16l-4.926-2.574V0l2.479,5.7,5.466.794-3.972,3.845Z" transform="translate(-314.214)" fill="#fdbf00"/>
            <g id="Grupo_81661" data-name="Grupo 81661">
              <path id="Trazado_118004" data-name="Trazado 118004" d="M267.689,321.333a6.375,6.375,0,0,0-6.356,6.356,6.466,6.466,0,0,0,6.356,6.462c3.5,0,6.356-6.462,6.356-6.462S271.185,321.333,267.689,321.333Z" transform="translate(-240.57 -295.803)" fill="#fed2a4"/>
            </g>
            <path id="Trazado_118005" data-name="Trazado 118005" d="M223.579,493.79v4.767H201.333V493.79a11.123,11.123,0,0,1,22.246,0Z" transform="translate(-185.337 -444.319)" fill="#cf00b5"/>
          </g>
        </g>
      </g>
    </g>
  </g>
</svg>
