<svg xmlns="http://www.w3.org/2000/svg" width="930.672" height="590.839" viewBox="0 0 930.672 590.839">
  <g id="Grupo_81637" data-name="Grupo 81637" transform="translate(-402 -828.5)">
    <g id="OBJECTS" transform="translate(401.997 903.565)">
      <path id="Trazado_117814" data-name="Trazado 117814" d="M783.275,435.629C749.543,486.8,691.7,516.88,630.41,516.88H121.7c-102.247,0-159.583-119.549-93.273-186.87S36.171,205.2,138.457,151.219c99.1-52.3,132.92,59.177,224.208-13.76s224.2-66.064,253.388,8.262S638.373,246.191,700.3,262.7s122.493,110.094,85.323,169.284c-.778,1.232-1.556,2.451-2.347,3.657Z" transform="translate(0 -10.339)" fill="#c8e6ff"/>
      <path id="Trazado_117815" data-name="Trazado 117815" d="M859.03,517.9c-53.587,4.552-89.719,105-223.689,44.627,0,0,14.707-43.848,80.615-71.187S859.03,517.9,859.03,517.9Z" transform="translate(-98.36 -71.86)" fill="#cddcf4"/>
      <path id="Trazado_117816" data-name="Trazado 117816" d="M656.977,560.626a373.673,373.673,0,0,1,43.3-19c3.683-1.414,7.418-2.684,11.179-3.929,3.735-1.3,7.509-2.438,11.3-3.606,3.761-1.206,7.587-2.2,11.413-3.229,1.907-.505,3.813-1.051,5.732-1.531l5.772-1.388,5.784-1.323,5.823-1.141,5.823-1.141c1.946-.376,3.9-.662,5.862-.96,3.917-.57,7.82-1.232,11.762-1.608,3.943-.415,7.859-.972,11.827-1.128a198.285,198.285,0,0,1,47.3,1.751,319.21,319.21,0,0,0-46.9,2.464l-2.9.324-2.892.441-5.8.843c-3.865.493-7.7,1.271-11.543,1.972-1.919.376-3.852.648-5.758,1.037l-5.732,1.193L752.6,531.86l-5.694,1.362-5.706,1.309c-1.893.455-3.787.973-5.681,1.453l-5.68,1.465c-1.893.48-3.761,1.063-5.654,1.57-3.774,1.037-7.548,2.049-11.283,3.2s-7.509,2.2-11.244,3.4c-14.966,4.656-29.789,9.791-44.665,15.005Z" transform="translate(-101.71 -77.495)" fill="#b0bdd1"/>
      <path id="Trazado_117817" data-name="Trazado 117817" d="M861.084,321.838c-65.389,46.74-35.145,203.38-253.349,228.047,0,0-14.563-67.568,49.244-152.982S861.084,321.838,861.084,321.838Z" transform="translate(-93.865 -46.756)" fill="#dbe9ff"/>
      <path id="Trazado_117818" data-name="Trazado 117818" d="M625.168,535.342a366.728,366.728,0,0,1,34.484-58.788,414.376,414.376,0,0,1,44.043-52.317,361.97,361.97,0,0,1,52.46-43.978c18.831-12.878,39.153-23.953,60.825-30.866a379.375,379.375,0,0,0-56.454,36.832,544.188,544.188,0,0,0-50.112,44.7,668.858,668.858,0,0,0-44.886,50.086c-14.136,17.469-27.43,35.665-40.347,54.34Z" transform="translate(-96.785 -51.082)" fill="#cddcf4"/>
      <path id="Trazado_117819" data-name="Trazado 117819" d="M73.163,502.653c53.134,8.313,82.094,111.054,219.993,60.267,0,0-11.582-44.781-75.4-76.685S73.163,502.667,73.163,502.667Z" transform="translate(-11.326 -70.581)" fill="#cddcf4"/>
      <path id="Trazado_117820" data-name="Trazado 117820" d="M279.571,559.07c-14.474-6.251-28.908-12.412-43.5-18.118-3.632-1.452-7.314-2.788-10.972-4.189-3.644-1.427-7.34-2.7-11.036-3.994-1.854-.623-3.67-1.349-5.525-1.958l-5.563-1.868c-1.855-.609-3.7-1.258-5.564-1.842l-5.6-1.7-5.59-1.764-5.641-1.595-5.642-1.595c-1.881-.532-3.787-.934-5.668-1.44-3.786-.959-7.548-2.01-11.374-2.775l-5.719-1.258-2.853-.648-2.879-.532a319.378,319.378,0,0,0-46.6-5.758c15.705-1.531,31.644-.662,47.311,1.582,3.942.428,7.82,1.271,11.711,1.958,3.917.648,7.755,1.582,11.62,2.438,1.932.441,3.864.856,5.784,1.374L182,516.947l5.733,1.556,5.68,1.725,5.654,1.789c1.881.61,3.735,1.285,5.6,1.933,3.735,1.3,7.483,2.555,11.153,4.033,3.683,1.427,7.379,2.84,11.011,4.4,3.657,1.5,7.288,3.034,10.867,4.708a373.7,373.7,0,0,1,41.865,22Z" transform="translate(-15.457 -75.524)" fill="#b0bdd1"/>
      <path id="Trazado_117821" data-name="Trazado 117821" d="M114.961,313.409c58.88,48.7,19.713,195.222,225,233.222,0,0,18.338-63.107-36.455-148.378S114.961,313.409,114.961,313.409Z" transform="translate(-17.797 -45.512)" fill="#dbe9ff"/>
      <path id="Trazado_117822" data-name="Trazado 117822" d="M335.343,532.372c-11.1-18.532-22.514-36.637-34.783-54.132C288.252,460.8,275.244,443.9,261.316,427.79a525.206,525.206,0,0,0-44.47-45.755,365.886,365.886,0,0,0-50.955-38.842c20.128,7.911,38.7,19.752,55.727,33.2a341.816,341.816,0,0,1,46.871,45.21,390.454,390.454,0,0,1,38.245,52.615,343.275,343.275,0,0,1,28.609,58.166Z" transform="translate(-25.682 -50.123)" fill="#cddcf4"/>
      <path id="Trazado_117823" data-name="Trazado 117823" d="M517.92,474.788c-7.366,8.754-14.045,23.266-18.2,25.575s-11.14,3.1-17.742,24.368,26.742,18.352,26.742,18.352,14.266-8.2,20.024-27.987l14.279-12.671Z" transform="translate(-74.484 -70.496)" fill="#f6a397"/>
      <path id="Trazado_117824" data-name="Trazado 117824" d="M494.07,545.179a53.458,53.458,0,0,0,19.946-13.19c9.195-9.714,10.375-26.976,10.375-26.976l4.4,8.223,8.806-9.415,4.241-.415,3.125,3.449-14.279,12.671c-5.758,19.791-20.024,27.987-20.024,27.987s-9.2.791-16.976-1.518a7.69,7.69,0,0,1,.363-.816Z" transform="translate(-76.429 -74.926)" fill="#d65863"/>
      <path id="Trazado_117825" data-name="Trazado 117825" d="M572.75,384.67c-10.22,7.47-16.315,12.891-21.4,23.046s-36.909,46.663-38.945,49.917,17.9,37.8,33.836,46.26c0,0,24.07-27.767,37.96-38.272s9.143-47.751,2.71-60.279A97.848,97.848,0,0,0,572.75,384.67Z" transform="translate(-79.305 -56.544)" fill="#540385"/>
      <path id="Trazado_117826" data-name="Trazado 117826" d="M576.275,460.406V439.669s2.7-1.077,4.812,5.914a19.207,19.207,0,0,1,.4,8.274l15.5-11.659c.636,13.047-1.453,26.327-8.884,31.943-13.89,10.5-37.961,38.271-37.961,38.271-4.111-2.178-8.494-6.108-12.684-10.777C547.263,491.869,565.86,473.038,576.275,460.406Z" transform="translate(-83.206 -65.049)" fill="#3c0061"/>
      <path id="Trazado_117827" data-name="Trazado 117827" d="M465.371,545.91c-2.645.83-4.6,2.088-4.6,5.435s.57,8.637,1.842,10.712,7.807,3.32,7.807,3.32-.441-13.8-1.815-16.327a6.473,6.473,0,0,0-3.217-3.125Z" transform="translate(-71.333 -81.506)" fill="#f6a397"/>
      <path id="Trazado_117828" data-name="Trazado 117828" d="M462.764,564.572a9.93,9.93,0,0,1-.908-2.412c1.414,1.4,1.893,1.4,3.631,1.595l4.967,1.543c.078,1.557.1,2.594.1,2.594s-6.536-1.245-7.807-3.32Z" transform="translate(-71.502 -84.022)" fill="#d65863"/>
      <path id="Trazado_117829" data-name="Trazado 117829" d="M472.427,539.926c-3.229.35-6.445,2.762-6.445,6.108s-1.155,12.671,0,14.162,6.8,5.758,8.754,6.109,5.279-.234,4.824-1.271S472.427,539.926,472.427,539.926Z" transform="translate(-72.061 -80.58)" fill="#f6a397"/>
      <path id="Trazado_117830" data-name="Trazado 117830" d="M465.493,560.948c2.451,2.762,8.7,2.516,8.7,2.516s2.749,2.931,3.087,3.878c.207.57,1.335,1.323,1.478,1.893a8.83,8.83,0,0,1-4.021.325c-1.919-.337-7.366-4.436-8.663-6.005l-.57-2.594Z" transform="translate(-72.065 -83.834)" fill="#d65863"/>
      <path id="Trazado_117831" data-name="Trazado 117831" d="M485.762,533.42c-9.9.558-11.737,1.478-12.087,5.511s-.117,15.784,1.155,18.779,1.958,5.642,3.567,7.263a6.327,6.327,0,0,0,4.02,1.621s5.421-7.95,5.655-14.629-2.309-18.52-2.309-18.52Z" transform="translate(-73.309 -79.573)" fill="#f6a397"/>
      <path id="Trazado_117832" data-name="Trazado 117832" d="M480.264,562.023a59.387,59.387,0,0,0,1.75-14.811c.052-3.437,3.242,14.525,1.815,19.454-.713,1.219-1.219,1.971-1.219,1.971a6.249,6.249,0,0,1-4.021-1.621c-1.608-1.607-2.308-4.266-3.567-7.249a7.364,7.364,0,0,1-.233-.7C475.439,560.751,477.489,561.854,480.264,562.023Z" transform="translate(-73.504 -81.641)" fill="#d65863"/>
      <path id="Trazado_117833" data-name="Trazado 117833" d="M508.915,553.071c-.623,5.5-7.833,7.482-8.638,10.245s-.233,5.3-1.608,5.991-7.145-2.529-6.912-6.225a7.141,7.141,0,0,1-4.838,3.682c-3.346.571-4.15-1.867-3.566-5.538a47.018,47.018,0,0,0,.35-10.012c-.117-4.37-1.155-8.4.8-13.241s4.6-9.1,9.908-8.288,8.521,7.483,11.4,9.792,3.8,7.482,3.113,13.591Z" transform="translate(-74.803 -78.979)" fill="#f6a397"/>
      <path id="Trazado_117834" data-name="Trazado 117834" d="M493.326,565.046c.324-7,.687-12.723.687-13.851s-.363-8.559,2.269-9.014c.4-.064,6.212,3.619,6.316,6.1s0,6.939-1.8,8.21-7.483,8.559-7.483,8.559Z" transform="translate(-76.372 -80.929)" fill="#d65863"/>
      <path id="Trazado_117835" data-name="Trazado 117835" d="M746.288,393.986c-10.506-13.319-14.11-14.681-24.952-21s-51.928-22.359-60.4-24.381-42.616,13.89-53.821,18.96-25.458,10.077-27.9,15.032c-8.132,16.574,7.976,40.061,8.054,89.279.039,25.782,5.914,83.754,5.914,83.754s129.029.246,130.844-2.465,6.316-95.283,8.585-114.244S746.274,394,746.274,394Z" transform="translate(-89.317 -50.933)" fill="#540385"/>
      <path id="Trazado_117836" data-name="Trazado 117836" d="M579.7,416.057a72.447,72.447,0,0,1-2.763-19.142,72.44,72.44,0,0,1,2.763,19.142Z" transform="translate(-89.318 -58.44)" fill="#3c0061"/>
      <path id="Trazado_117837" data-name="Trazado 117837" d="M633.706,394.717c-4.981-1.868-16.795,1.375-18.961,2.126s1.271-8.481,2.542-9.622,3.306-3.8,7.2-2.607,7.171,5.667,7.729,7.133a21.256,21.256,0,0,0,1.492,2.957Z" transform="translate(-95.064 -56.489)" fill="#3c0061"/>
      <path id="Trazado_117838" data-name="Trazado 117838" d="M679.875,402.916c-1.777-.091-12.152-4.851-14.629-6.044s-13.734-1.738-21.3.376c0,0,14.538-9.83,23.007-9.74s11.685,3.139,12.36,5.836.544,9.572.544,9.572Z" transform="translate(-99.693 -56.983)" fill="#3c0061"/>
      <path id="Trazado_117839" data-name="Trazado 117839" d="M616.887,546.439c1.387-1.349,85.659,1.349,87.346-7.457s2.853-24.822,2.853-24.822c-10.141,5.421-24.875,3.164-24.875,3.164,9.818-3.2,24.045-19.324,24.719-24.058,2.088-14.6-5.719-54.871-5.719-54.871l5.719-11.5,6.692-3.722a92.8,92.8,0,0,1,23.526,17.936,91.2,91.2,0,0,0-1.673,9.377c-2.127,17.884-6.264,101.171-8.248,112.921-26.107.959-73.417,2.7-105.075,3.786-15.342.039-26.106.014-26.106.014s-.194-7.626-.662-18.559c8.832-.519,20.621-1.362,21.477-2.192Z" transform="translate(-92.174 -62.504)" fill="#3c0061"/>
      <path id="Trazado_117840" data-name="Trazado 117840" d="M636.667,391.007c9.092-1.1,23.707-8.974,29.466-6.264s7.107,9.649,8.3,10.842,6.264-4.747,6.264-19.311.441-29.479-10.271-31.5-38.492,8.469-44.081,12.709a26.293,26.293,0,0,0-9.48,12.645c-1.531,4.125-5.59,20.712-3.722,20.88s7.107-10.673,11.011-11.01,10.064,11.309,12.527,11.01Z" transform="translate(-94.849 -50.328)" fill="#540385"/>
      <path id="Trazado_117841" data-name="Trazado 117841" d="M634.068,380.06c-2.322-5.5-4.864-10.323-4.773-14.137s.934-6.433,5.161-7.625,6.018,1.1,6.264,6.86S634.068,380.06,634.068,380.06Z" transform="translate(-97.424 -52.414)" fill="#3c0061"/>
      <path id="Trazado_117842" data-name="Trazado 117842" d="M674.225,367.918c8.858-8.028,9.857-17,9.027-18.87s-4.488-3.217-4.488-3.217-1.439,5.837-.6,7.276-3.943,14.8-3.943,14.8Z" transform="translate(-104.38 -50.531)" fill="#3c0061"/>
      <path id="Trazado_117843" data-name="Trazado 117843" d="M657.558,391.96a44.64,44.64,0,0,1,6.7-2.348,23.443,23.443,0,0,1,7.132-.843A6.34,6.34,0,0,1,675,389.988c.959.908,1.686,1.725,2.5,2.646a27.384,27.384,0,0,1,3.748,6.147,3.236,3.236,0,0,0,.74,1.1c.013,0,0,.039.194-.078a2.527,2.527,0,0,0,.493-.493,18.288,18.288,0,0,0,1.725-2.931,23.956,23.956,0,0,0,2.088-6.562,56.989,56.989,0,0,0,.856-6.964c.208-2.348.272-4.7.3-7.056a60.544,60.544,0,0,1-.182,14.2,22.675,22.675,0,0,1-1.971,6.938,19.355,19.355,0,0,1-1.842,3.177,3.768,3.768,0,0,1-.752.752,1.586,1.586,0,0,1-.636.286,1.291,1.291,0,0,1-.83-.09,2.319,2.319,0,0,1-.882-.843,8,8,0,0,1-.479-.83,26.64,26.64,0,0,0-3.528-5.94c-.713-.869-1.543-1.828-2.283-2.555a5.883,5.883,0,0,0-2.983-1.1,23.055,23.055,0,0,0-6.9.48A57.376,57.376,0,0,0,657.545,392Z" transform="translate(-101.797 -55.171)" fill="#3c0061"/>
      <path id="Trazado_117844" data-name="Trazado 117844" d="M629.651,390.494a29.769,29.769,0,0,0-3.022-2.451,10.263,10.263,0,0,0-1.621-.947,3.4,3.4,0,0,0-.8-.221,1.258,1.258,0,0,0-.325.026,1.68,1.68,0,0,0-.285.156,17.971,17.971,0,0,0-5.331,5.317c-.74,1.024-1.374,2.192-2.244,3.256a9.43,9.43,0,0,1-1.478,1.491,2.384,2.384,0,0,1-1.155.519,1.109,1.109,0,0,1-.843-.272,1.5,1.5,0,0,1-.4-.623,5.576,5.576,0,0,1-.1-2.153,19.471,19.471,0,0,1,.35-1.971,37.391,37.391,0,0,1,1.141-3.775c-.182,1.3-.415,2.581-.519,3.878-.078.649-.117,1.284-.129,1.919a4.758,4.758,0,0,0,.194,1.725.311.311,0,0,0,.13.182h.064a1.377,1.377,0,0,0,.571-.337,7.65,7.65,0,0,0,1.206-1.349c.765-.985,1.374-2.114,2.139-3.229a20.927,20.927,0,0,1,2.594-3.087,14.945,14.945,0,0,1,3.281-2.36,2.459,2.459,0,0,1,.6-.233,2.645,2.645,0,0,1,.649,0,3.741,3.741,0,0,1,1.051.389A10.3,10.3,0,0,1,627,387.55a21.012,21.012,0,0,1,2.633,2.956Z" transform="translate(-94.744 -56.74)" fill="#3c0061"/>
      <path id="Trazado_117845" data-name="Trazado 117845" d="M633.47,338.05c.025,3.579.168,7.146.532,10.7.908,8.728.013,20.245.713,22.371.765,2.374,5.343,10.843,5.343,10.843s8.131-3.722,11.516-7.8,7.794-4.266,13.721-10.258,9.96-15.511,8.638-23.435c-.169-1.012-1.206-11.153-1.439-21.658s-11.258-18.481-21.763-18.481-16.781,15.576-17.106,26.081c-.13,4.305-.156,8.352-.143,11.62Z" transform="translate(-98.07 -43.488)" fill="#f6a397"/>
      <path id="Trazado_117846" data-name="Trazado 117846" d="M672.5,319.342c.233,10.5,1.27,20.646,1.439,21.658a21.791,21.791,0,0,1-.208,7.652c-2.321.428-32.228,1.154-39.971-2.452-.182-2.542-.259-5.084-.272-7.625-.013-3.268,0-7.315.143-11.62a39.484,39.484,0,0,1,3.5-14.512l24.6-8.716c6.03,3.216,10.634,8.9,10.777,15.627Z" transform="translate(-98.072 -44.013)" fill="#d65863"/>
      <path id="Trazado_117847" data-name="Trazado 117847" d="M607.682,270.491c-15.887,0-21.827,12.2-21.827,21.347,0,8.209,2.633,21.347,21.827,21.347,9.6,0,16.095-9.558,16.095-21.347S617.279,270.491,607.682,270.491Z" transform="translate(-90.699 -38.867)" fill="#504984"/>
      <path id="Trazado_117848" data-name="Trazado 117848" d="M607.833,276.675c-12,0-16.484,9.221-16.484,16.12,0,6.2,1.984,16.12,16.484,16.12,7.249,0,12.152-7.224,12.152-16.12S615.082,276.675,607.833,276.675Z" transform="translate(-91.549 -39.825)" fill="#372d5b"/>
      <path id="Trazado_117849" data-name="Trazado 117849" d="M587.848,270.021c.934,5.564,3.7,7.69,4.928,15.2s-2.049,18.4,2.841,27.909,12.813,21.982,17.378,22.514,41.2-5.654,53.562-30.231c3.54-7.055,11.128-34.718,4.643-51.6s-17.041-32.371-41.423-32.837-46.9,19.557-41.916,49.061Z" transform="translate(-90.901 -31.2)" fill="#f6a397"/>
      <path id="Trazado_117850" data-name="Trazado 117850" d="M611.63,314.276A4.3,4.3,0,0,0,615,312.953a3.536,3.536,0,0,0,.636-2.659,7.832,7.832,0,0,1-6.588,1.427c-.286,1.751,1.063,2.5,2.58,2.542Z" transform="translate(-94.284 -45.029)" fill="#d65863"/>
      <path id="Trazado_117851" data-name="Trazado 117851" d="M649.178,265.466a16.4,16.4,0,0,0-4.8-9.131s-9.325-3.864-16.536-4.578a94.719,94.719,0,0,1-14.6-2.814s2.283,5.784,6.161,8.261c0,0-17.236-.869-22.683-5.978,0,0,1.051,4.2,2.115,7.029,0,0-8.443-.869-11.076-4.215,0,0-2.114,7.354-2.114,11.413,0,0-10.141-13.877-7.561-24.9s6.1-15.239,6.1-15.239-7.275.7-11.257,0c0,0,9.376-8.209,16.419-13.6s28.143-5.629,28.143-5.629-1.647-5.628.233-14.538c0,0,9.027,13.254,18.585,17.3s8.274,3.7,18.4,6.264,19.765,9.039,23.811,14.5,8.443,11.075,11.075,11.958c0,0-6.329-.882-9.493-3.514,0,0,5.278,12-1.7,27.429s-24.46,10.868-27.845,7.457a6.643,6.643,0,0,1-1.362-7.457Z" transform="translate(-88.696 -26.645)" fill="#ba6454"/>
      <path id="Trazado_117852" data-name="Trazado 117852" d="M663.334,276.594a6.643,6.643,0,0,1-1.362-7.457,16.489,16.489,0,0,0-3.4-7.613,102.717,102.717,0,0,0-3.009-46.274,54.709,54.709,0,0,0,8,2.529,86.321,86.321,0,0,1,10.583,22.981c3.073,10.22,4.552,21.243,1.685,31.528a35.028,35.028,0,0,1-3.151,7.613c-4.332-.363-8-1.919-9.364-3.295Z" transform="translate(-101.491 -30.315)" fill="#874438"/>
      <path id="Trazado_117853" data-name="Trazado 117853" d="M666.919,262.892s1.206-38.57-19.025-50.89c0,0,15.654-1.764,24.628,13.89s8.365,29.076,8.132,36.6-13.734.389-13.734.389Z" transform="translate(-100.303 -29.803)" fill="#504984"/>
      <path id="Trazado_117854" data-name="Trazado 117854" d="M674.76,270.491c15.887,0,21.827,12.2,21.827,21.347,0,8.209-2.633,21.347-21.827,21.347-9.6,0-16.095-9.558-16.095-21.347S665.163,270.491,674.76,270.491Z" transform="translate(-101.971 -38.867)" fill="#504984"/>
      <path id="Trazado_117855" data-name="Trazado 117855" d="M667.565,292.277c0-10.466,6.913-18.948,15.433-18.948s14.967,8.482,14.967,18.948S691.519,311.225,683,311.225,667.565,302.743,667.565,292.277Z" transform="translate(-103.349 -39.307)" fill="#372d5b"/>
      <path id="Trazado_117856" data-name="Trazado 117856" d="M686.31,306.289c5.8,0,10.506-5.778,10.506-12.9s-4.7-12.9-10.506-12.9-10.5,5.778-10.5,12.9S680.508,306.289,686.31,306.289Z" transform="translate(-104.624 -40.414)" fill="#504984"/>
      <path id="Trazado_117857" data-name="Trazado 117857" d="M626.488,321.005c-4.293,2.361-18.312,3.152-19.272,3.022s1,10.518,4.436,10.907,10.3-.532,13.164-3.281,1.66-10.648,1.66-10.648Z" transform="translate(-93.968 -46.688)" fill="#d65863"/>
      <path id="Trazado_117858" data-name="Trazado 117858" d="M625.788,324.225c-.26-.947-.467-1.7-.675-2.437-4.721,1.608-14.02,2.3-16.886,2.36a20.192,20.192,0,0,0,1.219,4.28c.091-.065-.025.143.065.078a20.921,20.921,0,0,0,16.263-4.28Z" transform="translate(-94.162 -46.809)" fill="#fff"/>
      <path id="Trazado_117859" data-name="Trazado 117859" d="M627.823,290.24c0-1.946.959-3.515,2.14-3.515s2.14,1.569,2.14,3.515-.96,3.514-2.14,3.514S627.823,292.185,627.823,290.24Z" transform="translate(-97.196 -41.381)" fill="#3f1751"/>
      <path id="Trazado_117860" data-name="Trazado 117860" d="M598.852,292.188c0-1.945.83-3.514,1.842-3.514s1.842,1.569,1.842,3.514-.83,3.515-1.842,3.515S598.852,294.134,598.852,292.188Z" transform="translate(-92.711 -41.682)" fill="#3f1751"/>
      <path id="Trazado_117861" data-name="Trazado 117861" d="M638.511,274.182a22.4,22.4,0,0,0-9.675-2.58,12.321,12.321,0,0,0-5.135.505,9.481,9.481,0,0,0-4.241,2.97l.13.208c1.763-.194,3.229-.623,4.772-.83,1.5-.221,2.97-.778,4.539-.908a27.358,27.358,0,0,1,9.519.855l.1-.221Z" transform="translate(-95.901 -39.031)" fill="#3f1751"/>
      <path id="Trazado_117862" data-name="Trazado 117862" d="M591.5,279.459a9.48,9.48,0,0,1,2.361-.571,20.946,20.946,0,0,1,2.386-.155,9.629,9.629,0,0,0,2.361.078,7.3,7.3,0,0,0,1.193-.337,5.133,5.133,0,0,0,1.284-.636l.025-.247a4.641,4.641,0,0,0-2.516-1.231,5.9,5.9,0,0,0-2.619.428,11.545,11.545,0,0,0-2.49.934,8.089,8.089,0,0,0-2.14,1.543Z" transform="translate(-91.549 -39.769)" fill="#3f1751"/>
      <path id="Trazado_117863" data-name="Trazado 117863" d="M608.279,574.867c0,.544-.752,1.335-2.62,1.335H546.923c-6.77,0-8.352-2.684-6.316-6.069s10.609-10.842,31.839-16.03,32.383,6.952,35.833,12.424C610.808,570.535,608.279,574.867,608.279,574.867Z" transform="translate(-83.566 -82.579)" fill="#504984"/>
      <path id="Trazado_117864" data-name="Trazado 117864" d="M540.1,572.129c1.167,3.89,45.988,1.854,45.988,1.854s-4.539-6.134-9.571-6.315-7.471,1.569-14.2,2.723-1.738-2.737-1.738-2.737-4.759-1.051-6.691-2.555c0,0,11.1-3.281,15.757-4.046s16.51-.259,18.04,0c1.077.182,6.549-3,13.164-1.4a29.551,29.551,0,0,1,7.444,7.833c2.529,4.007,0,8.339,0,8.339,0,.545-.752,1.336-2.62,1.336H546.939c-6.083,0-7.963-2.153-6.821-5.045Z" transform="translate(-83.569 -83.564)" fill="#372d5b"/>
      <path id="Trazado_117865" data-name="Trazado 117865" d="M733.786,529.969s-41.773,6.459-64.4,10.5c-21.451,3.839-39.958,5.5-45.21,4.488s-23.2-7.626-28.96-9.987-17.275-3.722-23.2-1.867S561.234,537,558.86,537s-1.919,3.839,1.246,4.63a23.536,23.536,0,0,0,5.978.674s-10.725,5.875-12.645,6.433.351,4.06,2.957,3.839c0,0-2.269,1.349-1.478,2.711s6.433,1.349,6.433,1.349-6.887,3.385-1.128,4.747,12.645-5.084,15.472-5.642,9.363-.221,12.528,2.14,16.7,13.319,35.223,6.77c0,0,125.67,5.1,138.2,5.1s20.1-11.075,16.081-32.409a162.485,162.485,0,0,0-11.8-37.26l-43.355,3.048L733.8,529.957Z" transform="translate(-85.57 -74.411)" fill="#f6a397"/>
      <path id="Trazado_117866" data-name="Trazado 117866" d="M580.24,545.967a15.684,15.684,0,0,1,2.542-.44S581.7,545.708,580.24,545.967Z" transform="translate(-89.83 -81.447)" fill="#d65863"/>
      <path id="Trazado_117867" data-name="Trazado 117867" d="M567.083,549.431a23.5,23.5,0,0,1-5.979-.674,3.679,3.679,0,0,1-2.011-1.245c3.515,1.557,7.847.558,10.207,0,1.491-.35,5.162-1.024,7.678-1.478A59.237,59.237,0,0,0,567.083,549.431Z" transform="translate(-86.556 -81.525)" fill="#d65863"/>
      <path id="Trazado_117868" data-name="Trazado 117868" d="M569.191,556.02a6.646,6.646,0,0,1,.648-.259S569.593,555.865,569.191,556.02Z" transform="translate(-88.119 -83.031)" fill="#d65863"/>
      <path id="Trazado_117869" data-name="Trazado 117869" d="M553.6,559.933s1.284,1.128,3.89,0c2.179-.947,7.444-3.113,9.286-3.865-2.308,1.051-8.573,4.591-10.245,5.188A3.608,3.608,0,0,1,553.6,559.933Z" transform="translate(-85.705 -83.079)" fill="#d65863"/>
      <path id="Trazado_117870" data-name="Trazado 117870" d="M560.527,564.553c1.919-.57,5.927-3,8.378-4.15a17.06,17.06,0,0,1,5.59-1.3,12.076,12.076,0,0,0-3.385,1.3c-2.451,1.206-9.182,5.395-9.182,5.395a20.7,20.7,0,0,1-5.473-.7A16.356,16.356,0,0,0,560.527,564.553Z" transform="translate(-86.147 -83.549)" fill="#d65863"/>
      <path id="Trazado_117871" data-name="Trazado 117871" d="M600.2,567.551c3.553,2.2,14.058,5.084,20.322,3.89a9.574,9.574,0,0,0,7.625-6.433l1.751,5.642s87.151,2.49,104.88,1.686c17.521-.791,44.847-1.181,48.413-11.711-.972,12.216-7.6,18.506-17.028,18.506-12.528,0-138.2-5.1-138.2-5.1-18.52,6.549-32.059-4.4-35.223-6.77-2.633-1.971-7.587-2.529-10.817-2.347C586.739,563.233,596.647,565.346,600.2,567.551Z" transform="translate(-90.091 -83.785)" fill="#d65863"/>
      <path id="Trazado_117872" data-name="Trazado 117872" d="M766.3,533.117s16.328-2.218,19.6-2.555l-2.477-10.154-20.66,4.175,3.54,8.547Z" transform="translate(-118.087 -77.558)" fill="#d65863"/>
      <path id="Trazado_117873" data-name="Trazado 117873" d="M803.178,485.59a4.233,4.233,0,0,1-1,4.565c-7.587,7.405-17.547,17.508-27.793,19.051-11.179,1.7-29.8,2.373-30.814,0s-4.747-32.513-11.516-47.752-11.179-23.033-12.865-31.839,13.552-29.465,20.322-31.164,22.358-2.711,28.791,3.048,11.179,27.767,18.624,44.367c6.018,13.4,13.565,32.734,16.263,39.711Z" transform="translate(-111.321 -58.472)" fill="#540385"/>
      <path id="Trazado_117874" data-name="Trazado 117874" d="M761.733,398.113c-2.075-.233-4.15-.415-6.226-.454-2.075-.078-4.15-.078-6.212.039a53.878,53.878,0,0,0-6.134.7c-1.011.156-2.01.4-3.008.622a14.063,14.063,0,0,0-2.75,1.116,18.178,18.178,0,0,0-2.541,1.608c-.765.674-1.57,1.284-2.269,2.036a43.072,43.072,0,0,0-4.021,4.656,60.664,60.664,0,0,0-3.437,5.174c-1.1,1.764-2.075,3.592-3.034,5.46a51.923,51.923,0,0,1,5.654-11.205,35.256,35.256,0,0,1,3.955-4.954,26.675,26.675,0,0,1,2.361-2.166,19.876,19.876,0,0,1,2.71-1.764,16.454,16.454,0,0,1,3.048-1.206c1.037-.221,2.075-.467,3.113-.6a42.852,42.852,0,0,1,6.3-.479,52.165,52.165,0,0,1,12.463,1.4Z" transform="translate(-111.792 -58.406)" fill="#3c0061"/>
      <path id="Trazado_117875" data-name="Trazado 117875" d="M804.629,494.047c-.052-5.408-11.478-55.015-21.581-82.678,4.293,9.442,8.3,24.537,13.773,36.728,6.018,13.4,13.566,32.734,16.263,39.711a4.234,4.234,0,0,1-1,4.565c-2.9,2.841-6.161,6.069-9.65,9.065C802.7,501.179,804.68,499.1,804.629,494.047Z" transform="translate(-121.227 -60.677)" fill="#3c0061"/>
      <path id="Trazado_117876" data-name="Trazado 117876" d="M164.022,441.782a8.021,8.021,0,0,0,.947,4.824,34.636,34.636,0,0,1,4.254,17.676c-.129,4.047-.959,8.171.143,12.062,1.893,6.718,8.988,10.855,11.257,17.456,2.023,5.849.143,13.189,4.345,17.729,1.037,1.128,2.658,1.984,4.085,1.413a5.013,5.013,0,0,0,1.764-1.466c4.812-5.473,9.973-12.113,8.481-19.246-1.4-6.7-8.3-11.231-9.61-17.949-1.063-5.486,1.738-11.827-1.413-16.445-.87-1.271-2.115-2.257-3.061-3.475-3.735-4.8-2.361-12.463-6.666-16.756A9.972,9.972,0,0,0,173.464,435a7.891,7.891,0,0,0-9.454,6.77Z" transform="translate(-25.384 -64.309)" fill="#b3009d"/>
      <path id="Trazado_117877" data-name="Trazado 117877" d="M193.13,528.578c.286-3.579.416-7.146.545-10.738-.169-3.579-.35-7.146-.662-10.725s-.713-7.146-1.335-10.7a46.189,46.189,0,0,0-2.97-10.453c-2.594-6.563-4.695-13.411-6.809-20.206l-3.074-10.245q-1.886-5.019-3.682-10.077c.518,3.553,1.335,7.042,2.049,10.556l3.074,10.272c2.126,6.822,4.2,13.644,6.86,20.361a43.617,43.617,0,0,1,2.866,10.09c.623,3.476,1.012,7,1.323,10.545s.506,7.094.636,10.647l1.167,10.661Z" transform="translate(-27.114 -65.951)" fill="#dd00c2"/>
      <path id="Trazado_117878" data-name="Trazado 117878" d="M174.1,457.505a8.338,8.338,0,0,0,2.166,2.153,12.156,12.156,0,0,0,1.362.7,5.191,5.191,0,0,1,1.245.856l.169.142.142-.221c.337-.518.752-1.011,1.077-1.53s.648-1.063.92-1.608a12.747,12.747,0,0,0,1.155-3.567l-.1-.052a12.59,12.59,0,0,0-2.139,3.074c-.273.557-.494,1.141-.727,1.711s-.363,1.206-.57,1.79l.311-.078a5.21,5.21,0,0,1-1.193-.934,14.238,14.238,0,0,0-1.064-1.1,8.26,8.26,0,0,0-2.7-1.426l-.065.09Z" transform="translate(-26.95 -67.336)" fill="#dd00c2"/>
      <path id="Trazado_117879" data-name="Trazado 117879" d="M175.125,471.906c.61.505,1.245,1.05,1.907,1.5a16.218,16.218,0,0,0,2.062,1.284c.739.35,1.517.635,2.218,1.037a13.208,13.208,0,0,1,2,1.4l.221.182.221-.3a35.026,35.026,0,0,0,2.607-4.033,25.075,25.075,0,0,0,1.881-4.448l-.1-.052a25.594,25.594,0,0,0-2.84,3.9,36.933,36.933,0,0,0-2.115,4.319l.454-.117a15.429,15.429,0,0,1-2.139-1.167c-.674-.454-1.271-1.024-1.919-1.531a15.045,15.045,0,0,0-2.1-1.245,9.889,9.889,0,0,0-2.334-.869l-.026.117Z" transform="translate(-27.11 -69.519)" fill="#dd00c2"/>
      <path id="Trazado_117880" data-name="Trazado 117880" d="M180.268,491.471a10.831,10.831,0,0,0,2.192,1.635,8.8,8.8,0,0,0,2.5,1,6.5,6.5,0,0,1,2.412,1.155c.713.544,1.413,1.141,2.139,1.621l.545.35.4-.609a17.959,17.959,0,0,0,1.556-2.8,15.244,15.244,0,0,0,1-3.1l-.13-.065a14.5,14.5,0,0,0-2.075,2.5,16.443,16.443,0,0,0-1.531,2.814l.947-.247a15.384,15.384,0,0,0-2.554-1.012,7.688,7.688,0,0,1-2.361-1.309,7.717,7.717,0,0,0-2.322-1.388,9.516,9.516,0,0,0-2.658-.674Z" transform="translate(-27.908 -72.952)" fill="#dd00c2"/>
      <path id="Trazado_117881" data-name="Trazado 117881" d="M201.222,522.831c2.788-.454,13.267-3.814,12.541-6.549-3.138-11.737-6.277-25.056,4.591-30.8,5.227-2.762,11.8-4.163,14.785-9.285,3.073-5.266.8-11.958-1.946-17.391s-6.069-11.258-4.889-17.236c1.232-6.265,7.159-10.882,8.106-17.2,1.3-8.612-7.082-15.563-15.109-18.922-2.737-1.141-5.745-2.127-8.624-1.427a10.529,10.529,0,0,0-5.252,3.4c-5.642,6.316-5.421,15.835-4.125,24.214s3.255,17.21.1,25.082c-2.244,5.59-7.029,10.842-5.746,16.717.519,2.348,1.984,4.409,2.542,6.757,1.5,6.315-3.736,12.009-6.148,18.052a22.168,22.168,0,0,0,4.916,23.215,4.889,4.889,0,0,0,4.266,1.4Z" transform="translate(-29.513 -59.504)" fill="#b3009d"/>
      <path id="Trazado_117882" data-name="Trazado 117882" d="M201.989,525.455c.648-4.643,1.3-9.273,2.126-13.877.2-1.154.441-2.3.623-3.436s.272-2.308.467-3.463q.526-3.443,1.167-6.874a89.649,89.649,0,0,1,3.5-13.4,27.877,27.877,0,0,1,2.931-6.057,8.355,8.355,0,0,1,2.114-2.244,10.886,10.886,0,0,0,2.828-2.633,11.608,11.608,0,0,0,2.036-7.289,34.96,34.96,0,0,0-1.051-7.145c-1.077-4.617-2.438-9.065-3.191-13.6a31.387,31.387,0,0,1,.272-13.462c.363-1.05.648-2.126,1-3.2a21.344,21.344,0,0,1,1.335-3.125,30.652,30.652,0,0,1,3.917-5.745,26.357,26.357,0,0,0-4.993,5.058,24.116,24.116,0,0,0-1.958,3.06,12.407,12.407,0,0,0-1.349,3.4,33.45,33.45,0,0,0-.325,14.383c.778,4.708,2.166,9.221,3.217,13.721a34.65,34.65,0,0,1,1,6.7,9.472,9.472,0,0,1-1.621,5.992,8.754,8.754,0,0,1-2.3,2.114,10.261,10.261,0,0,0-2.7,2.814,29.544,29.544,0,0,0-3.177,6.536,91.661,91.661,0,0,0-3.592,13.722q-.662,3.462-1.193,6.964c-.156,1.167-.376,2.321-.519,3.488-.117,1.168-.168,2.348-.247,3.515-.259,4.7-.428,9.389-.336,14.084Z" transform="translate(-31.265 -61.998)" fill="#dd00c2"/>
      <path id="Trazado_117883" data-name="Trazado 117883" d="M221.99,436.36a7.4,7.4,0,0,0-2.1,1.245,7.7,7.7,0,0,0-1.646,1.725,11.059,11.059,0,0,1-1.4,1.946,19.239,19.239,0,0,1-1.828,1.556l.83.052c-.286-.6-.623-1.167-.934-1.738a16.953,16.953,0,0,0-1.037-1.673c-.363-.544-.778-1.051-1.167-1.582s-.844-1.012-1.206-1.556l-.143.025a5.653,5.653,0,0,0,.415,2.05,13.265,13.265,0,0,0,.855,1.842,12.038,12.038,0,0,0,1.1,1.673A15.871,15.871,0,0,0,215,443.481l.518.544.312-.493a13.819,13.819,0,0,1,1.362-1.958,9.391,9.391,0,0,1,1.842-1.5,9.139,9.139,0,0,0,1.673-1.647,13.554,13.554,0,0,0,1.388-1.958l-.09-.117Z" transform="translate(-32.72 -64.542)" fill="#dd00c2"/>
      <path id="Trazado_117884" data-name="Trazado 117884" d="M211.919,457.142a11.882,11.882,0,0,0,1.245,2.218,16.24,16.24,0,0,0,1.595,1.919c.609.57,1.3,1.063,1.946,1.595a11.9,11.9,0,0,1,1.7,1.815l.156.208.233-.182a18.2,18.2,0,0,0,2.179-2.01c.636-.727,1.31-1.4,1.893-2.154s1.142-1.517,1.673-2.321,1.012-1.621,1.556-2.4l-.078-.117a10.042,10.042,0,0,0-2.361,1.764,23.278,23.278,0,0,0-1.971,2.114c-.609.74-1.128,1.543-1.7,2.308s-1.024,1.673-1.557,2.334l.39.026a10.239,10.239,0,0,1-1.725-1.79c-.48-.674-.92-1.4-1.427-2.049a22.434,22.434,0,0,0-1.712-1.79,17.979,17.979,0,0,0-1.946-1.595l-.117.09Z" transform="translate(-32.804 -67.543)" fill="#dd00c2"/>
      <path id="Trazado_117885" data-name="Trazado 117885" d="M230.459,473.169c-.882,1.038-1.79,1.984-2.737,2.906s-1.945,1.711-2.931,2.593a9.579,9.579,0,0,1-3.41,1.984,12.589,12.589,0,0,1-3.93.441l.584.415a26.256,26.256,0,0,0-.934-3.178,17.031,17.031,0,0,0-1.349-3.022,15.35,15.35,0,0,0-1.932-2.737,7.153,7.153,0,0,0-2.723-1.958l-.078.117a10.456,10.456,0,0,1,1.958,2.464c.544.9,1.011,1.829,1.466,2.776l1.309,2.879c.429.973.8,1.972,1.181,2.957l.181.467.4-.064a22.661,22.661,0,0,0,3.982-1.142,40.15,40.15,0,0,0,3.826-1.57,11.125,11.125,0,0,0,5.226-6.264l-.129-.065Z" transform="translate(-32.668 -69.849)" fill="#dd00c2"/>
      <path id="Trazado_117886" data-name="Trazado 117886" d="M204.044,486.064a7.976,7.976,0,0,0-.544,3.256,10.77,10.77,0,0,0,.609,3.268,11.879,11.879,0,0,0,1.673,2.853l1.958,2.593.143.182.221-.155a28.351,28.351,0,0,1,3.411-1.919c1.141-.609,2.334-1.141,3.514-1.647s2.373-1.024,3.592-1.491c1.206-.493,2.451-.9,3.71-1.362l-.026-.143a18.589,18.589,0,0,0-7.885,1.608,24.123,24.123,0,0,0-3.54,1.971,23.735,23.735,0,0,0-3.113,2.594l.363.025a8.883,8.883,0,0,1-1.8-2.58,22.6,22.6,0,0,1-1.025-2.944,22.948,22.948,0,0,1-1.115-6.1l-.143-.026Z" transform="translate(-31.504 -72.239)" fill="#dd00c2"/>
      <path id="Trazado_117887" data-name="Trazado 117887" d="M178.786,571.309h29.907c2.775,0,5.135-2.4,5.55-5.641l4.734-36.781c.519-4.02-2.114-7.651-5.551-7.651H174.052c-3.437,0-6.069,3.632-5.55,7.651l4.734,36.781C173.651,568.91,176.011,571.309,178.786,571.309Z" transform="translate(-26.076 -77.686)" fill="#504984"/>
      <path id="Trazado_117888" data-name="Trazado 117888" d="M174.052,521.221H194.18c-3.437,0-6.069,3.631-5.55,7.651l4.733,36.78c.415,3.242,2.776,5.642,5.551,5.642H178.786c-2.776,0-5.135-2.4-5.55-5.642l-4.734-36.78C167.983,524.852,170.616,521.221,174.052,521.221Z" transform="translate(-26.076 -77.684)" fill="#372d5b"/>
      <path id="Trazado_117889" data-name="Trazado 117889" d="M474.283,568.528H349.223a2.286,2.286,0,0,0-2.283,2.283v5.538a2.286,2.286,0,0,0,2.283,2.282h125.06Z" transform="translate(-53.711 -85.008)" fill="#282142"/>
      <path id="Trazado_117890" data-name="Trazado 117890" d="M529.421,575.49v2.257a.874.874,0,0,1-.881.882h-31.5a1.771,1.771,0,0,1-1.777-1.777V570.29a1.772,1.772,0,0,1,1.971-1.764l31.4,6.1a.884.884,0,0,1,.778.882Z" transform="translate(-76.673 -85.006)" fill="#504984"/>
      <path id="Trazado_117891" data-name="Trazado 117891" d="M236.8,317.031h233.74a11.225,11.225,0,0,1,10.556,7.418l51.124,141.958c2.139,7.328-3.217,12.814-11.828,13.734-1.323.143-7.6-2.684-17.456-7.314H293.966a11.227,11.227,0,0,1-10.557-7.418L237.226,337.172c-7.807-4.072-12.255-6.406-12.255-6.406S222.079,317.031,236.8,317.031Z" transform="translate(-34.793 -46.072)" fill="#504984"/>
      <path id="Trazado_117892" data-name="Trazado 117892" d="M463.213,325.685H229.473a4.8,4.8,0,0,0-4.513,6.42l51.124,141.958a11.225,11.225,0,0,0,10.556,7.418h233.74a4.8,4.8,0,0,0,4.513-6.419L473.771,333.1A11.227,11.227,0,0,0,463.213,325.685Z" transform="translate(-34.783 -47.412)" fill="#372d5b"/>
      <path id="Trazado_117893" data-name="Trazado 117893" d="M435.367,502.971l-10.375-38.479L385.67,502.971Z" transform="translate(-59.707 -68.902)" fill="#282142"/>
      <path id="Trazado_117894" data-name="Trazado 117894" d="M377.119,383.038c1.024,6.341,5.135,8.909,10.051,8.909a7.584,7.584,0,0,0,7.755-8.909c-.856-4.838-5.136-8.91-10.051-8.91A7.609,7.609,0,0,0,377.119,383.038Z" transform="translate(-58.367 -54.912)" fill="#504984"/>
      <path id="Trazado_117895" data-name="Trazado 117895" d="M506.556,480.534l-3.009-8.339h3.786l3,8.339Z" transform="translate(-77.956 -70.094)" fill="#282142"/>
      <path id="Trazado_117896" data-name="Trazado 117896" d="M497.15,480.534l-3.009-8.339h3.774l3.009,8.339Z" transform="translate(-76.5 -70.094)" fill="#282142"/>
      <path id="Trazado_117897" data-name="Trazado 117897" d="M487.728,480.534l-3.009-8.339h3.786l3,8.339Z" transform="translate(-75.041 -70.094)" fill="#282142"/>
      <path id="Trazado_117898" data-name="Trazado 117898" d="M478.322,480.534l-3.009-8.339h3.774l3.009,8.339Z" transform="translate(-73.585 -70.094)" fill="#282142"/>
      <path id="Trazado_117899" data-name="Trazado 117899" d="M344.609,480.534,341.6,472.2h3.787l3.009,8.339Z" transform="translate(-52.884 -70.094)" fill="#282142"/>
      <path id="Trazado_117900" data-name="Trazado 117900" d="M335.2,480.534l-3.009-8.339h3.774l3.009,8.339Z" transform="translate(-51.428 -70.094)" fill="#282142"/>
      <path id="Trazado_117901" data-name="Trazado 117901" d="M325.783,480.534l-3-8.339h3.774l3.009,8.339Z" transform="translate(-49.972 -70.094)" fill="#282142"/>
      <path id="Trazado_117902" data-name="Trazado 117902" d="M316.375,480.534l-3.009-8.339h3.774l3.009,8.339Z" transform="translate(-48.513 -70.094)" fill="#282142"/>
      <path id="Trazado_117903" data-name="Trazado 117903" d="M350.816,546.5c2.309-6.627,30.283-96.878,30.283-96.878H417l2.373,12.567S395.3,539.874,392.992,546.5c-.182.505-.337,1.012-.506,1.517-2.114,6.485,3.45,6.459,9.727,6.459h63.314v5.745H360.037C347.354,560.222,348.508,553.141,350.816,546.5Z" transform="translate(-54.086 -66.6)" fill="#372d5b"/>
      <path id="Trazado_117904" data-name="Trazado 117904" d="M415.847,449.608s-27.974,90.251-30.282,96.878-3.463,13.721,9.221,13.721H352.61c-12.684,0-11.529-7.081-9.221-13.721s30.283-96.878,30.283-96.878Z" transform="translate(-52.936 -66.597)" fill="#504984"/>
      <path id="Trazado_117905" data-name="Trazado 117905" d="M410.386,449.489c-2.776-.13-5.564-.194-8.339-.286s-5.564-.117-8.339-.182c-2.776-.039-5.564-.129-8.339-.129l-8.339-.052h-.467l-.143.454c-1.167,3.631-2.309,7.275-3.4,10.932l-3.333,10.959c-2.14,7.328-4.28,14.656-6.238,22.035,2.568-7.2,4.954-14.448,7.34-21.7l3.463-10.907c1.167-3.631,2.283-7.275,3.385-10.932l-.609.454,8.339-.052c2.776,0,5.564-.079,8.339-.13s5.564-.078,8.339-.182S407.61,449.619,410.386,449.489Z" transform="translate(-56.267 -66.479)" fill="#282142"/>
      <path id="Trazado_117906" data-name="Trazado 117906" d="M127.556,602.632H746.618a11.076,11.076,0,0,0,0-22.151H127.556a11.076,11.076,0,1,0,0,22.151Z" transform="translate(-18.032 -86.858)" fill="#01b695"/>
      <path id="Trazado_117907" data-name="Trazado 117907" d="M127.556,604.661H746.618a11.07,11.07,0,0,0,11.075-11.075H116.48A11.07,11.07,0,0,0,127.556,604.661Z" transform="translate(-18.032 -88.887)" fill="#00cca7"/>
      <path id="Trazado_117908" data-name="Trazado 117908" d="M247.752,169.741a93.182,93.182,0,1,0-111.962,69.5A93.183,93.183,0,0,0,247.752,169.741Z" transform="translate(-9.88 -5.554)" fill="#b3009d"/>
      <g id="Grupo_81625" data-name="Grupo 81625" transform="translate(28.034 40.235)">
        <path id="Trazado_117909" data-name="Trazado 117909" d="M318.3,253.127c1.764,8.9-6.459,16.795-9.039,18.273s-19.869,8.391-30.269,8.638-24.1-21.736-18.494-24.2,43.848-5.188,48.038-5.188,9.753,2.465,9.753,2.465Z" transform="translate(-68.161 -76.031)" fill="#ffc5c7"/>
        <path id="Trazado_117910" data-name="Trazado 117910" d="M284.713,242.051c-4.539,26.677-15.3,47.415-18.662,47.791S230.4,279.1,221.5,275.018s2.737-66.673,8.274-65.571,17.69,13.125,27.714,18.9,27.235,13.708,27.235,13.708Z" transform="translate(-61.824 -69.65)" fill="#fff"/>
        <path id="Trazado_117911" data-name="Trazado 117911" d="M233.076,261.146c3.113,5.343,28.765,18.87,42.9,23.8-3.489,7.872-6.783,12.723-8.391,12.9-2.88.311-26.963-7.782-39.413-12.684,1.037-9.908,4.889-24.018,4.889-24.018Z" transform="translate(-63.358 -77.656)" fill="#dcedff"/>
        <path id="Trazado_117912" data-name="Trazado 117912" d="M309.919,231.352c.259,10.583-9.273,12.1-20.685,9.39s-30.036-28.4-38.337-40.009-23.772-32.293-26.962-34.148-10.531-2.84-16.821-13.267,1.984-32.293,4.941-34.887,28.39,6.069,31.346,10.44-2.088,27.9-1.193,30.867,22.54,27.169,31.982,33.1,35.535,30.866,35.717,38.531Z" transform="translate(-59.743 -55.488)" fill="#ffc5c7"/>
        <path id="Trazado_117913" data-name="Trazado 117913" d="M228.278,137.859c-3-1.478-3.71-8.209-1.829-7.029s5.175,1.155,9.623,1.1a38.513,38.513,0,0,0,6.277-.44,38.507,38.507,0,0,1,.428,5.3S231.261,139.35,228.278,137.859Z" transform="translate(-62.931 -57.459)" fill="#fe8a8b"/>
        <path id="Trazado_117914" data-name="Trazado 117914" d="M205.3,139.9c1.815-3.371,3.216-5.926,3.216-5.926l17.5,16.834a110.612,110.612,0,0,1,10.635-7.937l1.543,2.749c-2.827,4.786-5.292,14.915-5.357,17.379,0,0-2.684,2.97-4.189,3.217,0,0,18.714,29.634,30.737,44.211,11.957,14.486,20.153,27.015,25.782,31.035-11.374-6.563-26.885-27.935-34.251-38.259-8.288-11.607-23.773-32.293-26.963-34.147s-10.53-2.84-16.821-13.267C204.642,151.647,204.46,145.707,205.3,139.9Z" transform="translate(-59.747 -57.967)" fill="#fe8a8b"/>
        <path id="Trazado_117915" data-name="Trazado 117915" d="M239.951,135.476c-.208,1.725-17.587,16.8-19.415,18.52a2.62,2.62,0,0,1-1.868,0c-4.616-4.059-24.81-40.709-25.159-42.032-.337-1.232,13.06-13.838,17.158-17.21.558-.454,2.853-.182,3.229.376,4.124,6.109,26.34,38.116,26.068,40.346Z" transform="translate(-57.991 -51.86)" fill="#0c0835"/>
        <path id="Trazado_117916" data-name="Trazado 117916" d="M237.724,135.5c-.207,1.725-17.586,16.8-19.415,18.52s-26.638-40.605-27.04-42.032c-.337-1.232,14.577-13.631,18.675-17.016a1.154,1.154,0,0,1,1.712.169c4.124,6.108,26.34,38.116,26.068,40.347Z" transform="translate(-57.644 -51.883)" fill="#252384"/>
        <path id="Trazado_117917" data-name="Trazado 117917" d="M234.822,133.051c-.194,1.622-16.457,15.706-18.156,17.327s-24.926-37.986-25.29-39.322c-.311-1.155,13.643-12.761,17.469-15.913a1.072,1.072,0,0,1,1.595.156C214.305,101.017,235.081,130.963,234.822,133.051Z" transform="translate(-57.661 -51.912)" fill="#57aff7"/>
        <path id="Trazado_117918" data-name="Trazado 117918" d="M229.27,113.258c-2.684-1.621-5.992-7.12-6.29-8.974s-.117-3.515,1.336-3.891,5.9,5.435,8.118,7.159,4.928,5.3,3.826,7.717-6.03,1.479-6.562,1.116-.415-3.125-.415-3.125Z" transform="translate(-62.536 -52.766)" fill="#ffc5c7"/>
        <path id="Trazado_117919" data-name="Trazado 117919" d="M223.473,100.979c-.856,2.1,4.708,10.557,9.584,13l-1.815,2.075s-.817-.182-1.881-.429a14.646,14.646,0,0,1-.091-2.257c-2.684-1.621-5.992-7.12-6.29-8.974-.221-1.4-.168-2.7.506-3.4Z" transform="translate(-62.536 -52.859)" fill="#fe8a8b"/>
        <path id="Trazado_117920" data-name="Trazado 117920" d="M235.463,124.083c-4.63-2.477-8.262-2.192-10.778-3.217s-2.983-4.9-1.258-5.55,12.152,1.024,14.836,2.218,3.982,6.744,3.982,6.744l-6.77-.208Z" transform="translate(-62.465 -55.057)" fill="#ffc5c7"/>
        <path id="Trazado_117921" data-name="Trazado 117921" d="M233.454,121.754c2.619.493,3.514,0,3.514,0-.078,1.024.9,1.53,1.984,2.983l-3.476-.1c-4.63-2.476-8.261-2.192-10.777-3.216a3.761,3.761,0,0,1-2.126-2.607c1.115,2.126,8.273,2.438,10.881,2.93Z" transform="translate(-62.491 -55.62)" fill="#fe8a8b"/>
        <path id="Trazado_117922" data-name="Trazado 117922" d="M246.678,130.071c-2.476,3.424-14.59,1.933-17.028,1.57s-3.982-1.906-3.722-3.463c.506-3.138,16.51-2.58,17.833-2.088s2.918,3.994,2.918,3.994Z" transform="translate(-63.006 -56.688)" fill="#ffc5c7"/>
        <path id="Trazado_117923" data-name="Trazado 117923" d="M226.023,129.505c1.66,1.647,5.629,2.58,9.973,2.931a42.308,42.308,0,0,0,6.42.117c-4.566.726-11.05-.078-12.761-.337-2.036-.311-3.372-1.439-3.644-2.711Z" transform="translate(-63.023 -57.276)" fill="#fe8a8b"/>
        <path id="Trazado_117924" data-name="Trazado 117924" d="M168.722,185.9c25.717,13.086,29.946,12.58,40.982,18.52s7.755,68.412,7.055,78.048-3.359,47.907-1.893,58.282,7.185,48.893,9.714,54.82,7.367,15.927-.1,21.853-23.279,10-57.582,7.782-71.3-23.344-72.937-26.3,16.406-57.413,17.158-67.789A139.24,139.24,0,0,1,115,308.146c1.089-4.812-9.83-27.417-11.568-41.864s-17.444-54.3-14.461-61.6,30.309-15.433,48.932-24.719,30.827,5.94,30.827,5.94Z" transform="translate(-41.75 -64.622)" fill="#fff"/>
        <path id="Trazado_117925" data-name="Trazado 117925" d="M201.876,206.7a71.734,71.734,0,0,1-24.33,35.406c-13.929-3.411-28.091-9.558-39.49-18.248a165.787,165.787,0,0,0,41.526,22.683A61.013,61.013,0,0,0,201.876,206.7Z" transform="translate(-49.407 -69.227)" fill="#dcedff"/>
        <path id="Trazado_117926" data-name="Trazado 117926" d="M194.124,195.488c-4.941-2.1-11.283-5.02-20.245-9.572,0,0-12.2-15.212-30.827-5.94-6.459,3.217-13.968,6.3-21.14,9.26a92.983,92.983,0,0,0,49.8,40.645A65.668,65.668,0,0,0,194.124,195.488Z" transform="translate(-46.908 -64.626)" fill="#ffc5c7"/>
        <path id="Trazado_117927" data-name="Trazado 117927" d="M94.9,411.934c-1.634-2.97,16.406-57.413,17.158-67.789a139.223,139.223,0,0,1,3.891-22.968c1.089-4.812-9.831-27.417-11.569-41.864a77.349,77.349,0,0,0-2.01-9.546l11.594-8.638c6.8,18.974,11.036,52.3,17.482,60.462s22.5,11.478,22.5,11.478-15.861,3.709-22.774,2.218c0,0-7.379,29.27-7.47,43.705s1.258,36.3,1.427,39.27c.064,1.1-.182,4.967-.506,9.364-16.613-6.576-28.817-14.033-29.738-15.705Z" transform="translate(-42.71 -77.653)" fill="#dcedff"/>
        <path id="Trazado_117928" data-name="Trazado 117928" d="M149.514,149.391c-.259,15.459-1.284,26.081-4.708,29.038,0,0,5.888,25.652,29.414,23.461,7.962-.739,7.2-14.071,3.2-20.245l2.373-18.96-30.269-13.294Z" transform="translate(-50.452 -60.354)" fill="#ffc5c7"/>
        <path id="Trazado_117929" data-name="Trazado 117929" d="M146.924,175.7c2.01-4.747,2.711-13.98,2.918-26.314l30.269,13.294-1.518,12.165c-5.369,2.412-31.67.869-31.67.869Z" transform="translate(-50.78 -60.354)" fill="#fe8a8b"/>
        <path id="Trazado_117930" data-name="Trazado 117930" d="M98.278,272.907c7.082-13.929,9.922-36.534,3.528-48.439s-18.455-16.185-21.412-14.759-10.972,20-18.507,28.558-28.078,32.6-28.7,34.627,14.849,18.351,43.965,30.347c3.463,1.427,21.126-30.347,21.126-30.347Z" transform="translate(-33.169 -69.652)" fill="#fff"/>
        <path id="Trazado_117931" data-name="Trazado 117931" d="M82.233,291.721,77.59,301.24s22.877-22.929,32.371-40.048a69.109,69.109,0,0,1-6.134,19.726S86.162,312.692,82.7,311.265c-4.98-2.049-9.532-4.228-13.7-6.445l13.241-13.1Z" transform="translate(-38.717 -77.663)" fill="#dcedff"/>
        <path id="Trazado_117932" data-name="Trazado 117932" d="M176.817,134.457c-1.569-6.368-1.543-12.892-1.919-19.4-.285-4.876-.532-9.338-4.954-12.242-3.229-2.126-7.289-2.541-11.089-2.062-10.219,1.3-12.412,11.257-11.633,20.686.6,7.224,3.424,14.149,6.212,20.789-3.761-.168-8.9-2.14-11.14-5.265a22.314,22.314,0,0,0,5.9,10.8c-10.894-.181-21-7.314-26.768-16.885s-7.6-21.256-6.978-32.526c.727-13.371,4.9-26.768,13.164-37.066,16.626-20.7,48.673-23.111,68.191-5.33a49.145,49.145,0,0,1,14.006,23.2,77.011,77.011,0,0,1,.636,36.054,123.729,123.729,0,0,0-2,14.032c-.156,1.518-2,19.169-.934,19.1-6.887.415-14.785-.973-19.441-6.225,2.088,3.6,3.891,7.094,5.979,10.7-8.689-1.439-15.07-9.546-17.249-18.364Z" transform="translate(-45.734 -44.045)" fill="#372d5b"/>
        <path id="Trazado_117933" data-name="Trazado 117933" d="M144,114.921c-3.074-1.815-6.77-2.8-9.623.09-4.2,4.254,1.764,24.084,10.816,19.259,0,0,13.112,18.338,22.735,23.526s16.484,2.594,20.089-1.115,15.9-18.9,18.1-35c.791-5.746-.052-17.041.117-19.454.545-7.406,3.346-13.488-2.5-19.311a33.85,33.85,0,0,0-22.4-9.727,36.247,36.247,0,0,0-27.91,12.2c-7.664,8.689-9,18.507-9.442,29.518Z" transform="translate(-48.625 -48.554)" fill="#ffc5c7"/>
        <path id="Trazado_117934" data-name="Trazado 117934" d="M136.4,128.483c.778-3.631,3.878-4.344,6.186-1.815,2.361,2.594,2.762,10.8,2.153,12.023s-4.669,1.128-5.434-1.388,1.595-4.086,3.878-3.333c0,0,.636-3.657-1.232-6.018s-3.8-1.452-4.28-.843a18.439,18.439,0,0,1-1.27,1.388Z" transform="translate(-49.15 -56.604)" fill="#fe8a8b"/>
        <path id="Trazado_117935" data-name="Trazado 117935" d="M166.059,109.1a31.864,31.864,0,0,1,2.788-2.3,19.109,19.109,0,0,1,3.138-1.868,10.193,10.193,0,0,1,3.476-1.167,7.47,7.47,0,0,1,3.54.467v.169c-.609.233-1.167.389-1.725.544l-1.635.454c-1.063.312-2.165.4-3.242.766a23.776,23.776,0,0,0-3.164,1.335c-1.051.506-2.062,1.116-3.087,1.725Z" transform="translate(-53.742 -53.285)" fill="#3f1751"/>
        <path id="Trazado_117936" data-name="Trazado 117936" d="M212.1,104.6a11.986,11.986,0,0,0-3.138-1.141,16.618,16.618,0,0,0-3.307-.389c-1.116-.026-2.23.207-3.346.194a31.413,31.413,0,0,1-3.463-.091l-.039-.156a8.488,8.488,0,0,1,3.45-1.4,10.506,10.506,0,0,1,3.606.129,14.4,14.4,0,0,1,3.41.921,11.012,11.012,0,0,1,2.931,1.79Z" transform="translate(-58.812 -52.941)" fill="#3f1751"/>
        <path id="Trazado_117937" data-name="Trazado 117937" d="M178.453,117.292c-.039-1.57-.83-2.763-1.764-2.672s-1.66,1.439-1.608,3.008.83,2.763,1.764,2.672S178.5,118.86,178.453,117.292Z" transform="translate(-55.138 -54.971)" fill="#3f1751"/>
        <path id="Trazado_117938" data-name="Trazado 117938" d="M207.842,114.954c-.039-1.57-.687-2.776-1.452-2.7s-1.349,1.4-1.31,2.969.687,2.776,1.452,2.7S207.881,116.524,207.842,114.954Z" transform="translate(-59.783 -54.605)" fill="#3f1751"/>
        <path id="Trazado_117939" data-name="Trazado 117939" d="M188.23,135.8a7,7,0,0,0,7.639-.078,3.544,3.544,0,0,1-1.984,2.814,4.74,4.74,0,0,1-3.554-.194c-1.076-.493-1.426-1.582-2.114-2.542Z" transform="translate(-57.172 -58.238)" fill="#fe8a8b"/>
        <path id="Trazado_117940" data-name="Trazado 117940" d="M178.074,146.409a213.805,213.805,0,0,0,21.645-1.452c-1.6,5.239-5.784,10.4-11.633,10.414C182.821,155.371,179.344,151.052,178.074,146.409Z" transform="translate(-55.602 -59.668)" fill="#b3009d"/>
        <path id="Trazado_117941" data-name="Trazado 117941" d="M183.69,155.06a9.225,9.225,0,0,1,4.98-.052,8.039,8.039,0,0,1,6.7-.662,10.14,10.14,0,0,1-6.419,2.412,8.847,8.847,0,0,1-5.266-1.711Z" transform="translate(-56.472 -61.056)" fill="#fb8384"/>
        <path id="Trazado_117942" data-name="Trazado 117942" d="M196.607,149.4a25.288,25.288,0,0,1-15.862-.61q-.058-1.166-.156-2.334c5.11-.1,13.371-.726,17.794-1.219A14.742,14.742,0,0,1,196.607,149.4Z" transform="translate(-55.992 -59.711)" fill="#fff"/>
        <path id="Trazado_117943" data-name="Trazado 117943" d="M149.864,95.165a72.122,72.122,0,0,0,24.576-5.46c1.479-3.424,1.531-6.471,1.751-10.194a29.7,29.7,0,0,1,3.592,12.658c4.9-.324,9.844-.584,14.746-.895a30.519,30.519,0,0,0,1.323-12.009c1.66,3.865,2.49,8.741,3.061,12.917,2.956-1.05,6.718.48,9.817,1.038,3.839-8.547,3.58-24.019-4.526-30.5-7.9-6.316-21.633-8.028-31.281-6.627-20.543,2.97-36.689,20.024-35.418,41.28.726,12.126,6.809,23.591,15.524,32.033a49.14,49.14,0,0,1-3.165-34.225Z" transform="translate(-49.311 -45.839)" fill="#372d5b"/>
      </g>
      <path id="Trazado_117944" data-name="Trazado 117944" d="M436.267,176.631A54.185,54.185,0,1,0,370.2,215.442,54.184,54.184,0,0,0,436.267,176.631Z" transform="translate(-51.031 -13.835)" fill="#b3009d"/>
      <path id="Trazado_117945" data-name="Trazado 117945" d="M361.317,190.248h53.458a4.448,4.448,0,0,0,4.448-4.448V152.274a4.448,4.448,0,0,0-4.448-4.448H361.317a4.448,4.448,0,0,0-4.448,4.448V185.8A4.448,4.448,0,0,0,361.317,190.248Z" transform="translate(-55.248 -19.877)" fill="#dbe9ff"/>
      <path id="Trazado_117946" data-name="Trazado 117946" d="M361.32,193.611h53.471a4.447,4.447,0,0,0,4.448-4.448l-31.178-19.609-31.177,19.609a4.447,4.447,0,0,0,4.448,4.448Z" transform="translate(-55.251 -23.241)" fill="#cddcf4"/>
      <path id="Trazado_117947" data-name="Trazado 117947" d="M361.32,147.826h53.471a4.447,4.447,0,0,1,4.448,4.448l-31.178,19.609-31.177-19.609a4.447,4.447,0,0,1,4.448-4.448Z" transform="translate(-55.251 -19.877)" fill="#890078"/>
      <path id="Trazado_117948" data-name="Trazado 117948" d="M850.583,308.11a54.185,54.185,0,1,0-65.013-40.561A54.185,54.185,0,0,0,850.583,308.11Z" transform="translate(-121.399 -28.129)" fill="#b3009d"/>
      <path id="Trazado_117949" data-name="Trazado 117949" d="M857.072,248.721h-5.447a19.1,19.1,0,0,0-2.477-5.966L853,238.9A1.339,1.339,0,0,0,853,237l-4.28-4.279a1.339,1.339,0,0,0-1.907,0l-3.852,3.851A19.371,19.371,0,0,0,837,234.091v-5.446a1.347,1.347,0,0,0-1.348-1.349h-6.057a1.348,1.348,0,0,0-1.349,1.349v5.446a19.117,19.117,0,0,0-5.966,2.477l-3.852-3.851a1.339,1.339,0,0,0-1.907,0L812.238,237a1.339,1.339,0,0,0,0,1.907l3.852,3.852a19.378,19.378,0,0,0-2.477,5.966h-5.446a1.348,1.348,0,0,0-1.349,1.349v6.057a1.348,1.348,0,0,0,1.349,1.349h5.446a19.11,19.11,0,0,0,2.477,5.965l-3.852,3.852a1.339,1.339,0,0,0,0,1.907l4.279,4.28a1.339,1.339,0,0,0,1.907,0l3.852-3.852a19.358,19.358,0,0,0,5.966,2.477v5.447a1.348,1.348,0,0,0,1.349,1.349h6.057A1.348,1.348,0,0,0,837,277.551V272.1a19.088,19.088,0,0,0,5.966-2.477l3.852,3.852a1.339,1.339,0,0,0,1.907,0L853,269.2a1.339,1.339,0,0,0,0-1.907l-3.852-3.852a19.352,19.352,0,0,0,2.477-5.965h5.447a1.348,1.348,0,0,0,1.349-1.349V250.07A1.348,1.348,0,0,0,857.072,248.721Zm-24.46,12.735a8.365,8.365,0,1,1,8.365-8.365A8.368,8.368,0,0,1,832.612,261.456Z" transform="translate(-124.907 -32.18)" fill="#dbe9ff"/>
      <path id="Trazado_117950" data-name="Trazado 117950" d="M835.206,244.052a11.633,11.633,0,1,0,11.633,11.633A11.631,11.631,0,0,0,835.206,244.052Zm0,18.74a7.107,7.107,0,1,1,7.107-7.107A7.1,7.1,0,0,1,835.206,262.792Z" transform="translate(-127.501 -34.774)" fill="#890078"/>
      <path id="Trazado_117951" data-name="Trazado 117951" d="M889.112,278.872h-2.788a9.6,9.6,0,0,0-1.271-3.048l1.972-1.971a.682.682,0,0,0,0-.973l-2.192-2.192a.679.679,0,0,0-.972,0l-1.972,1.971a10.037,10.037,0,0,0-3.048-1.271V268.6a.692.692,0,0,0-.687-.687h-3.1a.692.692,0,0,0-.688.687v2.788a9.613,9.613,0,0,0-3.048,1.271l-1.971-1.971a.68.68,0,0,0-.973,0l-2.192,2.192a.682.682,0,0,0,0,.973l1.971,1.971a10.034,10.034,0,0,0-1.27,3.048h-2.788a.692.692,0,0,0-.688.687v3.1a.692.692,0,0,0,.688.687h2.788a9.612,9.612,0,0,0,1.27,3.048l-1.971,1.971a.682.682,0,0,0,0,.973l2.192,2.192a.682.682,0,0,0,.973,0l1.971-1.971a10.068,10.068,0,0,0,3.048,1.271v2.788a.692.692,0,0,0,.688.687h3.1a.692.692,0,0,0,.687-.687v-2.788a9.619,9.619,0,0,0,3.048-1.271l1.972,1.971a.681.681,0,0,0,.972,0l2.192-2.192a.682.682,0,0,0,0-.973l-1.972-1.971a10.045,10.045,0,0,0,1.271-3.048h2.788a.691.691,0,0,0,.687-.687v-3.1A.691.691,0,0,0,889.112,278.872Zm-12.5,6.51a4.267,4.267,0,1,1,4.266-4.266A4.262,4.262,0,0,1,876.61,285.382Z" transform="translate(-133.668 -38.468)" fill="#dbe9ff"/>
      <path id="Trazado_117952" data-name="Trazado 117952" d="M877.94,276.49a5.94,5.94,0,1,0,5.94,5.94A5.939,5.939,0,0,0,877.94,276.49Zm0,9.572a3.631,3.631,0,1,1,3.632-3.632A3.625,3.625,0,0,1,877.94,286.062Z" transform="translate(-134.998 -39.796)" fill="#890078"/>
      <path id="Trazado_117953" data-name="Trazado 117953" d="M569.346,123.9a54.185,54.185,0,1,0-70.489-30.052A54.185,54.185,0,0,0,569.346,123.9Z" transform="translate(-76.622 0)" fill="#b3009d"/>
      <path id="Trazado_117954" data-name="Trazado 117954" d="M580.253,106.773H526.47a4.284,4.284,0,0,1-4.279-4.28V57.737a4.284,4.284,0,0,1,4.279-4.28h53.782a4.284,4.284,0,0,1,4.28,4.28V102.48a4.284,4.284,0,0,1-4.28,4.279Z" transform="translate(-80.843 -5.267)" fill="#fff"/>
      <path id="Trazado_117955" data-name="Trazado 117955" d="M522.175,64.611H584.53V57.737a4.284,4.284,0,0,0-4.28-4.28H526.468a4.284,4.284,0,0,0-4.28,4.28v6.874Z" transform="translate(-80.84 -5.267)" fill="#890078"/>
      <path id="Trazado_117956" data-name="Trazado 117956" d="M578.091,55.393a1.261,1.261,0,0,0,1.258-1.271V51.892a1.258,1.258,0,1,0-2.515,0v2.231A1.27,1.27,0,0,0,578.091,55.393Z" transform="translate(-89.302 -4.83)" fill="#fff"/>
      <path id="Trazado_117957" data-name="Trazado 117957" d="M582.372,55.393a1.262,1.262,0,0,0,1.259-1.271V51.892a1.258,1.258,0,0,0-2.516,0v2.231A1.27,1.27,0,0,0,582.372,55.393Z" transform="translate(-89.965 -4.83)" fill="#fff"/>
      <path id="Trazado_117958" data-name="Trazado 117958" d="M535.294,55.393a1.262,1.262,0,0,0,1.258-1.271V51.892a1.258,1.258,0,0,0-2.516,0v2.231A1.271,1.271,0,0,0,535.294,55.393Z" transform="translate(-82.676 -4.83)" fill="#fff"/>
      <path id="Trazado_117959" data-name="Trazado 117959" d="M539.56,55.393a1.262,1.262,0,0,0,1.258-1.271V51.892a1.258,1.258,0,0,0-2.516,0v2.231A1.27,1.27,0,0,0,539.56,55.393Z" transform="translate(-83.337 -4.83)" fill="#fff"/>
      <path id="Trazado_117960" data-name="Trazado 117960" d="M566.884,74.495h-3.359a1.024,1.024,0,0,0-1.024,1.025v3.359a1.024,1.024,0,0,0,1.024,1.025h3.359a1.024,1.024,0,0,0,1.024-1.025V75.519A1.024,1.024,0,0,0,566.884,74.495Z" transform="translate(-87.083 -8.524)" fill="#dbe9ff"/>
      <path id="Trazado_117961" data-name="Trazado 117961" d="M551.677,74.495h-3.359a1.025,1.025,0,0,0-1.024,1.025v3.359a1.025,1.025,0,0,0,1.024,1.025h3.359a1.025,1.025,0,0,0,1.025-1.025V75.519A1.025,1.025,0,0,0,551.677,74.495Z" transform="translate(-84.729 -8.524)" fill="#dbe9ff"/>
      <path id="Trazado_117962" data-name="Trazado 117962" d="M536.471,74.495h-3.359a1.024,1.024,0,0,0-1.024,1.025v3.359a1.024,1.024,0,0,0,1.024,1.025h3.359a1.024,1.024,0,0,0,1.024-1.025V75.519A1.024,1.024,0,0,0,536.471,74.495Z" transform="translate(-82.375 -8.524)" fill="#dbe9ff"/>
      <path id="Trazado_117963" data-name="Trazado 117963" d="M582.077,87.6h-3.346a1.025,1.025,0,0,0-1.024,1.025v3.359a1.025,1.025,0,0,0,1.024,1.025h3.346a1.024,1.024,0,0,0,1.024-1.025V88.623A1.024,1.024,0,0,0,582.077,87.6Z" transform="translate(-89.437 -10.553)" fill="#dbe9ff"/>
      <path id="Trazado_117964" data-name="Trazado 117964" d="M566.884,87.6h-3.359a1.024,1.024,0,0,0-1.024,1.025v3.359a1.024,1.024,0,0,0,1.024,1.025h3.359a1.024,1.024,0,0,0,1.024-1.025V88.623A1.024,1.024,0,0,0,566.884,87.6Z" transform="translate(-87.083 -10.553)" fill="#dbe9ff"/>
      <path id="Trazado_117965" data-name="Trazado 117965" d="M551.677,87.6h-3.359a1.025,1.025,0,0,0-1.024,1.025v3.359a1.025,1.025,0,0,0,1.024,1.025h3.359a1.025,1.025,0,0,0,1.025-1.025V88.623A1.025,1.025,0,0,0,551.677,87.6Z" transform="translate(-84.729 -10.553)" fill="#dbe9ff"/>
      <path id="Trazado_117966" data-name="Trazado 117966" d="M536.471,87.6h-3.359a1.024,1.024,0,0,0-1.024,1.025v3.359a1.024,1.024,0,0,0,1.024,1.025h3.359a1.024,1.024,0,0,0,1.024-1.025V88.623A1.024,1.024,0,0,0,536.471,87.6Z" transform="translate(-82.375 -10.553)" fill="#dbe9ff"/>
      <path id="Trazado_117967" data-name="Trazado 117967" d="M582.077,100.688h-3.346a1.024,1.024,0,0,0-1.024,1.024v3.359a1.024,1.024,0,0,0,1.024,1.024h3.346a1.024,1.024,0,0,0,1.024-1.024v-3.359A1.024,1.024,0,0,0,582.077,100.688Z" transform="translate(-89.437 -12.579)" fill="#dbe9ff"/>
      <path id="Trazado_117968" data-name="Trazado 117968" d="M566.884,100.688h-3.359a1.024,1.024,0,0,0-1.024,1.024v3.359a1.024,1.024,0,0,0,1.024,1.024h3.359a1.024,1.024,0,0,0,1.024-1.024v-3.359A1.024,1.024,0,0,0,566.884,100.688Z" transform="translate(-87.083 -12.579)" fill="#dbe9ff"/>
      <path id="Trazado_117969" data-name="Trazado 117969" d="M551.677,100.688h-3.359a1.024,1.024,0,0,0-1.024,1.024v3.359a1.024,1.024,0,0,0,1.024,1.024h3.359a1.024,1.024,0,0,0,1.025-1.024v-3.359A1.024,1.024,0,0,0,551.677,100.688Z" transform="translate(-84.729 -12.579)" fill="#dbe9ff"/>
      <path id="Trazado_117970" data-name="Trazado 117970" d="M771,144.924a54.185,54.185,0,1,0-76.629,0A54.184,54.184,0,0,0,771,144.924Z" transform="translate(-105.042 -5.107)" fill="#b3009d"/>
      <path id="Trazado_117971" data-name="Trazado 117971" d="M762.057,135.982a37.117,37.117,0,1,0-52.492,0A37.118,37.118,0,0,0,762.057,135.982Z" transform="translate(-108.168 -8.234)" fill="#fff"/>
      <path id="Trazado_117972" data-name="Trazado 117972" d="M735.8,72.622a37.117,37.117,0,1,0,37.117,37.118A37.112,37.112,0,0,0,735.8,72.622Zm3.113,68.736v-5.071a1.71,1.71,0,0,0-1.712-1.712h-2.814a1.71,1.71,0,0,0-1.712,1.712v5.071a31.788,31.788,0,0,1-28.506-28.506h5.071a1.71,1.71,0,0,0,1.712-1.712v-2.814a1.71,1.71,0,0,0-1.712-1.711H704.17a31.787,31.787,0,0,1,28.506-28.506v5.071a1.711,1.711,0,0,0,1.712,1.712H737.2a1.71,1.71,0,0,0,1.712-1.712V78.108a31.787,31.787,0,0,1,28.506,28.506h-5.07a1.71,1.71,0,0,0-1.712,1.711v2.814a1.71,1.71,0,0,0,1.712,1.712h5.07A31.788,31.788,0,0,1,738.914,141.358Z" transform="translate(-108.166 -8.234)" fill="#890078"/>
      <path id="Trazado_117973" data-name="Trazado 117973" d="M717.855,124.42v-.995l3.736-4.09q.658-.718,1.083-1.248a4.645,4.645,0,0,0,.63-1.006,2.433,2.433,0,0,0,.21-.995,1.841,1.841,0,0,0-.287-1.034,1.863,1.863,0,0,0-.774-.674,2.514,2.514,0,0,0-1.105-.238,2.31,2.31,0,0,0-1.138.27,1.869,1.869,0,0,0-.745.746,2.336,2.336,0,0,0-.26,1.127h-1.3a3.282,3.282,0,0,1,.459-1.746,3.19,3.19,0,0,1,1.249-1.172,3.764,3.764,0,0,1,1.785-.42,3.62,3.62,0,0,1,1.763.42,3.169,3.169,0,0,1,1.2,1.133,2.98,2.98,0,0,1,.437,1.586,3.413,3.413,0,0,1-.227,1.221,5.378,5.378,0,0,1-.773,1.32q-.548.724-1.52,1.769l-2.542,2.719v.089H725v1.215Zm8.914-2.321v-1.127l4.974-7.87h.818v1.746h-.553l-3.759,5.947v.088h6.7V122.1Zm5.327,2.321V113.1h1.3V124.42Zm8.946-11.849L737.4,126.122H736.2l3.648-13.551Zm1.878,11.849,5.062-10.014v-.089h-5.836V113.1H749.4v1.282l-5.04,10.036Z" transform="translate(-111.134 -14.419)" fill="#d1c8d9"/>
    </g>
    <line id="Lnea_198" data-name="Lnea 198" y1="46" transform="translate(731.5 936.5)" fill="none" stroke="#12263f" stroke-width="2"/>
    <line id="Lnea_199" data-name="Lnea 199" y1="46" transform="translate(871.5 862.5)" fill="none" stroke="#12263f" stroke-width="2"/>
    <line id="Lnea_200" data-name="Lnea 200" y1="46" transform="translate(1030.5 887)" fill="none" stroke="#12263f" stroke-width="2"/>
    <line id="Lnea_201" data-name="Lnea 201" y1="46" transform="translate(1122.5 1011)" fill="none" stroke="#12263f" stroke-width="2"/>
    <path id="Trazado_118071" data-name="Trazado 118071" d="M16.672,12.737a4.528,4.528,0,0,1-1.525,3.252,5.355,5.355,0,0,1-3.625,1.187A4.816,4.816,0,0,1,7.65,15.519,6.793,6.793,0,0,1,6.24,10.971v-.782a7.671,7.671,0,0,1,.65-3.252A4.874,4.874,0,0,1,8.749,4.779a5.207,5.207,0,0,1,2.808-.751,5.217,5.217,0,0,1,3.568,1.187A4.866,4.866,0,0,1,16.69,8.545H14.053a2.673,2.673,0,0,0-.69-1.8,2.555,2.555,0,0,0-1.806-.558,2.24,2.24,0,0,0-1.973.945,5.3,5.3,0,0,0-.672,2.931v.967a5.667,5.667,0,0,0,.628,3.032,2.2,2.2,0,0,0,1.982.958,2.6,2.6,0,0,0,1.824-.558,2.521,2.521,0,0,0,.69-1.727Zm6.469-.422h-2.1V17H18.4V4.2h4.755a5.375,5.375,0,0,1,3.5,1.011,3.488,3.488,0,0,1,1.23,2.856,3.937,3.937,0,0,1-.567,2.184A3.866,3.866,0,0,1,25.6,11.647l2.769,5.229V17h-2.83Zm-2.1-2.136h2.127a2.178,2.178,0,0,0,1.538-.505,1.806,1.806,0,0,0,.545-1.393,1.933,1.933,0,0,0-.514-1.424,2.137,2.137,0,0,0-1.578-.519H21.041ZM33.336,4.2l3.287,9.281L39.893,4.2h3.463V17H40.71V13.5l.264-6.038L37.52,17H35.709L32.264,7.473l.264,6.029V17H29.891V4.2Z" transform="translate(740 942)" fill="#12263f"/>
    <path id="Trazado_118072" data-name="Trazado 118072" d="M3.779,12.491V17H1.143V4.2H6.135A5.776,5.776,0,0,1,8.67,4.73a3.886,3.886,0,0,1,1.683,1.5,4.178,4.178,0,0,1,.589,2.21,3.674,3.674,0,0,1-1.288,2.966,5.363,5.363,0,0,1-3.564,1.085Zm0-2.136H6.135a2.316,2.316,0,0,0,1.6-.492,1.79,1.79,0,0,0,.549-1.406,2.111,2.111,0,0,0-.554-1.521,2.068,2.068,0,0,0-1.529-.6H3.779Zm13.069,6.82a4.668,4.668,0,0,1-3.406-1.283,4.561,4.561,0,0,1-1.314-3.419v-.246a5.745,5.745,0,0,1,.554-2.562,4.064,4.064,0,0,1,1.569-1.74,4.4,4.4,0,0,1,2.316-.611,3.947,3.947,0,0,1,3.072,1.23,5,5,0,0,1,1.121,3.489v1.037H14.7a2.36,2.36,0,0,0,.743,1.494,2.245,2.245,0,0,0,1.569.563,2.742,2.742,0,0,0,2.294-1.063l1.248,1.4a3.813,3.813,0,0,1-1.547,1.261A5.075,5.075,0,0,1,16.849,17.176Zm-.29-7.813a1.587,1.587,0,0,0-1.226.512,2.651,2.651,0,0,0-.6,1.466h3.533v-.2a1.891,1.891,0,0,0-.457-1.311A1.638,1.638,0,0,0,16.559,9.362Zm10.986.51a6.9,6.9,0,0,0-.914-.07,1.86,1.86,0,0,0-1.89.976V17H22.2V7.49h2.4l.07,1.134a2.354,2.354,0,0,1,2.118-1.31,2.662,2.662,0,0,1,.791.114ZM31.447,17H28.9V7.49h2.549Zm-2.7-11.971a1.251,1.251,0,0,1,.382-.94,1.648,1.648,0,0,1,2.079,0,1.244,1.244,0,0,1,.387.94,1.247,1.247,0,0,1-.391.949,1.629,1.629,0,0,1-2.065,0A1.247,1.247,0,0,1,28.749,5.029Zm4.395,7.128a5.64,5.64,0,0,1,.545-2.522,3.989,3.989,0,0,1,1.569-1.714,4.577,4.577,0,0,1,2.377-.606,4.33,4.33,0,0,1,3.142,1.178,4.727,4.727,0,0,1,1.358,3.2l.018.65a4.97,4.97,0,0,1-1.222,3.511,4.247,4.247,0,0,1-3.278,1.323,4.268,4.268,0,0,1-3.283-1.318,5.058,5.058,0,0,1-1.226-3.586Zm2.54.18a3.555,3.555,0,0,0,.51,2.073,1.831,1.831,0,0,0,2.9.009,3.89,3.89,0,0,0,.519-2.267,3.519,3.519,0,0,0-.519-2.06,1.686,1.686,0,0,0-1.459-.731,1.658,1.658,0,0,0-1.441.726A3.955,3.955,0,0,0,35.684,12.338Zm7.638-.163a5.731,5.731,0,0,1,1-3.542,3.237,3.237,0,0,1,2.729-1.318,2.913,2.913,0,0,1,2.294,1.037V3.5h2.549V17H49.6l-.123-1.011a2.989,2.989,0,0,1-2.443,1.187,3.228,3.228,0,0,1-2.694-1.323A5.916,5.916,0,0,1,43.321,12.175Zm2.54.189a3.754,3.754,0,0,0,.466,2.051,1.517,1.517,0,0,0,1.354.713,1.7,1.7,0,0,0,1.661-.995V10.375A1.675,1.675,0,0,0,47.7,9.38Q45.861,9.38,45.861,12.364Zm7.6-.207a5.64,5.64,0,0,1,.545-2.522,3.989,3.989,0,0,1,1.569-1.714,4.577,4.577,0,0,1,2.377-.606A4.33,4.33,0,0,1,61.1,8.492a4.727,4.727,0,0,1,1.358,3.2l.018.65a4.97,4.97,0,0,1-1.222,3.511,4.735,4.735,0,0,1-6.561,0,5.058,5.058,0,0,1-1.226-3.586Zm2.54.18a3.555,3.555,0,0,0,.51,2.073,1.831,1.831,0,0,0,2.9.009,3.89,3.89,0,0,0,.519-2.267,3.519,3.519,0,0,0-.519-2.06,1.686,1.686,0,0,0-1.459-.731,1.658,1.658,0,0,0-1.441.726A3.955,3.955,0,0,0,56,12.338Zm13.184,2.035a.818.818,0,0,0-.461-.734,5.241,5.241,0,0,0-1.481-.479q-3.393-.712-3.393-2.883A2.613,2.613,0,0,1,64.9,8.163a4.237,4.237,0,0,1,2.747-.848,4.56,4.56,0,0,1,2.9.853,2.687,2.687,0,0,1,1.085,2.215h-2.54a1.229,1.229,0,0,0-.352-.9,1.488,1.488,0,0,0-1.1-.356,1.52,1.52,0,0,0-.993.29.916.916,0,0,0-.352.738.783.783,0,0,0,.4.681,4.114,4.114,0,0,0,1.349.448,11.019,11.019,0,0,1,1.6.426,2.628,2.628,0,0,1,2.013,2.558,2.481,2.481,0,0,1-1.116,2.1,4.815,4.815,0,0,1-2.883.8,5.029,5.029,0,0,1-2.123-.426,3.561,3.561,0,0,1-1.455-1.169,2.716,2.716,0,0,1-.527-1.6h2.408a1.326,1.326,0,0,0,.5,1.037,1.987,1.987,0,0,0,1.248.36,1.839,1.839,0,0,0,1.1-.277A.861.861,0,0,0,69.188,14.372Zm8.191-2.2a5.731,5.731,0,0,1,1-3.542,3.237,3.237,0,0,1,2.729-1.318A2.913,2.913,0,0,1,83.4,8.352V3.5h2.549V17H83.654l-.123-1.011a2.989,2.989,0,0,1-2.443,1.187,3.228,3.228,0,0,1-2.694-1.323A5.916,5.916,0,0,1,77.379,12.175Zm2.54.189a3.754,3.754,0,0,0,.466,2.051,1.517,1.517,0,0,0,1.354.713,1.7,1.7,0,0,0,1.661-.995V10.375a1.675,1.675,0,0,0-1.644-.995Q79.919,9.38,79.919,12.364Zm12.375,4.812a4.668,4.668,0,0,1-3.406-1.283,4.561,4.561,0,0,1-1.314-3.419v-.246a5.745,5.745,0,0,1,.554-2.562A4.064,4.064,0,0,1,89.7,7.925a4.4,4.4,0,0,1,2.316-.611,3.947,3.947,0,0,1,3.072,1.23,5,5,0,0,1,1.121,3.489v1.037H90.149a2.36,2.36,0,0,0,.743,1.494,2.245,2.245,0,0,0,1.569.563,2.742,2.742,0,0,0,2.294-1.063L96,15.462a3.813,3.813,0,0,1-1.547,1.261A5.075,5.075,0,0,1,92.294,17.176ZM92,9.362a1.587,1.587,0,0,0-1.226.512,2.651,2.651,0,0,0-.6,1.466h3.533v-.2a1.891,1.891,0,0,0-.457-1.311A1.638,1.638,0,0,0,92,9.362Zm9.756,2.813A5.573,5.573,0,0,1,102.8,8.65a3.375,3.375,0,0,1,2.808-1.336,2.96,2.96,0,0,1,2.435,1.072l.105-.9h2.3v9.193a4.064,4.064,0,0,1-.567,2.171,3.641,3.641,0,0,1-1.6,1.406,5.608,5.608,0,0,1-2.408.483,5.215,5.215,0,0,1-2.039-.417,3.619,3.619,0,0,1-1.5-1.077l1.125-1.547a2.975,2.975,0,0,0,2.3,1.063,2.178,2.178,0,0,0,1.573-.541,2.027,2.027,0,0,0,.563-1.534v-.51a2.938,2.938,0,0,1-2.312.993,3.366,3.366,0,0,1-2.773-1.34,5.572,5.572,0,0,1-1.059-3.555Zm2.54.189a3.47,3.47,0,0,0,.519,2.029,1.65,1.65,0,0,0,1.424.735,1.764,1.764,0,0,0,1.661-.871V10.251a1.76,1.76,0,0,0-1.644-.871,1.66,1.66,0,0,0-1.437.748A3.911,3.911,0,0,0,104.3,12.364ZM117.914,17a2.821,2.821,0,0,1-.255-.853,3.073,3.073,0,0,1-2.4,1.028,3.376,3.376,0,0,1-2.316-.809,2.6,2.6,0,0,1-.918-2.039,2.687,2.687,0,0,1,1.121-2.32,5.529,5.529,0,0,1,3.239-.817h1.169v-.545a1.567,1.567,0,0,0-.338-1.055,1.331,1.331,0,0,0-1.068-.4,1.513,1.513,0,0,0-1.006.308,1.045,1.045,0,0,0-.365.844h-2.54a2.551,2.551,0,0,1,.51-1.529,3.37,3.37,0,0,1,1.441-1.1,5.253,5.253,0,0,1,2.092-.4,4.15,4.15,0,0,1,2.791.883,3.09,3.09,0,0,1,1.033,2.483V14.8a4.546,4.546,0,0,0,.378,2.048V17Zm-2.1-1.767a2.188,2.188,0,0,0,1.037-.25,1.645,1.645,0,0,0,.7-.672V12.676H116.6q-1.907,0-2.03,1.318l-.009.149a1.017,1.017,0,0,0,.334.782A1.3,1.3,0,0,0,115.813,15.233ZM127.4,9.872a6.9,6.9,0,0,0-.914-.07,1.86,1.86,0,0,0-1.89.976V17h-2.54V7.49h2.4l.07,1.134a2.354,2.354,0,0,1,2.118-1.31,2.662,2.662,0,0,1,.791.114ZM133.866,17a2.821,2.821,0,0,1-.255-.853,3.073,3.073,0,0,1-2.4,1.028,3.376,3.376,0,0,1-2.316-.809,2.6,2.6,0,0,1-.918-2.039,2.687,2.687,0,0,1,1.121-2.32,5.529,5.529,0,0,1,3.239-.817h1.169v-.545a1.567,1.567,0,0,0-.338-1.055,1.331,1.331,0,0,0-1.068-.4,1.513,1.513,0,0,0-1.006.308,1.045,1.045,0,0,0-.365.844h-2.54a2.551,2.551,0,0,1,.51-1.529,3.37,3.37,0,0,1,1.441-1.1,5.253,5.253,0,0,1,2.092-.4,4.15,4.15,0,0,1,2.791.883,3.09,3.09,0,0,1,1.033,2.483V14.8a4.546,4.546,0,0,0,.378,2.048V17Zm-2.1-1.767a2.188,2.188,0,0,0,1.037-.25,1.645,1.645,0,0,0,.7-.672V12.676h-.949q-1.907,0-2.03,1.318l-.009.149a1.017,1.017,0,0,0,.334.782A1.3,1.3,0,0,0,131.766,15.233Zm8.578-7.743.079,1.1a3.32,3.32,0,0,1,2.733-1.274,2.759,2.759,0,0,1,2.25.888,4.142,4.142,0,0,1,.756,2.654V17h-2.54V10.918a1.648,1.648,0,0,0-.352-1.173A1.574,1.574,0,0,0,142.1,9.38a1.747,1.747,0,0,0-1.608.914V17h-2.54V7.49Zm10.784-2.338V7.49h1.626V9.354h-1.626V14.1a1.133,1.133,0,0,0,.2.756,1.015,1.015,0,0,0,.773.229,4.051,4.051,0,0,0,.747-.062v1.925a5.229,5.229,0,0,1-1.538.229,2.425,2.425,0,0,1-2.725-2.7V9.354H147.2V7.49h1.389V5.152ZM156.911,17h-2.54V7.49h2.54Zm-.747-13.368h2.769L156.5,6.356h-2.065ZM164.61,17a2.821,2.821,0,0,1-.255-.853,3.073,3.073,0,0,1-2.4,1.028,3.376,3.376,0,0,1-2.316-.809,2.6,2.6,0,0,1-.918-2.039,2.687,2.687,0,0,1,1.121-2.32,5.529,5.529,0,0,1,3.239-.817h1.169v-.545a1.567,1.567,0,0,0-.338-1.055,1.331,1.331,0,0,0-1.068-.4,1.513,1.513,0,0,0-1.006.308,1.045,1.045,0,0,0-.365.844h-2.54a2.551,2.551,0,0,1,.51-1.529,3.37,3.37,0,0,1,1.441-1.1,5.253,5.253,0,0,1,2.092-.4,4.15,4.15,0,0,1,2.791.883,3.09,3.09,0,0,1,1.033,2.483V14.8a4.546,4.546,0,0,0,.378,2.048V17Zm-2.1-1.767a2.188,2.188,0,0,0,1.037-.25,1.645,1.645,0,0,0,.7-.672V12.676H163.3q-1.907,0-2.03,1.318l-.009.149a1.017,1.017,0,0,0,.334.782A1.3,1.3,0,0,0,162.51,15.233Zm11.391-.861a.818.818,0,0,0-.461-.734,5.241,5.241,0,0,0-1.481-.479q-3.393-.712-3.393-2.883a2.613,2.613,0,0,1,1.05-2.114,4.237,4.237,0,0,1,2.747-.848,4.56,4.56,0,0,1,2.9.853,2.687,2.687,0,0,1,1.085,2.215H173.8a1.229,1.229,0,0,0-.352-.9,1.488,1.488,0,0,0-1.1-.356,1.52,1.52,0,0,0-.993.29.916.916,0,0,0-.352.738.783.783,0,0,0,.4.681,4.114,4.114,0,0,0,1.349.448,11.019,11.019,0,0,1,1.6.426,2.628,2.628,0,0,1,2.013,2.558,2.481,2.481,0,0,1-1.116,2.1,4.815,4.815,0,0,1-2.883.8,5.029,5.029,0,0,1-2.123-.426,3.561,3.561,0,0,1-1.455-1.169,2.716,2.716,0,0,1-.527-1.6h2.408a1.326,1.326,0,0,0,.5,1.037,1.987,1.987,0,0,0,1.248.36,1.839,1.839,0,0,0,1.1-.277A.861.861,0,0,0,173.9,14.372ZM.58,37.157a5.64,5.64,0,0,1,.545-2.522,3.989,3.989,0,0,1,1.569-1.714,4.577,4.577,0,0,1,2.377-.606,4.33,4.33,0,0,1,3.142,1.178,4.727,4.727,0,0,1,1.358,3.2l.018.65a4.97,4.97,0,0,1-1.222,3.511,4.247,4.247,0,0,1-3.278,1.323,4.268,4.268,0,0,1-3.283-1.318A5.058,5.058,0,0,1,.58,37.271Zm2.54.18a3.555,3.555,0,0,0,.51,2.073,1.682,1.682,0,0,0,1.459.717,1.686,1.686,0,0,0,1.441-.709,3.89,3.89,0,0,0,.519-2.267,3.519,3.519,0,0,0-.519-2.06,1.686,1.686,0,0,0-1.459-.731,1.658,1.658,0,0,0-1.441.726A3.955,3.955,0,0,0,3.12,37.338Zm12.12-.163a5.731,5.731,0,0,1,1-3.542,3.237,3.237,0,0,1,2.729-1.318,2.913,2.913,0,0,1,2.294,1.037V28.5H23.81V42H21.516l-.123-1.011a2.989,2.989,0,0,1-2.443,1.187,3.228,3.228,0,0,1-2.694-1.323A5.916,5.916,0,0,1,15.24,37.175Zm2.54.189a3.754,3.754,0,0,0,.466,2.051,1.517,1.517,0,0,0,1.354.713,1.7,1.7,0,0,0,1.661-.995V35.375a1.675,1.675,0,0,0-1.644-.995Q17.78,34.38,17.78,37.364Zm12.375,4.812a4.668,4.668,0,0,1-3.406-1.283,4.561,4.561,0,0,1-1.314-3.419v-.246a5.745,5.745,0,0,1,.554-2.562,4.064,4.064,0,0,1,1.569-1.74,4.4,4.4,0,0,1,2.316-.611,3.947,3.947,0,0,1,3.072,1.23,5,5,0,0,1,1.121,3.489v1.037H28.011a2.36,2.36,0,0,0,.743,1.494,2.245,2.245,0,0,0,1.569.563,2.742,2.742,0,0,0,2.294-1.063l1.248,1.4a3.813,3.813,0,0,1-1.547,1.261A5.075,5.075,0,0,1,30.155,42.176Zm-.29-7.813a1.587,1.587,0,0,0-1.226.512,2.651,2.651,0,0,0-.6,1.466H31.57v-.2a1.891,1.891,0,0,0-.457-1.311A1.638,1.638,0,0,0,29.865,34.362ZM42.372,32.49l.079,1.063a3.342,3.342,0,0,1,2.733-1.239,2.536,2.536,0,0,1,2.522,1.45,3.265,3.265,0,0,1,2.856-1.45,2.836,2.836,0,0,1,2.3.9,4.141,4.141,0,0,1,.756,2.711V42H51.073V35.936a1.811,1.811,0,0,0-.316-1.182,1.4,1.4,0,0,0-1.116-.374,1.585,1.585,0,0,0-1.582,1.09L48.067,42h-2.54V35.944a1.789,1.789,0,0,0-.325-1.2,1.416,1.416,0,0,0-1.107-.369,1.646,1.646,0,0,0-1.564.9V42H39.99V32.49ZM61.084,42a2.821,2.821,0,0,1-.255-.853,3.073,3.073,0,0,1-2.4,1.028,3.376,3.376,0,0,1-2.316-.809,2.6,2.6,0,0,1-.918-2.039,2.687,2.687,0,0,1,1.121-2.32,5.529,5.529,0,0,1,3.239-.817h1.169v-.545a1.567,1.567,0,0,0-.338-1.055,1.331,1.331,0,0,0-1.068-.4,1.513,1.513,0,0,0-1.006.308,1.045,1.045,0,0,0-.365.844h-2.54a2.551,2.551,0,0,1,.51-1.529,3.37,3.37,0,0,1,1.441-1.1,5.253,5.253,0,0,1,2.092-.4,4.15,4.15,0,0,1,2.791.883,3.09,3.09,0,0,1,1.033,2.483V39.8a4.546,4.546,0,0,0,.378,2.048V42Zm-2.1-1.767a2.188,2.188,0,0,0,1.037-.25,1.645,1.645,0,0,0,.7-.672V37.676h-.949q-1.907,0-2.03,1.318l-.009.149a1.017,1.017,0,0,0,.334.782A1.3,1.3,0,0,0,58.983,40.233Zm8.578-7.743.079,1.1a3.32,3.32,0,0,1,2.733-1.274,2.759,2.759,0,0,1,2.25.888,4.142,4.142,0,0,1,.756,2.654V42H70.84V35.918a1.648,1.648,0,0,0-.352-1.173,1.574,1.574,0,0,0-1.169-.365,1.747,1.747,0,0,0-1.608.914V42h-2.54V32.49Zm10.784-2.338V32.49h1.626v1.863H78.346V39.1a1.133,1.133,0,0,0,.2.756,1.015,1.015,0,0,0,.773.229,4.051,4.051,0,0,0,.747-.062v1.925a5.229,5.229,0,0,1-1.538.229,2.425,2.425,0,0,1-2.725-2.7V34.354H74.417V32.49h1.389V30.152Zm7.418,12.023a4.668,4.668,0,0,1-3.406-1.283,4.561,4.561,0,0,1-1.314-3.419v-.246a5.745,5.745,0,0,1,.554-2.562,4.064,4.064,0,0,1,1.569-1.74,4.4,4.4,0,0,1,2.316-.611,3.947,3.947,0,0,1,3.072,1.23,5,5,0,0,1,1.121,3.489v1.037H83.619a2.36,2.36,0,0,0,.743,1.494,2.245,2.245,0,0,0,1.569.563,2.742,2.742,0,0,0,2.294-1.063l1.248,1.4a3.813,3.813,0,0,1-1.547,1.261A5.075,5.075,0,0,1,85.764,42.176Zm-.29-7.813a1.587,1.587,0,0,0-1.226.512,2.651,2.651,0,0,0-.6,1.466h3.533v-.2a1.891,1.891,0,0,0-.457-1.311A1.638,1.638,0,0,0,85.474,34.362Zm7.98-1.872.079,1.1a3.32,3.32,0,0,1,2.733-1.274,2.759,2.759,0,0,1,2.25.888,4.142,4.142,0,0,1,.756,2.654V42h-2.54V35.918a1.648,1.648,0,0,0-.352-1.173,1.574,1.574,0,0,0-1.169-.365,1.747,1.747,0,0,0-1.608.914V42h-2.54V32.49ZM103.878,42h-2.549V32.49h2.549Zm-2.7-11.971a1.251,1.251,0,0,1,.382-.94,1.648,1.648,0,0,1,2.079,0,1.342,1.342,0,0,1,0,1.89,1.629,1.629,0,0,1-2.065,0A1.247,1.247,0,0,1,101.18,30.029Zm7.172,2.461.079,1.063a3.342,3.342,0,0,1,2.733-1.239,2.536,2.536,0,0,1,2.522,1.45,3.265,3.265,0,0,1,2.856-1.45,2.836,2.836,0,0,1,2.3.9,4.141,4.141,0,0,1,.756,2.711V42h-2.549V35.936a1.811,1.811,0,0,0-.316-1.182,1.4,1.4,0,0,0-1.116-.374,1.585,1.585,0,0,0-1.582,1.09l.009,6.53h-2.54V35.944a1.789,1.789,0,0,0-.325-1.2,1.416,1.416,0,0,0-1.107-.369,1.646,1.646,0,0,0-1.564.9V42h-2.54V32.49ZM124.233,42h-2.549V32.49h2.549Zm-2.7-11.971a1.251,1.251,0,0,1,.382-.94,1.648,1.648,0,0,1,2.079,0,1.342,1.342,0,0,1,0,1.89,1.629,1.629,0,0,1-2.065,0A1.247,1.247,0,0,1,121.535,30.029ZM130.7,42.176a4.668,4.668,0,0,1-3.406-1.283,4.561,4.561,0,0,1-1.314-3.419v-.246a5.745,5.745,0,0,1,.554-2.562,4.064,4.064,0,0,1,1.569-1.74,4.4,4.4,0,0,1,2.316-.611,3.947,3.947,0,0,1,3.072,1.23,5,5,0,0,1,1.121,3.489v1.037h-6.056a2.36,2.36,0,0,0,.743,1.494,2.245,2.245,0,0,0,1.569.563,2.742,2.742,0,0,0,2.294-1.063l1.248,1.4a3.813,3.813,0,0,1-1.547,1.261A5.075,5.075,0,0,1,130.7,42.176Zm-.29-7.813a1.587,1.587,0,0,0-1.226.512,2.651,2.651,0,0,0-.6,1.466h3.533v-.2a1.891,1.891,0,0,0-.457-1.311A1.638,1.638,0,0,0,130.412,34.362Zm7.98-1.872.079,1.1a3.32,3.32,0,0,1,2.733-1.274,2.759,2.759,0,0,1,2.25.888,4.142,4.142,0,0,1,.756,2.654V42h-2.54V35.918a1.648,1.648,0,0,0-.352-1.173,1.574,1.574,0,0,0-1.169-.365,1.747,1.747,0,0,0-1.608.914V42H136V32.49Zm10.784-2.338V32.49H150.8v1.863h-1.626V39.1a1.133,1.133,0,0,0,.2.756,1.015,1.015,0,0,0,.773.229,4.051,4.051,0,0,0,.747-.062v1.925a5.229,5.229,0,0,1-1.538.229,2.425,2.425,0,0,1-2.725-2.7V34.354h-1.389V32.49h1.389V30.152Zm2.382,7a5.64,5.64,0,0,1,.545-2.522,3.989,3.989,0,0,1,1.569-1.714,4.577,4.577,0,0,1,2.377-.606,4.33,4.33,0,0,1,3.142,1.178,4.727,4.727,0,0,1,1.358,3.2l.018.65a4.97,4.97,0,0,1-1.222,3.511,4.735,4.735,0,0,1-6.561,0,5.058,5.058,0,0,1-1.226-3.586Zm2.54.18a3.555,3.555,0,0,0,.51,2.073,1.831,1.831,0,0,0,2.9.009,3.89,3.89,0,0,0,.519-2.267,3.519,3.519,0,0,0-.519-2.06,1.686,1.686,0,0,0-1.459-.731,1.658,1.658,0,0,0-1.441.726A3.955,3.955,0,0,0,154.1,37.338Zm13.184,2.035a.818.818,0,0,0-.461-.734,5.241,5.241,0,0,0-1.481-.479q-3.393-.712-3.393-2.883A2.613,2.613,0,0,1,163,33.163a4.237,4.237,0,0,1,2.747-.848,4.56,4.56,0,0,1,2.9.853,2.687,2.687,0,0,1,1.085,2.215h-2.54a1.229,1.229,0,0,0-.352-.9,1.488,1.488,0,0,0-1.1-.356,1.52,1.52,0,0,0-.993.29.916.916,0,0,0-.352.738.783.783,0,0,0,.4.681,4.114,4.114,0,0,0,1.349.448,11.019,11.019,0,0,1,1.6.426,2.628,2.628,0,0,1,2.013,2.558,2.481,2.481,0,0,1-1.116,2.1,4.815,4.815,0,0,1-2.883.8,5.029,5.029,0,0,1-2.123-.426,3.561,3.561,0,0,1-1.455-1.169,2.716,2.716,0,0,1-.527-1.6h2.408a1.326,1.326,0,0,0,.5,1.037,1.987,1.987,0,0,0,1.248.36,1.839,1.839,0,0,0,1.1-.277A.861.861,0,0,0,167.282,39.372Z" transform="translate(886 825)" fill="#12263f"/>
    <path id="Trazado_118073" data-name="Trazado 118073" d="M5.871,13.827,8.771,4.2h2.936L7.251,17H4.5L.062,4.2H2.988Zm10.863,3.349a4.668,4.668,0,0,1-3.406-1.283,4.561,4.561,0,0,1-1.314-3.419v-.246a5.745,5.745,0,0,1,.554-2.562,4.064,4.064,0,0,1,1.569-1.74,4.4,4.4,0,0,1,2.316-.611,3.947,3.947,0,0,1,3.072,1.23,5,5,0,0,1,1.121,3.489v1.037H14.59a2.36,2.36,0,0,0,.743,1.494,2.245,2.245,0,0,0,1.569.563A2.742,2.742,0,0,0,19.2,14.064l1.248,1.4A3.813,3.813,0,0,1,18.9,16.723,5.075,5.075,0,0,1,16.734,17.176Zm-.29-7.813a1.587,1.587,0,0,0-1.226.512,2.651,2.651,0,0,0-.6,1.466h3.533v-.2a1.891,1.891,0,0,0-.457-1.311A1.638,1.638,0,0,0,16.444,9.362Zm7.98-1.872.079,1.1a3.32,3.32,0,0,1,2.733-1.274,2.759,2.759,0,0,1,2.25.888,4.142,4.142,0,0,1,.756,2.654V17H27.7V10.918a1.648,1.648,0,0,0-.352-1.173,1.574,1.574,0,0,0-1.169-.365,1.747,1.747,0,0,0-1.608.914V17h-2.54V7.49Zm11.7,7.638a1.666,1.666,0,0,0,1.143-.387,1.355,1.355,0,0,0,.457-1.028H40.1a3.258,3.258,0,0,1-.527,1.771,3.48,3.48,0,0,1-1.419,1.248,4.442,4.442,0,0,1-1.991.444,4.129,4.129,0,0,1-3.217-1.3A5.13,5.13,0,0,1,31.772,12.3v-.167a5.071,5.071,0,0,1,1.169-3.507,4.08,4.08,0,0,1,3.208-1.31A4,4,0,0,1,39.01,8.33a3.594,3.594,0,0,1,1.094,2.7H37.723a1.745,1.745,0,0,0-.457-1.206,1.7,1.7,0,0,0-2.5.183,3.749,3.749,0,0,0-.453,2.1v.264a3.8,3.8,0,0,0,.448,2.113A1.549,1.549,0,0,0,36.123,15.128ZM44.235,17H41.687V7.49h2.549Zm-2.7-11.971a1.251,1.251,0,0,1,.382-.94,1.648,1.648,0,0,1,2.079,0,1.244,1.244,0,0,1,.387.94,1.247,1.247,0,0,1-.391.949,1.629,1.629,0,0,1-2.065,0A1.247,1.247,0,0,1,41.537,5.029ZM48.709,7.49l.079,1.063a3.342,3.342,0,0,1,2.733-1.239,2.536,2.536,0,0,1,2.522,1.45A3.265,3.265,0,0,1,56.9,7.314a2.836,2.836,0,0,1,2.3.9,4.141,4.141,0,0,1,.756,2.711V17H57.41V10.936a1.811,1.811,0,0,0-.316-1.182,1.4,1.4,0,0,0-1.116-.374A1.585,1.585,0,0,0,54.4,10.47L54.4,17h-2.54V10.944a1.789,1.789,0,0,0-.325-1.2,1.416,1.416,0,0,0-1.107-.369,1.646,1.646,0,0,0-1.564.9V17h-2.54V7.49ZM64.591,17H62.042V7.49h2.549Zm-2.7-11.971a1.251,1.251,0,0,1,.382-.94,1.648,1.648,0,0,1,2.079,0,1.244,1.244,0,0,1,.387.94,1.247,1.247,0,0,1-.391.949,1.629,1.629,0,0,1-2.065,0A1.247,1.247,0,0,1,61.893,5.029ZM71.06,17.176a4.668,4.668,0,0,1-3.406-1.283,4.561,4.561,0,0,1-1.314-3.419v-.246a5.745,5.745,0,0,1,.554-2.562,4.064,4.064,0,0,1,1.569-1.74,4.4,4.4,0,0,1,2.316-.611,3.947,3.947,0,0,1,3.072,1.23,5,5,0,0,1,1.121,3.489v1.037H68.915a2.36,2.36,0,0,0,.743,1.494,2.245,2.245,0,0,0,1.569.563,2.742,2.742,0,0,0,2.294-1.063l1.248,1.4a3.813,3.813,0,0,1-1.547,1.261A5.075,5.075,0,0,1,71.06,17.176Zm-.29-7.813a1.587,1.587,0,0,0-1.226.512,2.651,2.651,0,0,0-.6,1.466h3.533v-.2a1.891,1.891,0,0,0-.457-1.311A1.638,1.638,0,0,0,70.77,9.362ZM78.75,7.49l.079,1.1a3.32,3.32,0,0,1,2.733-1.274,2.759,2.759,0,0,1,2.25.888,4.142,4.142,0,0,1,.756,2.654V17h-2.54V10.918a1.648,1.648,0,0,0-.352-1.173,1.574,1.574,0,0,0-1.169-.365,1.747,1.747,0,0,0-1.608.914V17h-2.54V7.49ZM89.534,5.152V7.49H91.16V9.354H89.534V14.1a1.133,1.133,0,0,0,.2.756,1.015,1.015,0,0,0,.773.229,4.051,4.051,0,0,0,.747-.062v1.925a5.229,5.229,0,0,1-1.538.229,2.425,2.425,0,0,1-2.725-2.7V9.354H85.605V7.49h1.389V5.152Zm2.382,7a5.64,5.64,0,0,1,.545-2.522A3.989,3.989,0,0,1,94.03,7.921a4.577,4.577,0,0,1,2.377-.606,4.33,4.33,0,0,1,3.142,1.178,4.727,4.727,0,0,1,1.358,3.2l.018.65A4.97,4.97,0,0,1,99.7,15.853a4.735,4.735,0,0,1-6.561,0,5.058,5.058,0,0,1-1.226-3.586Zm2.54.18a3.555,3.555,0,0,0,.51,2.073,1.831,1.831,0,0,0,2.9.009,3.89,3.89,0,0,0,.519-2.267,3.519,3.519,0,0,0-.519-2.06,1.686,1.686,0,0,0-1.459-.731,1.658,1.658,0,0,0-1.441.726A3.955,3.955,0,0,0,94.456,12.338Zm12.12-.163a5.731,5.731,0,0,1,1-3.542A3.237,3.237,0,0,1,110.3,7.314,2.913,2.913,0,0,1,112.6,8.352V3.5h2.549V17h-2.294l-.123-1.011a2.989,2.989,0,0,1-2.443,1.187,3.228,3.228,0,0,1-2.694-1.323A5.916,5.916,0,0,1,106.576,12.175Zm2.54.189a3.754,3.754,0,0,0,.466,2.051,1.517,1.517,0,0,0,1.354.713,1.7,1.7,0,0,0,1.661-.995V10.375a1.675,1.675,0,0,0-1.644-.995Q109.116,9.38,109.116,12.364Zm12.375,4.812a4.668,4.668,0,0,1-3.406-1.283,4.561,4.561,0,0,1-1.314-3.419v-.246a5.745,5.745,0,0,1,.554-2.562,4.064,4.064,0,0,1,1.569-1.74,4.4,4.4,0,0,1,2.316-.611,3.947,3.947,0,0,1,3.072,1.23,5,5,0,0,1,1.121,3.489v1.037h-6.056a2.36,2.36,0,0,0,.743,1.494,2.245,2.245,0,0,0,1.569.563,2.742,2.742,0,0,0,2.294-1.063l1.248,1.4a3.813,3.813,0,0,1-1.547,1.261A5.075,5.075,0,0,1,121.491,17.176Zm-.29-7.813a1.587,1.587,0,0,0-1.226.512,2.651,2.651,0,0,0-.6,1.466h3.533v-.2a1.891,1.891,0,0,0-.457-1.311A1.638,1.638,0,0,0,121.2,9.362ZM134.007,17h-2.549V3.5h2.549Zm4.772,0H136.23V7.49h2.549Zm-2.7-11.971a1.251,1.251,0,0,1,.382-.94,1.648,1.648,0,0,1,2.079,0,1.244,1.244,0,0,1,.387.94,1.247,1.247,0,0,1-.391.949,1.629,1.629,0,0,1-2.065,0A1.247,1.247,0,0,1,136.081,5.029Zm8.745,10.1a1.666,1.666,0,0,0,1.143-.387,1.355,1.355,0,0,0,.457-1.028h2.382a3.258,3.258,0,0,1-.527,1.771,3.48,3.48,0,0,1-1.419,1.248,4.442,4.442,0,0,1-1.991.444,4.129,4.129,0,0,1-3.217-1.3,5.13,5.13,0,0,1-1.178-3.582v-.167a5.071,5.071,0,0,1,1.169-3.507,4.08,4.08,0,0,1,3.208-1.31,4,4,0,0,1,2.861,1.015,3.594,3.594,0,0,1,1.094,2.7h-2.382a1.745,1.745,0,0,0-.457-1.206,1.7,1.7,0,0,0-2.5.183,3.749,3.749,0,0,0-.453,2.1v.264a3.8,3.8,0,0,0,.448,2.113A1.549,1.549,0,0,0,144.826,15.128Zm9.809,2.048a4.668,4.668,0,0,1-3.406-1.283,4.561,4.561,0,0,1-1.314-3.419v-.246a5.745,5.745,0,0,1,.554-2.562,4.064,4.064,0,0,1,1.569-1.74,4.4,4.4,0,0,1,2.316-.611,3.947,3.947,0,0,1,3.072,1.23,5,5,0,0,1,1.121,3.489v1.037H152.49a2.36,2.36,0,0,0,.743,1.494,2.245,2.245,0,0,0,1.569.563,2.742,2.742,0,0,0,2.294-1.063l1.248,1.4a3.813,3.813,0,0,1-1.547,1.261A5.075,5.075,0,0,1,154.635,17.176Zm-.29-7.813a1.587,1.587,0,0,0-1.226.512,2.651,2.651,0,0,0-.6,1.466h3.533v-.2a1.891,1.891,0,0,0-.457-1.311A1.638,1.638,0,0,0,154.345,9.362Zm7.98-1.872.079,1.1a3.32,3.32,0,0,1,2.733-1.274,2.759,2.759,0,0,1,2.25.888,4.142,4.142,0,0,1,.756,2.654V17H165.6V10.918a1.648,1.648,0,0,0-.352-1.173,1.574,1.574,0,0,0-1.169-.365,1.747,1.747,0,0,0-1.608.914V17h-2.54V7.49Zm11.7,7.638a1.666,1.666,0,0,0,1.143-.387,1.355,1.355,0,0,0,.457-1.028H178a3.258,3.258,0,0,1-.527,1.771,3.48,3.48,0,0,1-1.419,1.248,4.442,4.442,0,0,1-1.991.444,4.129,4.129,0,0,1-3.217-1.3,5.13,5.13,0,0,1-1.178-3.582v-.167a5.071,5.071,0,0,1,1.169-3.507,4.08,4.08,0,0,1,3.208-1.31,4,4,0,0,1,2.861,1.015,3.594,3.594,0,0,1,1.094,2.7h-2.382a1.745,1.745,0,0,0-.457-1.206,1.7,1.7,0,0,0-2.5.183,3.749,3.749,0,0,0-.453,2.1v.264a3.8,3.8,0,0,0,.448,2.113A1.549,1.549,0,0,0,174.023,15.128ZM182.136,17h-2.549V7.49h2.549Zm-2.7-11.971a1.251,1.251,0,0,1,.382-.94,1.648,1.648,0,0,1,2.079,0,1.244,1.244,0,0,1,.387.94,1.247,1.247,0,0,1-.391.949,1.629,1.629,0,0,1-2.065,0A1.247,1.247,0,0,1,179.438,5.029ZM189.738,17a2.821,2.821,0,0,1-.255-.853,3.073,3.073,0,0,1-2.4,1.028,3.376,3.376,0,0,1-2.316-.809,2.6,2.6,0,0,1-.918-2.039,2.687,2.687,0,0,1,1.121-2.32,5.529,5.529,0,0,1,3.239-.817h1.169v-.545a1.567,1.567,0,0,0-.338-1.055,1.331,1.331,0,0,0-1.068-.4,1.513,1.513,0,0,0-1.006.308,1.045,1.045,0,0,0-.365.844h-2.54a2.551,2.551,0,0,1,.51-1.529,3.37,3.37,0,0,1,1.441-1.1,5.253,5.253,0,0,1,2.092-.4,4.15,4.15,0,0,1,2.791.883,3.09,3.09,0,0,1,1.033,2.483V14.8a4.546,4.546,0,0,0,.378,2.048V17Zm-2.1-1.767a2.188,2.188,0,0,0,1.037-.25,1.645,1.645,0,0,0,.7-.672V12.676h-.949q-1.907,0-2.03,1.318l-.009.149a1.017,1.017,0,0,0,.334.782A1.3,1.3,0,0,0,187.638,15.233Zm11.391-.861a.818.818,0,0,0-.461-.734,5.241,5.241,0,0,0-1.481-.479q-3.393-.712-3.393-2.883a2.613,2.613,0,0,1,1.05-2.114,4.237,4.237,0,0,1,2.747-.848,4.56,4.56,0,0,1,2.9.853,2.687,2.687,0,0,1,1.085,2.215h-2.54a1.229,1.229,0,0,0-.352-.9,1.488,1.488,0,0,0-1.1-.356,1.52,1.52,0,0,0-.993.29.916.916,0,0,0-.352.738.783.783,0,0,0,.4.681,4.114,4.114,0,0,0,1.349.448,11.019,11.019,0,0,1,1.6.426,2.628,2.628,0,0,1,2.013,2.558,2.481,2.481,0,0,1-1.116,2.1,4.815,4.815,0,0,1-2.883.8,5.029,5.029,0,0,1-2.123-.426,3.561,3.561,0,0,1-1.455-1.169,2.716,2.716,0,0,1-.527-1.6H195.8a1.326,1.326,0,0,0,.5,1.037,1.987,1.987,0,0,0,1.248.36,1.839,1.839,0,0,0,1.1-.277A.861.861,0,0,0,199.028,14.372Z" transform="translate(1051 898)" fill="#12263f"/>
    <path id="Trazado_118074" data-name="Trazado 118074" d="M11.654,10.892a7.725,7.725,0,0,1-.668,3.313,5.03,5.03,0,0,1-1.912,2.2,5.288,5.288,0,0,1-2.852.773,5.324,5.324,0,0,1-2.839-.765A5.08,5.08,0,0,1,1.45,14.227a7.5,7.5,0,0,1-.694-3.265v-.633A7.685,7.685,0,0,1,1.437,7,5.072,5.072,0,0,1,3.362,4.8a5.3,5.3,0,0,1,2.843-.769A5.3,5.3,0,0,1,9.048,4.8,5.072,5.072,0,0,1,10.973,7a7.663,7.663,0,0,1,.681,3.318Zm-2.672-.58a5.385,5.385,0,0,0-.721-3.059A2.349,2.349,0,0,0,6.205,6.207,2.349,2.349,0,0,0,4.157,7.24a5.324,5.324,0,0,0-.729,3.028v.624a5.453,5.453,0,0,0,.721,3.041,2.342,2.342,0,0,0,2.074,1.081,2.321,2.321,0,0,0,2.039-1.042,5.421,5.421,0,0,0,.721-3.037ZM14.1,17V9.354H12.683V7.49H14.1V6.682A3.283,3.283,0,0,1,15.016,4.2a3.557,3.557,0,0,1,2.571-.883,5.938,5.938,0,0,1,1.292.176L18.853,5.46a3.238,3.238,0,0,0-.773-.079q-1.433,0-1.433,1.345V7.49h1.89V9.354h-1.89V17ZM25.2,9.872a6.9,6.9,0,0,0-.914-.07,1.86,1.86,0,0,0-1.89.976V17h-2.54V7.49h2.4l.07,1.134a2.354,2.354,0,0,1,2.118-1.31,2.662,2.662,0,0,1,.791.114Zm5.432,7.3a4.668,4.668,0,0,1-3.406-1.283,4.561,4.561,0,0,1-1.314-3.419v-.246a5.745,5.745,0,0,1,.554-2.562,4.064,4.064,0,0,1,1.569-1.74,4.4,4.4,0,0,1,2.316-.611,3.947,3.947,0,0,1,3.072,1.23,5,5,0,0,1,1.121,3.489v1.037H28.485a2.36,2.36,0,0,0,.743,1.494,2.245,2.245,0,0,0,1.569.563,2.742,2.742,0,0,0,2.294-1.063l1.248,1.4a3.813,3.813,0,0,1-1.547,1.261A5.075,5.075,0,0,1,30.63,17.176Zm-.29-7.813a1.587,1.587,0,0,0-1.226.512,2.651,2.651,0,0,0-.6,1.466h3.533v-.2a1.891,1.891,0,0,0-.457-1.311A1.638,1.638,0,0,0,30.34,9.362Zm9.6,5.766a1.666,1.666,0,0,0,1.143-.387,1.355,1.355,0,0,0,.457-1.028h2.382a3.258,3.258,0,0,1-.527,1.771,3.48,3.48,0,0,1-1.419,1.248,4.442,4.442,0,0,1-1.991.444,4.129,4.129,0,0,1-3.217-1.3A5.13,5.13,0,0,1,35.587,12.3v-.167a5.071,5.071,0,0,1,1.169-3.507,4.08,4.08,0,0,1,3.208-1.31A4,4,0,0,1,42.825,8.33a3.594,3.594,0,0,1,1.094,2.7H41.537a1.745,1.745,0,0,0-.457-1.206,1.7,1.7,0,0,0-2.5.183,3.749,3.749,0,0,0-.453,2.1v.264a3.8,3.8,0,0,0,.448,2.113A1.549,1.549,0,0,0,39.938,15.128ZM48.05,17H45.5V7.49H48.05Zm-2.7-11.971a1.251,1.251,0,0,1,.382-.94,1.648,1.648,0,0,1,2.079,0,1.244,1.244,0,0,1,.387.94,1.247,1.247,0,0,1-.391.949,1.629,1.629,0,0,1-2.065,0A1.247,1.247,0,0,1,45.352,5.029ZM52.523,7.49,52.6,8.554a3.342,3.342,0,0,1,2.733-1.239,2.536,2.536,0,0,1,2.522,1.45,3.265,3.265,0,0,1,2.856-1.45,2.836,2.836,0,0,1,2.3.9,4.141,4.141,0,0,1,.756,2.711V17H61.225V10.936a1.811,1.811,0,0,0-.316-1.182,1.4,1.4,0,0,0-1.116-.374,1.585,1.585,0,0,0-1.582,1.09L58.219,17h-2.54V10.944a1.789,1.789,0,0,0-.325-1.2,1.416,1.416,0,0,0-1.107-.369,1.646,1.646,0,0,0-1.564.9V17h-2.54V7.49ZM68.405,17H65.856V7.49h2.549Zm-2.7-11.971a1.251,1.251,0,0,1,.382-.94,1.648,1.648,0,0,1,2.079,0,1.244,1.244,0,0,1,.387.94,1.247,1.247,0,0,1-.391.949,1.629,1.629,0,0,1-2.065,0A1.247,1.247,0,0,1,65.707,5.029Zm9.167,12.146a4.668,4.668,0,0,1-3.406-1.283,4.561,4.561,0,0,1-1.314-3.419v-.246a5.745,5.745,0,0,1,.554-2.562,4.064,4.064,0,0,1,1.569-1.74,4.4,4.4,0,0,1,2.316-.611,3.947,3.947,0,0,1,3.072,1.23,5,5,0,0,1,1.121,3.489v1.037H72.729a2.36,2.36,0,0,0,.743,1.494,2.245,2.245,0,0,0,1.569.563,2.742,2.742,0,0,0,2.294-1.063l1.248,1.4a3.813,3.813,0,0,1-1.547,1.261A5.075,5.075,0,0,1,74.874,17.176Zm-.29-7.813a1.587,1.587,0,0,0-1.226.512,2.651,2.651,0,0,0-.6,1.466h3.533v-.2a1.891,1.891,0,0,0-.457-1.311A1.638,1.638,0,0,0,74.584,9.362Zm7.98-1.872.079,1.1a3.32,3.32,0,0,1,2.733-1.274,2.759,2.759,0,0,1,2.25.888,4.142,4.142,0,0,1,.756,2.654V17h-2.54V10.918a1.648,1.648,0,0,0-.352-1.173,1.574,1.574,0,0,0-1.169-.365,1.747,1.747,0,0,0-1.608.914V17h-2.54V7.49ZM93.349,5.152V7.49h1.626V9.354H93.349V14.1a1.133,1.133,0,0,0,.2.756,1.015,1.015,0,0,0,.773.229,4.051,4.051,0,0,0,.747-.062v1.925a5.229,5.229,0,0,1-1.538.229,2.425,2.425,0,0,1-2.725-2.7V9.354H89.42V7.49h1.389V5.152Zm2.382,7a5.64,5.64,0,0,1,.545-2.522,3.989,3.989,0,0,1,1.569-1.714,4.577,4.577,0,0,1,2.377-.606,4.33,4.33,0,0,1,3.142,1.178,4.727,4.727,0,0,1,1.358,3.2l.018.65a4.97,4.97,0,0,1-1.222,3.511,4.735,4.735,0,0,1-6.561,0,5.058,5.058,0,0,1-1.226-3.586Zm2.54.18a3.555,3.555,0,0,0,.51,2.073,1.831,1.831,0,0,0,2.9.009,3.89,3.89,0,0,0,.519-2.267,3.519,3.519,0,0,0-.519-2.06,1.686,1.686,0,0,0-1.459-.731,1.658,1.658,0,0,0-1.441.726A3.955,3.955,0,0,0,98.271,12.338Zm12.12-.163a5.731,5.731,0,0,1,1-3.542,3.237,3.237,0,0,1,2.729-1.318,2.913,2.913,0,0,1,2.294,1.037V3.5h2.549V17h-2.294l-.123-1.011a2.989,2.989,0,0,1-2.443,1.187,3.228,3.228,0,0,1-2.694-1.323A5.916,5.916,0,0,1,110.391,12.175Zm2.54.189a3.754,3.754,0,0,0,.466,2.051,1.517,1.517,0,0,0,1.354.713,1.7,1.7,0,0,0,1.661-.995V10.375a1.675,1.675,0,0,0-1.644-.995Q112.931,9.38,112.931,12.364Zm12.375,4.812a4.668,4.668,0,0,1-3.406-1.283,4.561,4.561,0,0,1-1.314-3.419v-.246a5.745,5.745,0,0,1,.554-2.562,4.064,4.064,0,0,1,1.569-1.74,4.4,4.4,0,0,1,2.316-.611,3.947,3.947,0,0,1,3.072,1.23,5,5,0,0,1,1.121,3.489v1.037h-6.056a2.36,2.36,0,0,0,.743,1.494,2.245,2.245,0,0,0,1.569.563,2.742,2.742,0,0,0,2.294-1.063l1.248,1.4a3.813,3.813,0,0,1-1.547,1.261A5.075,5.075,0,0,1,125.306,17.176Zm-.29-7.813a1.587,1.587,0,0,0-1.226.512,2.651,2.651,0,0,0-.6,1.466h3.533v-.2a1.891,1.891,0,0,0-.457-1.311A1.638,1.638,0,0,0,125.016,9.362ZM137.479,7.49l.079,1.1a3.32,3.32,0,0,1,2.733-1.274,2.759,2.759,0,0,1,2.25.888,4.142,4.142,0,0,1,.756,2.654V17h-2.54V10.918a1.648,1.648,0,0,0-.352-1.173,1.574,1.574,0,0,0-1.169-.365,1.747,1.747,0,0,0-1.608.914V17h-2.54V7.49Zm13.438,8.543a3.185,3.185,0,0,1-2.6,1.143,3,3,0,0,1-2.333-.879,3.752,3.752,0,0,1-.822-2.575V7.49h2.54v6.151q0,1.487,1.354,1.487a1.834,1.834,0,0,0,1.775-.9V7.49h2.549V17h-2.391Zm8.754,1.143a4.668,4.668,0,0,1-3.406-1.283,4.561,4.561,0,0,1-1.314-3.419v-.246a5.745,5.745,0,0,1,.554-2.562,4.064,4.064,0,0,1,1.569-1.74,4.4,4.4,0,0,1,2.316-.611,3.947,3.947,0,0,1,3.072,1.23,5,5,0,0,1,1.121,3.489v1.037h-6.056a2.36,2.36,0,0,0,.743,1.494,2.245,2.245,0,0,0,1.569.563,2.742,2.742,0,0,0,2.294-1.063l1.248,1.4a3.813,3.813,0,0,1-1.547,1.261A5.075,5.075,0,0,1,159.671,17.176Zm-.29-7.813a1.587,1.587,0,0,0-1.226.512,2.651,2.651,0,0,0-.6,1.466h3.533v-.2a1.891,1.891,0,0,0-.457-1.311A1.638,1.638,0,0,0,159.381,9.362Zm9.088,4.535,1.767-6.407h2.654L169.682,17h-2.426l-3.208-9.51H166.7Zm5.01-1.74a5.64,5.64,0,0,1,.545-2.522,3.989,3.989,0,0,1,1.569-1.714,4.577,4.577,0,0,1,2.377-.606,4.33,4.33,0,0,1,3.142,1.178,4.727,4.727,0,0,1,1.358,3.2l.018.65a4.97,4.97,0,0,1-1.222,3.511,4.735,4.735,0,0,1-6.561,0,5.058,5.058,0,0,1-1.226-3.586Zm2.54.18a3.555,3.555,0,0,0,.51,2.073,1.831,1.831,0,0,0,2.9.009,3.89,3.89,0,0,0,.519-2.267,3.519,3.519,0,0,0-.519-2.06,1.686,1.686,0,0,0-1.459-.731,1.658,1.658,0,0,0-1.441.726A3.955,3.955,0,0,0,176.019,12.338ZM189.2,14.372a.818.818,0,0,0-.461-.734,5.241,5.241,0,0,0-1.481-.479q-3.393-.712-3.393-2.883a2.613,2.613,0,0,1,1.05-2.114,4.237,4.237,0,0,1,2.747-.848,4.56,4.56,0,0,1,2.9.853,2.687,2.687,0,0,1,1.085,2.215h-2.54a1.229,1.229,0,0,0-.352-.9,1.488,1.488,0,0,0-1.1-.356,1.52,1.52,0,0,0-.993.29.916.916,0,0,0-.352.738.783.783,0,0,0,.4.681,4.114,4.114,0,0,0,1.349.448,11.019,11.019,0,0,1,1.6.426,2.628,2.628,0,0,1,2.013,2.558,2.481,2.481,0,0,1-1.116,2.1,4.815,4.815,0,0,1-2.883.8,5.029,5.029,0,0,1-2.123-.426,3.561,3.561,0,0,1-1.455-1.169,2.716,2.716,0,0,1-.527-1.6h2.408a1.326,1.326,0,0,0,.5,1.037,1.987,1.987,0,0,0,1.248.36,1.839,1.839,0,0,0,1.1-.277A.861.861,0,0,0,189.2,14.372ZM9.536,37.333a5.7,5.7,0,0,1-1,3.52,3.2,3.2,0,0,1-2.694,1.323,2.963,2.963,0,0,1-2.329-1v4.482H.976V32.49H3.331l.088.932a2.985,2.985,0,0,1,2.408-1.107,3.22,3.22,0,0,1,2.733,1.3A5.858,5.858,0,0,1,9.536,37.2ZM7,37.148a3.743,3.743,0,0,0-.47-2.048,1.532,1.532,0,0,0-1.367-.721,1.663,1.663,0,0,0-1.644.914v3.894a1.692,1.692,0,0,0,1.661.94Q7,40.128,7,37.148Zm9.457-2.276a6.9,6.9,0,0,0-.914-.07,1.86,1.86,0,0,0-1.89.976V42h-2.54V32.49h2.4l.07,1.134a2.354,2.354,0,0,1,2.118-1.31,2.662,2.662,0,0,1,.791.114Zm.51,2.285a5.64,5.64,0,0,1,.545-2.522,3.989,3.989,0,0,1,1.569-1.714,4.577,4.577,0,0,1,2.377-.606A4.33,4.33,0,0,1,24.6,33.492a4.727,4.727,0,0,1,1.358,3.2l.018.65a4.97,4.97,0,0,1-1.222,3.511,4.247,4.247,0,0,1-3.278,1.323,4.268,4.268,0,0,1-3.283-1.318,5.058,5.058,0,0,1-1.226-3.586Zm2.54.18a3.555,3.555,0,0,0,.51,2.073,1.831,1.831,0,0,0,2.9.009,3.89,3.89,0,0,0,.519-2.267,3.519,3.519,0,0,0-.519-2.06,1.686,1.686,0,0,0-1.459-.731,1.658,1.658,0,0,0-1.441.726A3.955,3.955,0,0,0,19.5,37.338Zm7.638-.163a5.731,5.731,0,0,1,1-3.542,3.237,3.237,0,0,1,2.729-1.318,2.913,2.913,0,0,1,2.294,1.037V28.5H35.71V42H33.416l-.123-1.011a2.989,2.989,0,0,1-2.443,1.187,3.228,3.228,0,0,1-2.694-1.323A5.916,5.916,0,0,1,27.141,37.175Zm2.54.189a3.754,3.754,0,0,0,.466,2.051,1.517,1.517,0,0,0,1.354.713,1.7,1.7,0,0,0,1.661-.995V35.375a1.675,1.675,0,0,0-1.644-.995Q29.681,34.38,29.681,37.364Zm13.693,3.669a3.185,3.185,0,0,1-2.6,1.143,3,3,0,0,1-2.333-.879,3.752,3.752,0,0,1-.822-2.575V32.49h2.54v6.151q0,1.487,1.354,1.487a1.834,1.834,0,0,0,1.775-.9V32.49h2.549V42H43.444Zm8.332-.905a1.666,1.666,0,0,0,1.143-.387,1.355,1.355,0,0,0,.457-1.028h2.382a3.258,3.258,0,0,1-.527,1.771,3.48,3.48,0,0,1-1.419,1.248,4.442,4.442,0,0,1-1.991.444,4.129,4.129,0,0,1-3.217-1.3A5.13,5.13,0,0,1,47.355,37.3v-.167a5.071,5.071,0,0,1,1.169-3.507,4.08,4.08,0,0,1,3.208-1.31,4,4,0,0,1,2.861,1.015,3.594,3.594,0,0,1,1.094,2.7H53.306a1.745,1.745,0,0,0-.457-1.206,1.7,1.7,0,0,0-2.5.183,3.749,3.749,0,0,0-.453,2.1v.264a3.8,3.8,0,0,0,.448,2.113A1.549,1.549,0,0,0,51.706,40.128Zm8.473-9.976V32.49H61.8v1.863H60.179V39.1a1.133,1.133,0,0,0,.2.756,1.015,1.015,0,0,0,.773.229,4.051,4.051,0,0,0,.747-.062v1.925a5.229,5.229,0,0,1-1.538.229,2.425,2.425,0,0,1-2.725-2.7V34.354H56.25V32.49h1.389V30.152Zm2.382,7a5.64,5.64,0,0,1,.545-2.522,3.989,3.989,0,0,1,1.569-1.714,4.577,4.577,0,0,1,2.377-.606,4.33,4.33,0,0,1,3.142,1.178,4.727,4.727,0,0,1,1.358,3.2l.018.65a4.97,4.97,0,0,1-1.222,3.511,4.735,4.735,0,0,1-6.561,0,5.058,5.058,0,0,1-1.226-3.586Zm2.54.18a3.555,3.555,0,0,0,.51,2.073,1.831,1.831,0,0,0,2.9.009,3.89,3.89,0,0,0,.519-2.267,3.519,3.519,0,0,0-.519-2.06,1.686,1.686,0,0,0-1.459-.731,1.658,1.658,0,0,0-1.441.726A3.955,3.955,0,0,0,65.1,37.338Zm13.184,2.035a.818.818,0,0,0-.461-.734,5.241,5.241,0,0,0-1.481-.479q-3.393-.712-3.393-2.883A2.613,2.613,0,0,1,74,33.163a4.237,4.237,0,0,1,2.747-.848,4.56,4.56,0,0,1,2.9.853,2.687,2.687,0,0,1,1.085,2.215h-2.54a1.229,1.229,0,0,0-.352-.9,1.488,1.488,0,0,0-1.1-.356,1.52,1.52,0,0,0-.993.29.916.916,0,0,0-.352.738.783.783,0,0,0,.4.681,4.114,4.114,0,0,0,1.349.448,11.019,11.019,0,0,1,1.6.426,2.628,2.628,0,0,1,2.013,2.558,2.481,2.481,0,0,1-1.116,2.1,4.815,4.815,0,0,1-2.883.8,5.029,5.029,0,0,1-2.123-.426,3.561,3.561,0,0,1-1.455-1.169,2.716,2.716,0,0,1-.527-1.6h2.408a1.326,1.326,0,0,0,.5,1.037,1.987,1.987,0,0,0,1.248.36,1.839,1.839,0,0,0,1.1-.277A.861.861,0,0,0,78.284,39.372Zm8.191-2.215a5.64,5.64,0,0,1,.545-2.522,3.989,3.989,0,0,1,1.569-1.714,4.577,4.577,0,0,1,2.377-.606,4.33,4.33,0,0,1,3.142,1.178,4.727,4.727,0,0,1,1.358,3.2l.018.65a4.97,4.97,0,0,1-1.222,3.511,4.735,4.735,0,0,1-6.561,0,5.058,5.058,0,0,1-1.226-3.586Zm2.54.18a3.555,3.555,0,0,0,.51,2.073,1.831,1.831,0,0,0,2.9.009,3.89,3.89,0,0,0,.519-2.267,3.519,3.519,0,0,0-.519-2.06,1.686,1.686,0,0,0-1.459-.731,1.658,1.658,0,0,0-1.441.726A3.955,3.955,0,0,0,89.016,37.338Zm17.666,2.035a.818.818,0,0,0-.461-.734,5.241,5.241,0,0,0-1.481-.479q-3.393-.712-3.393-2.883a2.613,2.613,0,0,1,1.05-2.114,4.237,4.237,0,0,1,2.747-.848,4.56,4.56,0,0,1,2.9.853,2.687,2.687,0,0,1,1.085,2.215h-2.54a1.229,1.229,0,0,0-.352-.9,1.488,1.488,0,0,0-1.1-.356,1.52,1.52,0,0,0-.993.29.916.916,0,0,0-.352.738.783.783,0,0,0,.4.681,4.114,4.114,0,0,0,1.349.448,11.019,11.019,0,0,1,1.6.426,2.628,2.628,0,0,1,2.013,2.558,2.481,2.481,0,0,1-1.116,2.1,4.815,4.815,0,0,1-2.883.8,5.029,5.029,0,0,1-2.123-.426,3.561,3.561,0,0,1-1.455-1.169,2.716,2.716,0,0,1-.527-1.6h2.408a1.326,1.326,0,0,0,.5,1.037,1.987,1.987,0,0,0,1.248.36,1.839,1.839,0,0,0,1.1-.277A.861.861,0,0,0,106.682,39.372Zm8.481,2.8a4.668,4.668,0,0,1-3.406-1.283,4.561,4.561,0,0,1-1.314-3.419v-.246A5.745,5.745,0,0,1,111,34.666a4.064,4.064,0,0,1,1.569-1.74,4.4,4.4,0,0,1,2.316-.611,3.947,3.947,0,0,1,3.072,1.23,5,5,0,0,1,1.121,3.489v1.037h-6.056a2.36,2.36,0,0,0,.743,1.494,2.245,2.245,0,0,0,1.569.563,2.742,2.742,0,0,0,2.294-1.063l1.248,1.4a3.813,3.813,0,0,1-1.547,1.261A5.075,5.075,0,0,1,115.163,42.176Zm-.29-7.813a1.587,1.587,0,0,0-1.226.512,2.651,2.651,0,0,0-.6,1.466h3.533v-.2a1.891,1.891,0,0,0-.457-1.311A1.638,1.638,0,0,0,114.873,34.362Zm10.986.51a6.9,6.9,0,0,0-.914-.07,1.86,1.86,0,0,0-1.89.976V42h-2.54V32.49h2.4l.07,1.134a2.354,2.354,0,0,1,2.118-1.31,2.662,2.662,0,0,1,.791.114ZM130.8,38.9l1.767-6.407h2.654L132.012,42h-2.426l-3.208-9.51h2.654Zm8.218,3.1h-2.549V32.49h2.549Zm-2.7-11.971a1.251,1.251,0,0,1,.382-.94,1.648,1.648,0,0,1,2.079,0,1.342,1.342,0,0,1,0,1.89,1.629,1.629,0,0,1-2.065,0A1.247,1.247,0,0,1,136.318,30.029Zm8.745,10.1a1.666,1.666,0,0,0,1.143-.387,1.355,1.355,0,0,0,.457-1.028h2.382a3.258,3.258,0,0,1-.527,1.771,3.48,3.48,0,0,1-1.419,1.248,4.442,4.442,0,0,1-1.991.444,4.129,4.129,0,0,1-3.217-1.3,5.13,5.13,0,0,1-1.178-3.582v-.167a5.071,5.071,0,0,1,1.169-3.507,4.08,4.08,0,0,1,3.208-1.31,4,4,0,0,1,2.861,1.015,3.594,3.594,0,0,1,1.094,2.7h-2.382a1.745,1.745,0,0,0-.457-1.206,1.7,1.7,0,0,0-2.5.183,3.749,3.749,0,0,0-.453,2.1v.264a3.8,3.8,0,0,0,.448,2.113A1.549,1.549,0,0,0,145.063,40.128ZM153.176,42h-2.549V32.49h2.549Zm-2.7-11.971a1.251,1.251,0,0,1,.382-.94,1.648,1.648,0,0,1,2.079,0,1.342,1.342,0,0,1,0,1.89,1.629,1.629,0,0,1-2.065,0A1.247,1.247,0,0,1,150.478,30.029Zm4.395,7.128a5.64,5.64,0,0,1,.545-2.522,3.989,3.989,0,0,1,1.569-1.714,4.577,4.577,0,0,1,2.377-.606,4.33,4.33,0,0,1,3.142,1.178,4.727,4.727,0,0,1,1.358,3.2l.018.65a4.97,4.97,0,0,1-1.222,3.511,4.735,4.735,0,0,1-6.561,0,5.058,5.058,0,0,1-1.226-3.586Zm2.54.18a3.555,3.555,0,0,0,.51,2.073,1.831,1.831,0,0,0,2.9.009,3.89,3.89,0,0,0,.519-2.267,3.519,3.519,0,0,0-.519-2.06,1.686,1.686,0,0,0-1.459-.731,1.658,1.658,0,0,0-1.441.726A3.955,3.955,0,0,0,157.412,37.338ZM170.6,39.372a.818.818,0,0,0-.461-.734,5.241,5.241,0,0,0-1.481-.479q-3.393-.712-3.393-2.883a2.613,2.613,0,0,1,1.05-2.114,4.237,4.237,0,0,1,2.747-.848,4.56,4.56,0,0,1,2.9.853,2.687,2.687,0,0,1,1.085,2.215H170.5a1.229,1.229,0,0,0-.352-.9,1.488,1.488,0,0,0-1.1-.356,1.52,1.52,0,0,0-.993.29.916.916,0,0,0-.352.738.783.783,0,0,0,.4.681,4.114,4.114,0,0,0,1.349.448,11.019,11.019,0,0,1,1.6.426,2.628,2.628,0,0,1,2.013,2.558,2.481,2.481,0,0,1-1.116,2.1,4.815,4.815,0,0,1-2.883.8,5.029,5.029,0,0,1-2.123-.426,3.561,3.561,0,0,1-1.455-1.169,2.716,2.716,0,0,1-.527-1.6h2.408a1.326,1.326,0,0,0,.5,1.037,1.987,1.987,0,0,0,1.248.36,1.839,1.839,0,0,0,1.1-.277A.861.861,0,0,0,170.6,39.372Z" transform="translate(1141 988)" fill="#12263f"/>
  </g>
</svg>
