<svg xmlns="http://www.w3.org/2000/svg" width="243.187" height="281.848" viewBox="0 0 243.187 281.848">
  <g id="Grupo_81686" data-name="Grupo 81686" transform="translate(3551.992 7251.508)">
    <g id="Grupo_81673" data-name="Grupo 81673" transform="translate(-4299.613 -7251.508)">
      <path id="Trazado_118030" data-name="Trazado 118030" d="M1066.335,108.151A93.042,93.042,0,1,1,1008.7,22.03,93.11,93.11,0,0,1,1066.335,108.151Z" transform="translate(-119.491 -2.041)" fill="#00cca7"/>
      <path id="Trazado_118031" data-name="Trazado 118031" d="M971.241,212.229h-.061c-1.435,0-2.886-.026-4.321-.086l.035-.873c1.417.06,2.861.086,4.286.086Zm4.382-.1-.035-.873c1.443-.06,2.9-.147,4.339-.268l.069.873C978.544,211.987,977.074,212.074,975.623,212.134Zm-13.145-.259c-1.452-.121-2.921-.268-4.364-.441l.1-.864c1.426.173,2.887.32,4.33.441l-.069.873Zm21.882-.458-.1-.864c1.426-.173,2.878-.389,4.3-.622l.147.864c-1.435.242-2.9.449-4.338.631Zm-30.585-.6c-1.443-.233-2.887-.51-4.313-.8l.182-.856c1.409.294,2.843.562,4.278.8l-.138.864Zm39.227-.83-.181-.856c1.409-.294,2.835-.622,4.235-.977l.216.847C995.863,209.352,994.428,209.689,993,209.982Zm-47.809-.959c-1.409-.354-2.835-.743-4.226-1.158l.251-.838c1.383.415,2.792.8,4.192,1.149Zm56.3-1.193-.251-.838c1.383-.415,2.774-.856,4.14-1.322l.285.83c-1.374.475-2.774.925-4.174,1.34Zm-64.714-1.3c-1.383-.475-2.774-.985-4.131-1.512l.32-.812c1.348.527,2.722,1.028,4.1,1.5Zm73-1.547-.32-.812c1.348-.527,2.7-1.089,4.01-1.668l.354.8c-1.331.588-2.688,1.149-4.045,1.677ZM928.6,203.328c-1.34-.588-2.679-1.21-3.984-1.849l.38-.786c1.3.631,2.627,1.253,3.95,1.832l-.354.8Zm89.215-1.875-.38-.786c1.3-.64,2.6-1.3,3.863-2l.415.769C1020.442,200.13,1019.128,200.8,1017.814,201.452Zm-97.105-1.979c-1.288-.7-2.567-1.426-3.82-2.169l.449-.752c1.236.735,2.506,1.461,3.785,2.152Zm104.814-2.2-.449-.752c1.245-.743,2.48-1.521,3.682-2.307l.475.726c-1.21.8-2.463,1.582-3.716,2.325Zm-112.35-2.3c-1.219-.8-2.437-1.633-3.621-2.48l.51-.709c1.175.838,2.385,1.668,3.6,2.454l-.475.735Zm119.679-2.506-.51-.709c1.167-.838,2.342-1.711,3.483-2.6l.536.691c-1.15.9-2.334,1.78-3.518,2.627Zm-126.817-2.6c-1.141-.89-2.29-1.824-3.405-2.766l.562-.665c1.106.933,2.238,1.858,3.379,2.74Zm133.74-2.791-.562-.665c1.106-.933,2.2-1.9,3.258-2.878l.588.64C1041.987,185.162,1040.881,186.138,1039.774,187.08ZM899.345,184.2c-1.072-.994-2.143-2.014-3.163-3.033l.614-.614c1.02,1.02,2.074,2.031,3.137,3.008Zm146.876-3.068-.614-.614c1.02-1.02,2.031-2.074,3.008-3.137l.639.588C1048.27,179.043,1047.25,180.106,1046.222,181.134ZM893.14,178c-.985-1.072-1.962-2.178-2.9-3.284l.665-.562c.933,1.1,1.9,2.2,2.878,3.258Zm159.019-3.319-.666-.562c.933-1.1,1.858-2.238,2.748-3.379l.691.536c-.9,1.149-1.823,2.29-2.766,3.405Zm-164.7-3.362c-.89-1.149-1.78-2.325-2.619-3.509l.709-.51c.838,1.175,1.711,2.342,2.6,3.483Zm170.081-3.552-.709-.51c.838-1.175,1.668-2.385,2.454-3.587l.726.475c-.8,1.219-1.625,2.437-2.48,3.621ZM882.363,164.2c-.8-1.227-1.59-2.48-2.325-3.708l.752-.449c.734,1.227,1.5,2.463,2.307,3.682l-.726.475Zm179.985-3.768-.752-.449c.734-1.227,1.461-2.5,2.152-3.777l.769.415C1063.817,157.9,1063.091,159.192,1062.348,160.427Zm-184.479-3.742c-.7-1.279-1.374-2.593-2.005-3.889l.786-.38c.631,1.288,1.305,2.584,2,3.854l-.769.415Zm188.662-3.967-.786-.38c.64-1.314,1.253-2.636,1.832-3.95l.8.354C1067.8,150.065,1067.179,151.4,1066.531,152.718Zm-192.516-3.889c-.579-1.322-1.149-2.679-1.677-4.036l.812-.32c.527,1.348,1.089,2.688,1.668,4Zm196.042-4.14-.812-.32c.527-1.34,1.028-2.714,1.5-4.088l.821.285c-.475,1.383-.985,2.766-1.512,4.122Zm-199.231-4.01c-.475-1.383-.925-2.791-1.339-4.174l.838-.251c.406,1.374.856,2.766,1.331,4.14l-.821.285Zm202.083-4.278-.838-.251c.415-1.383.8-2.8,1.15-4.192l.847.216C1073.713,133.584,1073.324,135.01,1072.909,136.4ZM868.32,132.279c-.363-1.417-.692-2.852-.994-4.269l.856-.181c.294,1.409.622,2.826.985,4.235Zm206.733-4.382-.856-.181c.294-1.409.562-2.843.8-4.278l.864.147c-.242,1.443-.51,2.9-.8,4.313Zm-208.539-4.192c-.242-1.426-.449-2.887-.631-4.338l.864-.1c.181,1.435.389,2.887.622,4.3l-.864.147Zm209.974-4.459-.864-.1c.173-1.426.328-2.887.441-4.33l.873.069C1076.815,116.343,1076.668,117.812,1076.487,119.247ZM865.433,115c-.121-1.435-.207-2.912-.277-4.373l.873-.035c.06,1.452.156,2.912.268,4.338l-.873.069Zm211.771-4.5-.873-.035c.06-1.443.086-2.9.086-4.347h.873C1077.291,107.571,1077.265,109.049,1077.2,110.5ZM865.943,106.24h-.873v-.121c0-1.417.026-2.852.086-4.269l.873.035c-.052,1.4-.086,2.826-.086,4.226Zm210.38-4.693c-.061-1.443-.156-2.9-.276-4.338l.873-.069c.121,1.452.216,2.921.277,4.373Zm-210.043-4-.873-.069c.121-1.461.268-2.921.441-4.364l.864.1c-.173,1.426-.32,2.878-.441,4.33ZM1075.6,92.879c-.182-1.426-.389-2.869-.631-4.3l.864-.147c.242,1.443.458,2.9.631,4.338ZM867.334,88.912l-.864-.138c.233-1.443.51-2.9.8-4.313l.856.181c-.294,1.409-.562,2.843-.8,4.278ZM1074.154,84.3c-.294-1.409-.631-2.835-.985-4.235l.847-.216c.363,1.409.692,2.852.994,4.269ZM869.1,80.391l-.847-.216c.354-1.426.752-2.852,1.158-4.235l.838.251C869.841,77.565,869.452,78.982,869.1,80.391ZM1072.01,75.88c-.415-1.383-.864-2.766-1.331-4.131l.821-.285c.475,1.374.925,2.774,1.339,4.166l-.838.251ZM871.569,72.042l-.821-.285c.475-1.383.976-2.774,1.5-4.122l.813.32C872.546,69.294,872.036,70.677,871.569,72.042Zm197.607-4.364c-.527-1.34-1.089-2.688-1.668-4.01l.8-.354c.588,1.331,1.158,2.688,1.685,4.045ZM874.723,63.927l-.8-.354c.579-1.322,1.2-2.67,1.841-3.984l.786.38c-.64,1.3-1.253,2.636-1.832,3.95Zm190.943-4.192c-.631-1.279-1.305-2.575-2-3.854l.769-.415c.7,1.288,1.374,2.6,2.014,3.889l-.786.389Zm-187.124-3.63-.769-.415c.691-1.27,1.417-2.558,2.169-3.82l.752.449C879.952,53.565,879.226,54.844,878.543,56.106Zm182.975-4c-.743-1.244-1.521-2.48-2.307-3.682l.726-.475c.8,1.21,1.582,2.463,2.325,3.716l-.752.449ZM883,48.63l-.735-.475c.8-1.219,1.625-2.437,2.472-3.621l.709.51c-.838,1.175-1.668,2.385-2.454,3.6Zm173.745-3.794c-.838-1.167-1.711-2.342-2.61-3.483l.683-.536c.9,1.149,1.78,2.333,2.627,3.509l-.709.51ZM888.058,41.544l-.691-.536c.89-1.149,1.823-2.29,2.766-3.405l.666.562C889.865,39.271,888.94,40.4,888.058,41.544Zm163.34-3.561c-.933-1.1-1.9-2.187-2.887-3.258l.64-.588c.994,1.072,1.97,2.178,2.9,3.284l-.666.562ZM893.676,34.9l-.64-.588c.977-1.063,2.005-2.135,3.033-3.163l.614.614c-1.02,1.028-2.04,2.083-3.008,3.146Zm151.82-3.31c-1.02-1.02-2.074-2.031-3.137-3.008l.588-.64c1.072.985,2.143,2.005,3.172,3.033l-.614.622ZM899.821,28.736l-.588-.64c1.063-.985,2.169-1.962,3.284-2.9l.562.665c-1.106.942-2.2,1.91-3.258,2.887ZM1039.092,25.7c-1.1-.933-2.238-1.849-3.379-2.74l.536-.691c1.149.9,2.3,1.824,3.4,2.766ZM906.449,23.11l-.536-.691c1.149-.9,2.325-1.78,3.509-2.627l.51.709c-1.175.838-2.342,1.72-3.483,2.6Zm125.772-2.748c-1.175-.838-2.385-1.659-3.6-2.454l.475-.735c1.227.8,2.446,1.633,3.621,2.472l-.51.709ZM913.51,18.045l-.475-.726c1.219-.8,2.463-1.582,3.716-2.325l.449.752c-1.236.743-2.472,1.521-3.682,2.307Zm111.425-2.437c-1.236-.735-2.515-1.461-3.785-2.152l.415-.769c1.288.691,2.567,1.426,3.82,2.169ZM920.969,13.586l-.415-.769c1.279-.691,2.584-1.374,3.889-2.014l.389.786C923.535,12.229,922.239,12.894,920.969,13.586Zm96.31-2.117c-1.3-.631-2.627-1.253-3.949-1.832l.346-.8c1.331.588,2.679,1.2,3.984,1.841l-.38.786Zm-88.515-1.72-.354-.8c.769-.337,1.547-.674,2.325-.994.57-.233,1.149-.467,1.729-.691l.32.812c-.57.225-1.141.449-1.711.683Q929.9,9.243,928.764,9.749ZM1009.3,7.977c-1.348-.527-2.722-1.028-4.088-1.5l.285-.83c1.374.467,2.766.977,4.122,1.5l-.32.812Zm-72.44-1.4-.285-.821c1.374-.475,2.783-.925,4.174-1.34l.251.838c-1.383.415-2.774.864-4.14,1.331Zm64.2-1.409c-1.383-.406-2.8-.8-4.2-1.149l.216-.847c1.409.354,2.835.743,4.235,1.158Zm-55.873-1.08-.216-.847c1.409-.354,2.852-.691,4.269-.994l.182.856C948.019,3.4,946.593,3.733,945.193,4.088Zm47.438-1.037c-1.409-.294-2.852-.562-4.278-.8l.138-.864c1.435.233,2.886.5,4.312.8l-.181.856Zm-38.925-.743-.147-.864c1.435-.242,2.9-.449,4.338-.631l.1.864c-1.435.181-2.878.389-4.3.631Zm30.343-.665c-1.435-.173-2.9-.32-4.33-.441l.069-.873c1.452.112,2.921.268,4.364.441l-.1.864Zm-21.709-.415L962.27.354c1.452-.121,2.921-.216,4.373-.277l.035.873c-1.443.06-2.9.156-4.339.268ZM975.38.942c-1.391-.052-2.8-.086-4.2-.086h-.147V0h.147c1.409,0,2.835.026,4.235.086l-.035.873Z" transform="translate(-117.449)" fill="gray"/>
      <path id="Trazado_118032" data-name="Trazado 118032" d="M1124.321,128.623l-19.065-13.093V121.8h-18.875a99.134,99.134,0,0,1-99.136,99.136v6.542h-.026v61.689a4.2,4.2,0,1,0,.882,0V234.016a112.2,112.2,0,0,0,110.552-98.669h6.611v6.369l19.065-13.093Z" transform="translate(-133.522 -15.686)" fill="#00cca7"/>
      <path id="Trazado_118043" data-name="Trazado 118043" d="M1006.3,136c-1.573-3.288-7.216-7.853-12.671-12.263-3.04-2.458-5.914-4.783-7.745-6.614a1.674,1.674,0,0,0-1.752-.392c-1.129.409-1.825.723-2.374.968a5.545,5.545,0,0,1-2.248.616,1.673,1.673,0,0,0-1.226.734c-2.367,3.54-4.819,3.238-6.457,2.689-.522-.174-.616-.4-.666-.613-.352-1.47,1.413-4.892,3.7-7.18,5.442-5.445,8.248-6.808,14.176-4.159,6.727,3.007,13.46,5.361,13.529,5.385a1.676,1.676,0,0,0,1.106-3.165c-.069-.023-6.672-2.331-13.265-5.281-7.68-3.433-11.893-1.173-17.91,4.849-2.29,2.29-5.4,6.925-4.6,10.324a4.142,4.142,0,0,0,2.876,3.018c3.795,1.252,7.257.054,9.836-3.369a8.443,8.443,0,0,0,2.515-.8c.314-.14.684-.3,1.172-.5,1.916,1.8,4.5,3.892,7.224,6.092,4.925,3.982,10.508,8.5,11.761,11.108a1.952,1.952,0,0,1-.5,2.515,1.835,1.835,0,0,1-2.057.405,1.674,1.674,0,0,0-2.619,1.557,2.028,2.028,0,0,1-1.288,1.886,2.555,2.555,0,0,1-2.6.06,1.7,1.7,0,0,0-1.741-.341,1.674,1.674,0,0,0-1.072,1.41,3.183,3.183,0,0,1-1.976,2.566,1.767,1.767,0,0,1-1.922-.3,1.7,1.7,0,0,0-1.531-.389,1.671,1.671,0,0,0-1.175,1.055c-.064.168-.208.57-1.775.57a9.637,9.637,0,0,1-4.1-1.4c-1.175-.773-8.546-6.273-14.912-11.6-.894-.754-2.441-2.368-3.808-3.794-1.213-1.266-2.321-2.415-2.89-2.9a1.675,1.675,0,0,0-2.164,2.558c.519.439,1.524,1.5,2.632,2.656,1.494,1.561,3.038,3.175,4.076,4.045,6.235,5.221,13.731,10.857,15.224,11.838a12.845,12.845,0,0,0,5.944,1.949,5.76,5.76,0,0,0,3.8-1.118,5.213,5.213,0,0,0,3.808-.04,6.609,6.609,0,0,0,3.488-3.218,6.477,6.477,0,0,0,4.2-.606,5.711,5.711,0,0,0,2.8-2.92,5.465,5.465,0,0,0,3.837-1.377A5.314,5.314,0,0,0,1006.3,136Z" transform="translate(-129.599 -14.271)" fill="#fff"/>
      <path id="Trazado_118044" data-name="Trazado 118044" d="M977.119,108.749H962.05a1.674,1.674,0,1,0,0,3.349h15.07a1.674,1.674,0,1,0,0-3.349Z" transform="translate(-130.388 -14.765)" fill="#fff"/>
      <path id="Trazado_118046" data-name="Trazado 118046" d="M1006.075,144.341c-1.2-.945-6.56-6.433-9.876-9.889a1.675,1.675,0,0,0-2.418,2.318c.861.9,8.457,8.811,10.219,10.2a1.661,1.661,0,0,0,1.028.359,1.7,1.7,0,0,0,1.322-.64A1.676,1.676,0,0,0,1006.075,144.341Z" transform="translate(-134.86 -18.184)" fill="#fff"/>
      <path id="Trazado_118047" data-name="Trazado 118047" d="M998.6,148.49c-2.008-1.6-7.048-6.96-8.187-8.2a1.676,1.676,0,1,0-2.468,2.267c.06.064,6.076,6.557,8.56,8.546a1.675,1.675,0,0,0,2.095-2.615Z" transform="translate(-134.071 -18.974)" fill="#fff"/>
      <path id="Trazado_118048" data-name="Trazado 118048" d="M990.879,152.388c-2.388-2.013-7.274-7.214-8.228-8.235a1.675,1.675,0,0,0-2.448,2.288c1.373,1.47,6.048,6.426,8.516,8.509a1.676,1.676,0,0,0,2.161-2.562Z" transform="translate(-133.019 -19.499)" fill="#fff"/>
      <path id="Trazado_118049" data-name="Trazado 118049" d="M960.57,104.807c-2.869-2.72-14.346-3.6-17.8-3.8A1.672,1.672,0,0,0,941,102.673v30.14a1.675,1.675,0,0,0,1.675,1.675h10.047a1.672,1.672,0,0,0,1.59-1.155c.245-.75,6.015-18.459,6.775-27.166A1.662,1.662,0,0,0,960.57,104.807ZM951.5,131.139h-7.15V104.468c5.382.425,11.188,1.35,13.3,2.375C956.76,114.177,952.745,127.207,951.5,131.139Z" transform="translate(-127.758 -13.713)" fill="#fff"/>
      <path id="Trazado_118050" data-name="Trazado 118050" d="M1028.65,104.874c-13.145,0-20.439,3.365-20.742,3.506a1.664,1.664,0,0,0-.709,2.4c2.066,3.332,8.547,21.838,9.792,26.353a1.677,1.677,0,0,0,1.616,1.229h10.042a1.677,1.677,0,0,0,1.677-1.675v-30.14A1.674,1.674,0,0,0,1028.65,104.874Zm-1.677,30.14h-7.112c-1.59-5.171-6.283-18.654-8.893-24.226a54.551,54.551,0,0,1,16.006-2.545Z" transform="translate(-136.711 -14.238)" fill="#fff"/>
    </g>
  </g>
</svg>
