<svg xmlns="http://www.w3.org/2000/svg" width="243.186" height="281.848" viewBox="0 0 243.186 281.848">
  <g id="Grupo_81688" data-name="Grupo 81688" transform="translate(-996.822)">
    <path id="Trazado_118034" data-name="Trazado 118034" d="M1354.685,108.151a93.042,93.042,0,1,1-57.635-86.121A93.11,93.11,0,0,1,1354.685,108.151Z" transform="translate(-158.64 -2.041)" fill="#ea5e86"/>
    <g id="Grupo_81681" data-name="Grupo 81681">
      <path id="Trazado_118034-2" data-name="Trazado 118034" d="M1354.685,108.151a93.042,93.042,0,1,1-57.635-86.121A93.11,93.11,0,0,1,1354.685,108.151Z" transform="translate(-158.64 -2.041)" fill="#ea5e86"/>
      <path id="Trazado_118035" data-name="Trazado 118035" d="M1259.591,212.229h-.061c-1.434,0-2.886-.026-4.321-.086l.035-.873c1.417.06,2.861.086,4.286.086Zm4.382-.1-.035-.873c1.443-.06,2.9-.147,4.338-.268l.069.873C1266.894,211.987,1265.424,212.074,1263.973,212.134Zm-13.145-.259c-1.452-.121-2.921-.268-4.365-.441l.1-.864c1.426.173,2.887.32,4.33.441l-.069.873Zm21.882-.458-.1-.864c1.426-.173,2.878-.389,4.3-.622l.147.864c-1.435.242-2.9.449-4.339.631Zm-30.585-.6c-1.443-.233-2.887-.51-4.313-.8l.182-.856c1.409.294,2.843.562,4.278.8l-.138.864Zm39.228-.83-.182-.856c1.409-.294,2.835-.622,4.235-.977l.216.847C1284.213,209.352,1282.778,209.689,1281.352,209.982Zm-47.809-.959c-1.409-.354-2.835-.743-4.226-1.158l.251-.838c1.383.415,2.791.8,4.192,1.149Zm56.3-1.193-.251-.838c1.383-.415,2.774-.856,4.14-1.322l.285.83c-1.374.475-2.774.925-4.174,1.34Zm-64.714-1.3c-1.383-.475-2.774-.985-4.131-1.512l.32-.812c1.348.527,2.722,1.028,4.1,1.5Zm73-1.547-.32-.812c1.348-.527,2.7-1.089,4.01-1.668l.354.8c-1.331.588-2.688,1.149-4.045,1.677Zm-81.186-1.651c-1.34-.588-2.679-1.21-3.984-1.849l.38-.786c1.3.631,2.627,1.253,3.95,1.832l-.354.8Zm89.215-1.875-.38-.786c1.3-.64,2.6-1.3,3.863-2l.415.769C1308.792,200.13,1307.478,200.8,1306.164,201.452Zm-97.105-1.979c-1.288-.7-2.567-1.426-3.82-2.169l.449-.752c1.236.735,2.506,1.461,3.785,2.152Zm104.814-2.2-.449-.752c1.245-.743,2.48-1.521,3.682-2.307l.475.726c-1.21.8-2.463,1.582-3.716,2.325Zm-112.35-2.3c-1.218-.8-2.437-1.633-3.621-2.48l.51-.709c1.175.838,2.385,1.668,3.6,2.454l-.475.735Zm119.679-2.506-.51-.709c1.167-.838,2.342-1.711,3.483-2.6l.536.691c-1.149.9-2.333,1.78-3.517,2.627Zm-126.818-2.6c-1.141-.89-2.29-1.824-3.405-2.766l.562-.665c1.106.933,2.238,1.858,3.379,2.74Zm133.74-2.791-.562-.665c1.106-.933,2.2-1.9,3.258-2.878l.588.64C1330.337,185.162,1329.231,186.138,1328.125,187.08ZM1187.7,184.2c-1.072-.994-2.143-2.014-3.163-3.033l.613-.614c1.02,1.02,2.074,2.031,3.137,3.008Zm146.876-3.068-.614-.614c1.02-1.02,2.031-2.074,3.008-3.137l.64.588C1336.62,179.043,1335.6,180.106,1334.572,181.134ZM1181.49,178c-.985-1.072-1.962-2.178-2.9-3.284l.666-.562c.933,1.1,1.9,2.2,2.878,3.258Zm159.019-3.319-.665-.562c.933-1.1,1.858-2.238,2.748-3.379l.691.536c-.9,1.149-1.823,2.29-2.766,3.405Zm-164.7-3.362c-.89-1.149-1.78-2.325-2.619-3.509l.708-.51c.838,1.175,1.711,2.342,2.6,3.483Zm170.081-3.552-.709-.51c.838-1.175,1.668-2.385,2.454-3.587l.726.475c-.8,1.219-1.625,2.437-2.48,3.621Zm-175.18-3.569c-.8-1.227-1.59-2.48-2.325-3.708l.752-.449c.735,1.227,1.5,2.463,2.308,3.682l-.726.475Zm179.985-3.768-.752-.449c.735-1.227,1.461-2.5,2.152-3.777l.769.415C1352.167,157.9,1351.441,159.192,1350.7,160.427Zm-184.479-3.742c-.7-1.279-1.374-2.593-2-3.889l.786-.38c.631,1.288,1.305,2.584,2,3.854l-.769.415Zm188.662-3.967-.786-.38c.639-1.314,1.253-2.636,1.832-3.95l.8.354C1356.151,150.065,1355.529,151.4,1354.881,152.718Zm-192.516-3.889c-.579-1.322-1.15-2.679-1.677-4.036l.813-.32c.527,1.348,1.089,2.688,1.668,4Zm196.042-4.14-.812-.32c.527-1.34,1.028-2.714,1.5-4.088l.821.285c-.475,1.383-.985,2.766-1.512,4.122Zm-199.232-4.01c-.475-1.383-.925-2.791-1.339-4.174l.838-.251c.406,1.374.855,2.766,1.331,4.14l-.821.285Zm202.083-4.278-.838-.251c.415-1.383.8-2.8,1.15-4.192l.847.216C1362.063,133.584,1361.674,135.01,1361.259,136.4Zm-204.59-4.122c-.363-1.417-.691-2.852-.994-4.269l.855-.181c.294,1.409.622,2.826.985,4.235ZM1363.4,127.9l-.855-.181c.294-1.409.562-2.843.8-4.278l.864.147c-.242,1.443-.51,2.9-.8,4.313Zm-208.539-4.192c-.242-1.426-.449-2.887-.631-4.338l.864-.1c.181,1.435.389,2.887.622,4.3l-.864.147Zm209.974-4.459-.864-.1c.173-1.426.328-2.887.441-4.33l.873.069C1365.166,116.343,1365.019,117.812,1364.837,119.247ZM1153.783,115c-.121-1.435-.207-2.912-.276-4.373l.873-.035c.06,1.452.156,2.912.268,4.338l-.873.069Zm211.771-4.5-.873-.035c.06-1.443.086-2.9.086-4.347h.873C1365.641,107.571,1365.615,109.049,1365.554,110.5Zm-211.262-4.261h-.873v-.121c0-1.417.026-2.852.086-4.269l.873.035c-.052,1.4-.086,2.826-.086,4.226Zm210.38-4.693c-.061-1.443-.156-2.9-.276-4.338l.873-.069c.121,1.452.216,2.921.277,4.373Zm-210.043-4-.873-.069c.121-1.461.268-2.921.441-4.364l.864.1c-.173,1.426-.32,2.878-.441,4.33Zm209.317-4.667c-.181-1.426-.389-2.869-.631-4.3l.864-.147c.242,1.443.458,2.9.631,4.338Zm-208.263-3.967-.864-.138c.233-1.443.51-2.9.8-4.313l.856.181c-.294,1.409-.562,2.843-.8,4.278ZM1362.5,84.3c-.294-1.409-.631-2.835-.985-4.235l.847-.216c.363,1.409.691,2.852.994,4.269Zm-205.056-3.906-.847-.216c.354-1.426.752-2.852,1.158-4.235l.838.251C1158.19,77.565,1157.8,78.982,1157.447,80.391ZM1360.36,75.88c-.415-1.383-.864-2.766-1.331-4.131l.821-.285c.475,1.374.925,2.774,1.339,4.166l-.838.251Zm-200.441-3.837-.821-.285c.475-1.383.977-2.774,1.5-4.122l.813.32C1160.9,69.294,1160.386,70.677,1159.919,72.042Zm197.607-4.364c-.527-1.34-1.089-2.688-1.668-4.01l.8-.354c.588,1.331,1.158,2.688,1.685,4.045Zm-194.452-3.751-.8-.354c.579-1.322,1.2-2.67,1.841-3.984l.786.38c-.64,1.3-1.253,2.636-1.832,3.95Zm190.943-4.192c-.631-1.279-1.3-2.575-2-3.854l.769-.415c.7,1.288,1.374,2.6,2.014,3.889l-.786.389Zm-187.123-3.63-.769-.415c.691-1.27,1.417-2.558,2.169-3.82l.752.449C1168.3,53.565,1167.576,54.844,1166.893,56.106Zm182.975-4c-.743-1.244-1.521-2.48-2.307-3.682l.726-.475c.8,1.21,1.582,2.463,2.325,3.716l-.752.449ZM1171.353,48.63l-.735-.475c.8-1.219,1.625-2.437,2.472-3.621l.709.51c-.838,1.175-1.668,2.385-2.454,3.6ZM1345.1,44.836c-.838-1.167-1.711-2.342-2.61-3.483l.683-.536c.9,1.149,1.78,2.333,2.627,3.509l-.709.51Zm-168.689-3.293-.692-.536c.89-1.149,1.824-2.29,2.766-3.405l.666.562C1178.215,39.271,1177.29,40.4,1176.409,41.544Zm163.34-3.561c-.933-1.1-1.9-2.187-2.887-3.258l.64-.588c.994,1.072,1.97,2.178,2.9,3.284l-.666.562ZM1182.026,34.9l-.639-.588c.977-1.063,2-2.135,3.033-3.163l.614.614c-1.02,1.028-2.04,2.083-3.008,3.146Zm151.82-3.31c-1.02-1.02-2.074-2.031-3.137-3.008l.588-.64c1.072.985,2.143,2.005,3.172,3.033l-.614.622Zm-145.675-2.852-.588-.64c1.063-.985,2.169-1.962,3.284-2.9l.562.665c-1.106.942-2.2,1.91-3.258,2.887ZM1327.442,25.7c-1.1-.933-2.238-1.849-3.379-2.74l.536-.691c1.149.9,2.3,1.824,3.405,2.766ZM1194.8,23.11l-.536-.691c1.149-.9,2.325-1.78,3.509-2.627l.51.709c-1.175.838-2.342,1.72-3.483,2.6Zm125.772-2.748c-1.175-.838-2.385-1.659-3.6-2.454l.475-.735c1.227.8,2.446,1.633,3.621,2.472l-.51.709ZM1201.86,18.045l-.475-.726c1.219-.8,2.463-1.582,3.716-2.325l.449.752c-1.236.743-2.472,1.521-3.682,2.307Zm111.426-2.437c-1.236-.735-2.515-1.461-3.785-2.152l.415-.769c1.288.691,2.567,1.426,3.82,2.169Zm-103.967-2.022-.415-.769c1.279-.691,2.584-1.374,3.889-2.014l.389.786C1211.885,12.229,1210.589,12.894,1209.318,13.586Zm96.31-2.117c-1.3-.631-2.627-1.253-3.95-1.832l.346-.8c1.331.588,2.679,1.2,3.984,1.841l-.38.786Zm-88.515-1.72-.354-.8c.769-.337,1.547-.674,2.325-.994.57-.233,1.149-.467,1.729-.691l.32.812c-.57.225-1.141.449-1.711.683Q1218.255,9.243,1217.114,9.749Zm80.538-1.772c-1.348-.527-2.722-1.028-4.088-1.5l.285-.83c1.374.467,2.766.977,4.122,1.5l-.32.812Zm-72.44-1.4-.285-.821c1.374-.475,2.783-.925,4.174-1.34l.251.838c-1.383.415-2.774.864-4.14,1.331Zm64.2-1.409c-1.383-.406-2.8-.8-4.2-1.149l.216-.847c1.409.354,2.834.743,4.235,1.158Zm-55.873-1.08-.216-.847c1.409-.354,2.852-.691,4.269-.994l.182.856C1236.369,3.4,1234.943,3.733,1233.543,4.088Zm47.438-1.037c-1.409-.294-2.852-.562-4.278-.8l.138-.864c1.435.233,2.886.5,4.313.8l-.181.856Zm-38.925-.743-.147-.864c1.435-.242,2.9-.449,4.339-.631l.1.864c-1.435.181-2.878.389-4.3.631Zm30.343-.665c-1.435-.173-2.9-.32-4.33-.441l.069-.873c1.452.112,2.921.268,4.364.441l-.1.864Zm-21.71-.415-.069-.873c1.452-.121,2.921-.216,4.373-.277l.035.873c-1.443.06-2.9.156-4.339.268Zm13.042-.285c-1.392-.052-2.8-.086-4.2-.086h-.147V0h.147c1.409,0,2.835.026,4.235.086l-.034.873Z" transform="translate(-156.598)" fill="gray"/>
      <path id="Trazado_118036" data-name="Trazado 118036" d="M1412.671,128.623l-19.065-13.093V121.8h-18.875a99.134,99.134,0,0,1-99.136,99.136v6.542h-.026v61.689a4.2,4.2,0,1,0,.882,0V234.016A112.2,112.2,0,0,0,1387,135.347h6.611v6.369l19.065-13.093Z" transform="translate(-172.671 -15.686)" fill="#ea5e86"/>
      <path id="Trazado_118051" data-name="Trazado 118051" d="M1302.741,115.159a8.548,8.548,0,0,0-5.263-7.9,24.482,24.482,0,0,0-48.241,0,8.571,8.571,0,0,0,2.74,16.445,24.866,24.866,0,0,0,3.6,5.631,7.355,7.355,0,0,0-4.261,6.634v9.794h4.9v-9.794a2.449,2.449,0,0,1,2.446-2.449h1.3a20.78,20.78,0,0,0,26.8,0h1.288a2.449,2.449,0,0,1,2.446,2.449v9.794h4.9v-9.794a7.333,7.333,0,0,0-4.252-6.638,25.182,25.182,0,0,0,3.6-5.632,8.577,8.577,0,0,0,8-8.544Zm-9.187,3.607-2.048-.362-.691,1.958c-2.238,6.359-9.792,13.161-17.458,13.161s-15.219-6.807-17.457-13.164l-.691-1.941-2.031.342a3.821,3.821,0,0,1-.631.071,3.672,3.672,0,0,1-2.886-5.872,3.64,3.64,0,0,1,2.221-1.4l1.806-.316.19-1.822a19.5,19.5,0,0,1,10.042-15.081,9.447,9.447,0,0,0-.354,2.456,9.792,9.792,0,1,0,19.584,0h-4.892a4.9,4.9,0,1,1-4.9-4.9,19.534,19.534,0,0,1,19.48,17.508l.19,1.822,1.806.326a3.679,3.679,0,0,1,2.964,3.939,3.668,3.668,0,0,1-3.63,3.34,3.789,3.789,0,0,1-.614-.063Z" transform="translate(-168.895 -11.812)" fill="#fff"/>
      <path id="Trazado_118052" data-name="Trazado 118052" d="M1270.313,122.682a3.673,3.673,0,1,0-3.673-3.673A3.677,3.677,0,0,0,1270.313,122.682Z" transform="translate(-171.969 -15.659)" fill="#fff"/>
    </g>
  </g>
</svg>
