<svg xmlns="http://www.w3.org/2000/svg" width="330.143" height="351.349" viewBox="0 0 330.143 351.349">
  <g id="Grupo_81643" data-name="Grupo 81643" transform="translate(-200.929 -5271)">
    <g id="Group_4_1_" data-name="Group 4 (1)" transform="translate(200.929 5271)">
      <path id="Trazado_115464" data-name="Trazado 115464" d="M13.853,217.706h3.194a1.507,1.507,0,0,1,1.5,1.5v3.506a1.507,1.507,0,0,1-1.5,1.5H13.853a1.511,1.511,0,0,1-1.512-1.512V219.2a1.507,1.507,0,0,1,1.5-1.5Z" transform="translate(-5.142 -90.717)" fill="#4c5155"/>
      <path id="Trazado_115465" data-name="Trazado 115465" d="M106.912,217.712h3.194a1.511,1.511,0,0,1,1.512,1.512v3.506a1.507,1.507,0,0,1-1.5,1.5H106.92a1.5,1.5,0,0,1-1.5-1.5v-3.506a1.507,1.507,0,0,1,1.5-1.5Z" transform="translate(-43.928 -90.722)" fill="#4c5155"/>
      <path id="Trazado_115466" data-name="Trazado 115466" d="M7.984,75.558H71.053a3.018,3.018,0,0,1,3.016,3.016v80.151a3.018,3.018,0,0,1-3.016,3.016H7.984a3.018,3.018,0,0,1-3.016-3.016V78.566A3.018,3.018,0,0,1,7.984,75.55Z" transform="translate(-2.07 -31.482)" fill="#b8c7d8"/>
      <path id="Trazado_115467" data-name="Trazado 115467" d="M4.968,160.872a3.018,3.018,0,0,0,3.016,3.016H71.053a3.018,3.018,0,0,0,3.016-3.016V80.721Z" transform="translate(-2.07 -33.637)" fill="#a3b5c6"/>
      <path id="Trazado_115468" data-name="Trazado 115468" d="M7.984,77.615H71.053a3.018,3.018,0,0,1,3.016,3.016v7a3.018,3.018,0,0,1-3.016,3.016H7.984a3.018,3.018,0,0,1-3.016-3.016V80.623a3.018,3.018,0,0,1,3.016-3.016Z" transform="translate(-2.07 -32.339)" fill="#8da3b5"/>
      <path id="Trazado_115469" data-name="Trazado 115469" d="M70.151,137.182a20.859,20.859,0,1,1-20.859-20.859A20.855,20.855,0,0,1,70.151,137.182Z" transform="translate(-11.848 -48.473)" fill="#8da3b5"/>
      <path id="Trazado_115470" data-name="Trazado 115470" d="M70.151,134.083a20.859,20.859,0,1,1-20.859-20.86A20.855,20.855,0,0,1,70.151,134.083Z" transform="translate(-11.848 -47.181)" fill="#ebecf0"/>
      <path id="Trazado_115471" data-name="Trazado 115471" d="M67.646,140.372A12.06,12.06,0,1,1,55.59,128.316,12.057,12.057,0,0,1,67.646,140.372Z" transform="translate(-18.137 -53.47)" fill="#3a4245"/>
      <path id="Trazado_115472" data-name="Trazado 115472" d="M66.653,135.61a8.944,8.944,0,0,0-12.656,0l12.656,12.656A8.952,8.952,0,0,0,66.653,135.61Z" transform="translate(-22.501 -55.417)" fill="#767a7d"/>
      <path id="Trazado_115473" data-name="Trazado 115473" d="M7.984,75.558H71.053a3.018,3.018,0,0,1,3.016,3.016v7a3.018,3.018,0,0,1-3.016,3.016H7.984a3.018,3.018,0,0,1-3.016-3.016V78.566A3.018,3.018,0,0,1,7.984,75.55Z" transform="translate(-2.07 -31.482)" fill="#4c5155"/>
      <path id="Trazado_115474" data-name="Trazado 115474" d="M49.322,80.721H64.158a3.018,3.018,0,0,1,3.016,3.016v1.386a3.018,3.018,0,0,1-3.016,3.016H49.322a3.018,3.018,0,0,1-3.016-3.016V83.737A3.018,3.018,0,0,1,49.322,80.721Z" transform="translate(-19.296 -33.637)" fill="#9dd6e5"/>
      <path id="Trazado_115475" data-name="Trazado 115475" d="M58.2,85.611h-1.74l.439-2.5h1.74Zm-1.318-.363H57.9l.313-1.774H57.195Z" transform="translate(-23.527 -34.633)" fill="#fff"/>
      <path id="Trazado_115476" data-name="Trazado 115476" d="M57.548,89.276h-1.74l.439-2.5h1.74Zm-1.318-.363h1.022l.313-1.783H56.543Z" transform="translate(-23.256 -36.16)" fill="#fff"/>
      <path id="Trazado_115477" data-name="Trazado 115477" d="M64.4,85.611h-1.74l.439-2.5h1.74Zm-1.318-.363H64.1l.313-1.774H63.394Z" transform="translate(-26.11 -34.633)" fill="#fff"/>
      <path id="Trazado_115478" data-name="Trazado 115478" d="M63.747,89.276h-1.74l.439-2.5h1.74Zm-1.318-.363h1.022l.313-1.783H62.742Z" transform="translate(-25.839 -36.16)" fill="#fff"/>
      <path id="Trazado_115479" data-name="Trazado 115479" d="M70.584,85.611h-1.74l.439-2.5h1.74Zm-1.318-.363h1.022l.313-1.774H69.579Z" transform="translate(-28.688 -34.633)" fill="#fff"/>
      <path id="Trazado_115480" data-name="Trazado 115480" d="M69.947,89.276h-1.74l.439-2.5h1.74Zm-1.318-.363h1.022l.313-1.783H68.941Z" transform="translate(-28.422 -36.16)" fill="#fff"/>
      <path id="Trazado_115481" data-name="Trazado 115481" d="M96.158,83.907h7.418a1.51,1.51,0,0,1,1.512,1.512v.693a1.5,1.5,0,0,1-1.5,1.5H96.167A1.511,1.511,0,0,1,94.654,86.1v-.693A1.5,1.5,0,0,1,96.158,83.907Z" transform="translate(-39.443 -34.965)" fill="#9dd6e5"/>
      <path id="Trazado_115482" data-name="Trazado 115482" d="M17.379,83.907H24.8a1.507,1.507,0,0,1,1.5,1.5V86.1a1.5,1.5,0,0,1-1.5,1.5H17.379a1.507,1.507,0,0,1-1.5-1.5v-.693A1.5,1.5,0,0,1,17.379,83.907Z" transform="translate(-6.615 -34.965)" fill="#9dd6e5"/>
      <path id="Trazado_115483" data-name="Trazado 115483" d="M163.664,255.415h-21a1,1,0,0,0-1.005,1.005v26.689a1,1,0,0,0,1.005,1.006h21a1.006,1.006,0,0,0,1.006-1.006V256.42A1.006,1.006,0,0,0,163.664,255.415Z" transform="translate(-59.029 -106.434)" fill="#4d5256"/>
      <path id="Trazado_115484" data-name="Trazado 115484" d="M194.95,255.415h21a1,1,0,0,1,1.005,1.005v26.689a1,1,0,0,1-1.005,1.006h-21a1,1,0,0,1-1.006-1.006V256.42A1,1,0,0,1,194.95,255.415Z" transform="translate(-80.818 -106.434)" fill="#4d5256"/>
      <path id="Trazado_115485" data-name="Trazado 115485" d="M137.861,401.908h3.21a1.52,1.52,0,0,1,1.521,1.521v3.523a1.52,1.52,0,0,1-1.521,1.521h-3.21a1.52,1.52,0,0,1-1.521-1.521v-3.523A1.52,1.52,0,0,1,137.861,401.908Z" transform="translate(-56.814 -167.478)" fill="#4c5155"/>
      <path id="Trazado_115486" data-name="Trazado 115486" d="M231.42,401.908h3.21a1.52,1.52,0,0,1,1.521,1.521v3.523a1.52,1.52,0,0,1-1.521,1.521h-3.21a1.511,1.511,0,0,1-1.512-1.512v-3.523a1.52,1.52,0,0,1,1.521-1.521Z" transform="translate(-95.805 -167.478)" fill="#4c5155"/>
      <path id="Trazado_115487" data-name="Trazado 115487" d="M131.943,258.963h63.423A3.036,3.036,0,0,1,198.4,262v80.6a3.036,3.036,0,0,1-3.033,3.033H131.943a3.036,3.036,0,0,1-3.033-3.033V262A3.036,3.036,0,0,1,131.943,258.963Z" transform="translate(-53.718 -107.912)" fill="#b8c7d8"/>
      <path id="Trazado_115488" data-name="Trazado 115488" d="M128.924,344.748a3.031,3.031,0,0,0,3.033,3.033H195.38a3.036,3.036,0,0,0,3.033-3.033v-80.6l-69.481,80.6Z" transform="translate(-53.724 -110.073)" fill="#a3b5c6"/>
      <path id="Trazado_115489" data-name="Trazado 115489" d="M135.882,290.38h58.835a3.036,3.036,0,0,1,3.033,3.033V337.5a3.036,3.036,0,0,1-3.033,3.033H135.882a3.036,3.036,0,0,1-3.033-3.033V293.413A3.036,3.036,0,0,1,135.882,290.38Z" transform="translate(-55.359 -121.004)" fill="#3a4245"/>
      <path id="Trazado_115490" data-name="Trazado 115490" d="M195.621,307.79H145.639v29.173h49.982Z" transform="translate(-60.689 -128.259)" fill="#4d5256"/>
      <path id="Trazado_115491" data-name="Trazado 115491" d="M195.621,340.379H145.639v1.309h49.982Z" transform="translate(-60.689 -141.839)" fill="#6a6f73"/>
      <path id="Trazado_115492" data-name="Trazado 115492" d="M187.115,307.037l-50.37,38h60.475v-38Z" transform="translate(-56.983 -127.945)" fill="#fff" opacity="0.2"/>
      <path id="Trazado_115493" data-name="Trazado 115493" d="M192.314,299.432v.017a2.332,2.332,0,0,1-2.552,2.019H143.718a2.332,2.332,0,0,1-2.551-2.019v-.017h-4.841V301c0,1.326,1.36,2.4,3.033,2.4h54.755c1.673,0,3.033-1.073,3.033-2.4v-1.571h-4.833Z" transform="translate(-56.808 -124.776)" fill="#212628"/>
      <path id="Trazado_115494" data-name="Trazado 115494" d="M197.167,298.424a1.305,1.305,0,0,1-1.309,1.31H137.664a1.309,1.309,0,1,1,0-2.619h58.194A1.305,1.305,0,0,1,197.167,298.424Z" transform="translate(-56.82 -123.81)" fill="#b8c7d8"/>
      <path id="Trazado_115495" data-name="Trazado 115495" d="M193.251,298.847a.717.717,0,0,1-.718.718H160.581a.718.718,0,1,1,0-1.436h31.952A.717.717,0,0,1,193.251,298.847Z" transform="translate(-66.616 -124.233)" fill="#fff"/>
      <path id="Trazado_115496" data-name="Trazado 115496" d="M150.33,272.408a3.113,3.113,0,1,1-3.117-3.117A3.108,3.108,0,0,1,150.33,272.408Z" transform="translate(-60.049 -112.216)" fill="#3a4245"/>
      <path id="Trazado_115497" data-name="Trazado 115497" d="M169.841,272.408a3.113,3.113,0,1,1-3.11-3.117A3.107,3.107,0,0,1,169.841,272.408Z" transform="translate(-68.179 -112.216)" fill="#3a4245"/>
      <path id="Trazado_115498" data-name="Trazado 115498" d="M189.365,272.408a3.113,3.113,0,1,1-3.109-3.117A3.107,3.107,0,0,1,189.365,272.408Z" transform="translate(-76.315 -112.216)" fill="#3a4245"/>
      <path id="Trazado_115499" data-name="Trazado 115499" d="M208.884,272.408a3.117,3.117,0,1,1-3.118-3.117A3.108,3.108,0,0,1,208.884,272.408Z" transform="translate(-84.446 -112.216)" fill="#3a4245"/>
      <path id="Trazado_115500" data-name="Trazado 115500" d="M228.415,272.408a3.113,3.113,0,1,1-3.109-3.117A3.107,3.107,0,0,1,228.415,272.408Z" transform="translate(-92.588 -112.216)" fill="#3a4245"/>
      <path id="Trazado_115501" data-name="Trazado 115501" d="M149.673,274.659a.836.836,0,1,1-1.673,0v-4.3a.836.836,0,1,1,1.673,0Z" transform="translate(-61.673 -112.312)" fill="#4d5256"/>
      <path id="Trazado_115502" data-name="Trazado 115502" d="M169.2,274.659a.836.836,0,1,1-1.673,0v-4.3a.836.836,0,1,1,1.673,0Z" transform="translate(-69.809 -112.312)" fill="#4d5256"/>
      <path id="Trazado_115503" data-name="Trazado 115503" d="M188.722,274.659a.836.836,0,0,1-1.673,0v-4.3a.836.836,0,0,1,1.673,0Z" transform="translate(-77.945 -112.312)" fill="#4d5256"/>
      <path id="Trazado_115504" data-name="Trazado 115504" d="M208.247,274.659a.836.836,0,1,1-1.673,0v-4.3a.836.836,0,1,1,1.673,0Z" transform="translate(-86.081 -112.312)" fill="#4d5256"/>
      <path id="Trazado_115505" data-name="Trazado 115505" d="M227.772,274.659a.836.836,0,1,1-1.673,0v-4.3a.836.836,0,1,1,1.673,0Z" transform="translate(-94.217 -112.312)" fill="#4d5256"/>
      <path id="Trazado_115506" data-name="Trazado 115506" d="M448.04,579.905H436.728v9.918H448.04Z" transform="translate(-181.988 -241.651)" fill="#212526"/>
      <path id="Trazado_115507" data-name="Trazado 115507" d="M456.568,596.562H385.541v3.371h71.027Z" transform="translate(-160.658 -248.592)" fill="#3a4245"/>
      <path id="Trazado_115508" data-name="Trazado 115508" d="M456.873,468.246H368.831a2.974,2.974,0,0,0-2.974,2.974v62.257a2.974,2.974,0,0,0,2.974,2.974h88.043a2.974,2.974,0,0,0,2.974-2.974V471.22A2.974,2.974,0,0,0,456.873,468.246Z" transform="translate(-152.456 -195.122)" fill="#3a4245"/>
      <path id="Trazado_115509" data-name="Trazado 115509" d="M365.851,535.593a2.973,2.973,0,0,0,2.974,2.974h88.034a2.978,2.978,0,0,0,2.974-2.974V473.345l-93.99,62.248Z" transform="translate(-152.449 -197.247)" fill="#2e3638"/>
      <path id="Trazado_115510" data-name="Trazado 115510" d="M514.453,576.682a.963.963,0,0,1-.964.963h-1.841a.963.963,0,0,1,0-1.926h1.841A.963.963,0,0,1,514.453,576.682Z" transform="translate(-212.807 -239.907)" fill="#b3009d"/>
      <path id="Trazado_115511" data-name="Trazado 115511" d="M458.636,478.544H373.128v52.77h85.508Z" transform="translate(-155.486 -199.413)" fill="#9dd6e5"/>
      <path id="Trazado_115512" data-name="Trazado 115512" d="M460.5,530.578H383.354L460.5,482.962Z" transform="translate(-159.747 -201.254)" fill="#95cad8"/>
      <path id="Trazado_115513" data-name="Trazado 115513" d="M545.6,553.615h-2.974V488.384a2.978,2.978,0,0,1,2.974-2.974h7.688a2.978,2.978,0,0,1,2.974,2.974v65.231Z" transform="translate(-226.116 -202.274)" fill="#3a4245"/>
      <path id="Trazado_115514" data-name="Trazado 115514" d="M555.869,490.523H544.911v61.505h10.958Z" transform="translate(-227.069 -204.405)" fill="#4d5256"/>
      <path id="Trazado_115515" data-name="Trazado 115515" d="M544.911,552.02h10.958v-61.5Z" transform="translate(-227.069 -204.405)" fill="#44494c"/>
      <path id="Trazado_115516" data-name="Trazado 115516" d="M329.81,553.615h-2.974V488.384a2.978,2.978,0,0,1,2.974-2.974H337.5a2.973,2.973,0,0,1,2.974,2.974v65.231Z" transform="translate(-136.195 -202.274)" fill="#3a4245"/>
      <path id="Trazado_115517" data-name="Trazado 115517" d="M340.083,490.523H329.125v61.505h10.958Z" transform="translate(-137.149 -204.405)" fill="#4d5256"/>
      <path id="Trazado_115518" data-name="Trazado 115518" d="M329.125,552.02h10.966v-61.5Z" transform="translate(-137.149 -204.405)" fill="#44494c"/>
      <path id="Trazado_115519" data-name="Trazado 115519" d="M351.191,403.429h2.779a1.306,1.306,0,0,1,1.31,1.31v3.05a1.311,1.311,0,0,1-1.31,1.309h-2.779a1.311,1.311,0,0,1-1.31-1.309v-3.05A1.311,1.311,0,0,1,351.191,403.429Z" transform="translate(-145.798 -168.112)" fill="#4c5155"/>
      <path id="Trazado_115520" data-name="Trazado 115520" d="M414.168,403.429h2.78a1.311,1.311,0,0,1,1.31,1.31v3.05a1.311,1.311,0,0,1-1.31,1.309h-2.78a1.311,1.311,0,0,1-1.31-1.309v-3.05A1.311,1.311,0,0,1,414.168,403.429Z" transform="translate(-172.041 -168.112)" fill="#4c5155"/>
      <path id="Trazado_115521" data-name="Trazado 115521" d="M347.859,266.177h42.3a2.63,2.63,0,0,1,2.627,2.627v77.642a2.625,2.625,0,0,1-2.627,2.628h-42.3a2.625,2.625,0,0,1-2.627-2.628V268.8A2.63,2.63,0,0,1,347.859,266.177Z" transform="translate(-143.861 -110.918)" fill="#3a4245"/>
      <path id="Trazado_115522" data-name="Trazado 115522" d="M345.232,348.323a2.625,2.625,0,0,0,2.627,2.628h42.3a2.63,2.63,0,0,0,2.627-2.628V270.681L345.24,348.323Z" transform="translate(-143.861 -112.795)" fill="#282e30"/>
      <path id="Trazado_115523" data-name="Trazado 115523" d="M392.2,349.1H348.766V269.638H392.2Zm-42.682-.752h41.939V270.382H349.518Z" transform="translate(-145.334 -112.36)" fill="#a2a8aa"/>
      <path id="Trazado_115524" data-name="Trazado 115524" d="M391.19,291.633a18.156,18.156,0,1,1-18.156-18.156A18.154,18.154,0,0,1,391.19,291.633Z" transform="translate(-147.881 -113.96)" fill="#ebecf0"/>
      <path id="Trazado_115525" data-name="Trazado 115525" d="M389.363,296.165a11.811,11.811,0,1,1-11.811-11.811A11.812,11.812,0,0,1,389.363,296.165Z" transform="translate(-152.407 -118.493)" fill="#b8c7d8"/>
      <path id="Trazado_115526" data-name="Trazado 115526" d="M387.5,300.855a5.246,5.246,0,1,1-5.246-5.246A5.246,5.246,0,0,1,387.5,300.855Z" transform="translate(-157.103 -123.183)" fill="#3a4245"/>
      <path id="Trazado_115527" data-name="Trazado 115527" d="M391.176,303.763H354.864v.98h36.312Z" transform="translate(-147.875 -126.581)" fill="#3a4245"/>
      <path id="Trazado_115528" data-name="Trazado 115528" d="M391.19,358.217a18.156,18.156,0,1,1-18.156-18.156A18.154,18.154,0,0,1,391.19,358.217Z" transform="translate(-147.881 -141.706)" fill="#ebecf0"/>
      <path id="Trazado_115529" data-name="Trazado 115529" d="M389.363,362.749a11.811,11.811,0,1,1-11.811-11.811A11.812,11.812,0,0,1,389.363,362.749Z" transform="translate(-152.407 -146.239)" fill="#b8c7d8"/>
      <path id="Trazado_115530" data-name="Trazado 115530" d="M387.5,367.439a5.246,5.246,0,1,1-5.246-5.246A5.246,5.246,0,0,1,387.5,367.439Z" transform="translate(-157.103 -150.929)" fill="#3a4245"/>
      <path id="Trazado_115531" data-name="Trazado 115531" d="M391.176,370.347H354.864v.98h36.312Z" transform="translate(-147.875 -154.327)" fill="#3a4245"/>
      <path id="Trazado_115532" data-name="Trazado 115532" d="M352.619,272.662a1.145,1.145,0,1,1-1.149-1.141A1.143,1.143,0,0,1,352.619,272.662Z" transform="translate(-145.985 -113.145)" fill="#ebecf0"/>
      <path id="Trazado_115533" data-name="Trazado 115533" d="M420.029,272.662a1.141,1.141,0,0,1-1.14,1.14,1.141,1.141,0,1,1,0-2.281A1.131,1.131,0,0,1,420.029,272.662Z" transform="translate(-174.076 -113.145)" fill="#ebecf0"/>
      <path id="Trazado_115534" data-name="Trazado 115534" d="M352.619,401.507a1.145,1.145,0,1,1-1.149-1.148A1.15,1.15,0,0,1,352.619,401.507Z" transform="translate(-145.985 -166.833)" fill="#ebecf0"/>
      <path id="Trazado_115535" data-name="Trazado 115535" d="M420.029,401.507a1.145,1.145,0,1,1-1.14-1.148A1.148,1.148,0,0,1,420.029,401.507Z" transform="translate(-174.076 -166.833)" fill="#ebecf0"/>
      <path id="Trazado_115536" data-name="Trazado 115536" d="M533.532,96.827h-.845v18.848h.845Z" transform="translate(-221.975 -40.349)" fill="#9dd6e5"/>
      <path id="Trazado_115537" data-name="Trazado 115537" d="M533.8,131.62c0,1.969-.558,3.566-1.259,3.566s-1.259-1.6-1.259-3.566.566-3.565,1.259-3.565S533.8,129.652,533.8,131.62Z" transform="translate(-221.389 -53.362)" fill="#b3009d"/>
      <path id="Trazado_115538" data-name="Trazado 115538" d="M515.157,61.514h-1.242v95.1h1.242Z" transform="translate(-214.153 -25.634)" fill="#4d5256"/>
      <path id="Trazado_115539" data-name="Trazado 115539" d="M521.415,83.246H476.4l5.5-31.276h34.022Z" transform="translate(-198.52 -21.656)" fill="#8da3b5"/>
      <path id="Trazado_115540" data-name="Trazado 115540" d="M520.639,83.246H481.108l4.824-31.276h29.883Z" transform="translate(-200.482 -21.656)" fill="#a3b5c6"/>
      <path id="Trazado_115541" data-name="Trazado 115541" d="M519.257,83.246H489.349L493,51.969h22.608Z" transform="translate(-203.916 -21.656)" fill="#b8c7d8"/>
      <path id="Trazado_115542" data-name="Trazado 115542" d="M517.481,83.246H500.01l2.138-31.276h13.2Z" transform="translate(-208.358 -21.656)" fill="#d3dce5"/>
      <path id="Trazado_115543" data-name="Trazado 115543" d="M515.845,83.246H509.83l.735-31.276h4.546Z" transform="translate(-212.45 -21.656)" fill="#edf0f2"/>
      <path id="Trazado_115544" data-name="Trazado 115544" d="M502,224.549c-10.037,0-18.173,1.132-18.173,2.534h36.346C520.177,225.681,512.041,224.549,502,224.549Z" transform="translate(-201.616 -93.571)" fill="#3a4245"/>
      <path id="Trazado_115545" data-name="Trazado 115545" d="M450.408,407.065h1.724a.811.811,0,0,1,.811.811v1.884a.811.811,0,0,1-.811.811h-1.715a.811.811,0,0,1-.811-.811v-1.884a.811.811,0,0,1,.811-.811Z" transform="translate(-187.354 -169.627)" fill="#4c5155"/>
      <path id="Trazado_115546" data-name="Trazado 115546" d="M530.383,407.137H528.66a.811.811,0,0,0-.811.811v1.884a.811.811,0,0,0,.811.811h1.724a.811.811,0,0,0,.811-.811v-1.884A.811.811,0,0,0,530.383,407.137Z" transform="translate(-219.959 -169.657)" fill="#4c5155"/>
      <path id="Trazado_115547" data-name="Trazado 115547" d="M461.483,345.869h-3.81v4.249h3.81Z" transform="translate(-190.716 -144.127)" fill="#3a4245"/>
      <path id="Trazado_115548" data-name="Trazado 115548" d="M462.034,340.408h-7.62v4.25h7.62Z" transform="translate(-189.358 -141.851)" fill="#4c5155"/>
      <path id="Trazado_115549" data-name="Trazado 115549" d="M444.535,367.291v12.817a4,4,0,0,0,4,4h11.87a4,4,0,0,0,4-4V367.291Z" transform="translate(-185.242 -153.053)" fill="#ebecf0"/>
      <path id="Trazado_115550" data-name="Trazado 115550" d="M444.535,367.291v12.817a4,4,0,0,0,4,4h11.87a4,4,0,0,0,4-4V367.291Z" transform="translate(-185.242 -153.053)" fill="#ebecf0"/>
      <path id="Trazado_115551" data-name="Trazado 115551" d="M460.492,389.618H448.622a4,4,0,0,1-4-4l-.068,2.129a4,4,0,0,0,4,4h11.871a4,4,0,0,0,4-4v-1.4A4.009,4.009,0,0,1,460.492,389.618Z" transform="translate(-185.248 -160.689)" fill="#e2e2e2"/>
      <path id="Trazado_115552" data-name="Trazado 115552" d="M474.582,381.615a5.829,5.829,0,1,1,5.838-5.829A5.841,5.841,0,0,1,474.582,381.615Zm0-10.662a4.833,4.833,0,1,0,4.833,4.833A4.835,4.835,0,0,0,474.582,370.953Z" transform="translate(-195.333 -154.164)" fill="#ebecf0"/>
      <path id="Trazado_115553" data-name="Trazado 115553" d="M522.043,332.036H498.895v39.041h23.148Z" transform="translate(-207.894 -138.362)" fill="#a3b5c6"/>
      <path id="Trazado_115554" data-name="Trazado 115554" d="M498.895,371.077h23.148V332.036Z" transform="translate(-207.894 -138.362)" fill="#8da3b5"/>
      <path id="Trazado_115555" data-name="Trazado 115555" d="M496.675,313.106H446.541a4,4,0,0,0-4,4v14.05H475.41V335.2h21.265a4,4,0,0,0,4-4V317.119a4,4,0,0,0-4-4Z" transform="translate(-184.409 -130.474)" fill="#b8c7d8"/>
      <path id="Trazado_115556" data-name="Trazado 115556" d="M496.341,315.09H450.11c-2.036,0-3.692.878-3.692,1.969v.9c0-1.09,1.656-1.968,3.692-1.968h46.23c2.044,0,3.692.878,3.692,1.968v-.9C500.032,315.968,498.376,315.09,496.341,315.09Z" transform="translate(-186.026 -131.301)" fill="#fff"/>
      <path id="Trazado_115557" data-name="Trazado 115557" d="M520.316,363.894a4.208,4.208,0,1,1-4.208-4.207A4.208,4.208,0,0,1,520.316,363.894Z" transform="translate(-213.313 -149.885)" fill="#6b6b6b"/>
      <path id="Trazado_115558" data-name="Trazado 115558" d="M520.316,362.518a4.208,4.208,0,1,1-4.208-4.207A4.208,4.208,0,0,1,520.316,362.518Z" transform="translate(-213.313 -149.311)" fill="#fff"/>
      <path id="Trazado_115559" data-name="Trazado 115559" d="M519.794,363.81a2.4,2.4,0,1,1-2.408-2.4A2.407,2.407,0,0,1,519.794,363.81Z" transform="translate(-214.599 -150.603)" fill="#b3009d"/>
      <path id="Trazado_115560" data-name="Trazado 115560" d="M521.826,330.1H503.2v-8.212h18.629Zm-17.826-.8h17.023v-6.607H504Z" transform="translate(-209.686 -134.131)" fill="#8da3b5"/>
      <path id="Trazado_115561" data-name="Trazado 115561" d="M521.718,321.811H503.892v7.409h17.826Z" transform="translate(-209.976 -134.101)" fill="#9dd6e5"/>
      <path id="Trazado_115562" data-name="Trazado 115562" d="M521.825,329.327H503.2v-8.212h18.629Zm-17.827-.8h17.024v-6.607H504Z" transform="translate(-209.686 -133.811)" fill="#ebecf0"/>
      <path id="Trazado_115563" data-name="Trazado 115563" d="M445.774,404.655h50.581a4,4,0,0,0,4-4v-3.667h-58.59v3.667A4,4,0,0,0,445.774,404.655Z" transform="translate(-184.089 -165.427)" fill="#b8c7d8"/>
      <path id="Trazado_115564" data-name="Trazado 115564" d="M463.153,396.129H450.489v.5h12.664Z" transform="translate(-187.723 -165.07)" fill="#e0e0e2"/>
      <path id="Trazado_115565" data-name="Trazado 115565" d="M505.9,341.133h1.115a2,2,0,0,1,2,2v1.006a2,2,0,0,1-2,2h-1.107a2,2,0,0,1-2-2v-1.006a2,2,0,0,1,2-2Z" transform="translate(-209.982 -142.153)" fill="#8da3b5"/>
      <path id="Trazado_115566" data-name="Trazado 115566" d="M517.12,341.133h1.107a2,2,0,0,1,2,2v1a2,2,0,0,1-2,2H517.12a2,2,0,0,1-2-2v-1A2,2,0,0,1,517.12,341.133Z" transform="translate(-214.654 -142.153)" fill="#8da3b5"/>
      <path id="Trazado_115567" data-name="Trazado 115567" d="M528.324,341.133h1.107a2,2,0,0,1,2,2v1.006a2,2,0,0,1-2,2h-1.115a2,2,0,0,1-2-2v-1.006a2,2,0,0,1,2-2Z" transform="translate(-219.319 -142.153)" fill="#8da3b5"/>
      <path id="Trazado_115568" data-name="Trazado 115568" d="M505.9,339.757h1.115a2,2,0,0,1,2,2v1.006a2,2,0,0,1-2,2h-1.107a2,2,0,0,1-2-2v-1.006a2,2,0,0,1,2-2Z" transform="translate(-209.982 -141.58)" fill="#ebecf0"/>
      <path id="Trazado_115569" data-name="Trazado 115569" d="M517.12,339.757h1.107a2,2,0,0,1,2,2v1.006a2,2,0,0,1-2,2H517.12a2,2,0,0,1-2-2v-1a2,2,0,0,1,2-2Z" transform="translate(-214.654 -141.58)" fill="#ebecf0"/>
      <path id="Trazado_115570" data-name="Trazado 115570" d="M529.445,339.757H528.33a2,2,0,0,0-2,2v1.006a2,2,0,0,0,2,2h1.115a2,2,0,0,0,2-2v-1.006A2,2,0,0,0,529.445,339.757Z" transform="translate(-219.325 -141.58)" fill="#ebecf0"/>
      <path id="Trazado_115571" data-name="Trazado 115571" d="M528.8,365.543a.169.169,0,0,1,0-.338h1.267a.169.169,0,0,1,0,.338Z" transform="translate(-220.285 -152.184)" fill="#3a4245"/>
      <path id="Trazado_115572" data-name="Trazado 115572" d="M507.03,365.543a.169.169,0,0,1,0-.338h1.259a.169.169,0,0,1,0,.338Z" transform="translate(-211.213 -152.184)" fill="#3a4245"/>
      <path id="Trazado_115573" data-name="Trazado 115573" d="M518.825,353.41a.169.169,0,1,1,.338,0v1.267a.169.169,0,0,1-.338,0Z" transform="translate(-216.199 -147.199)" fill="#3a4245"/>
      <path id="Trazado_115574" data-name="Trazado 115574" d="M510.4,357.034a.167.167,0,0,1,.237-.237l.9.9a.167.167,0,1,1-.236.236Z" transform="translate(-212.668 -148.659)" fill="#3a4245"/>
      <path id="Trazado_115575" data-name="Trazado 115575" d="M526.7,356.8a.167.167,0,0,1,.236.237l-.9.9a.167.167,0,1,1-.237-.236Z" transform="translate(-219.084 -148.659)" fill="#3a4245"/>
      <path id="Trazado_115576" data-name="Trazado 115576" d="M341.292,220.58h2.374a1.129,1.129,0,0,1,1.123,1.124v2.6a1.123,1.123,0,0,1-1.123,1.123h-2.374a1.114,1.114,0,0,1-1.115-1.115V221.7a1.123,1.123,0,0,1,1.123-1.124Z" transform="translate(-141.755 -91.918)" fill="#4c5155"/>
      <path id="Trazado_115577" data-name="Trazado 115577" d="M427.408,220.58h-2.374a1.129,1.129,0,0,0-1.124,1.124v2.6a1.123,1.123,0,0,0,1.124,1.123h2.374a1.123,1.123,0,0,0,1.123-1.123v-2.6A1.129,1.129,0,0,0,427.408,220.58Z" transform="translate(-176.647 -91.918)" fill="#4c5155"/>
      <path id="Trazado_115578" data-name="Trazado 115578" d="M333.334,148.087h59.579a2.243,2.243,0,0,1,2.239,2.239v40.156a2.243,2.243,0,0,1-2.239,2.239H333.334a2.243,2.243,0,0,1-2.239-2.239V150.326A2.243,2.243,0,0,1,333.334,148.087Z" transform="translate(-137.97 -61.709)" fill="#b8c7d8"/>
      <path id="Trazado_115579" data-name="Trazado 115579" d="M416.462,204.372h10.409a.388.388,0,0,1,.388.389v7.021a.393.393,0,0,1-.388.388H416.462a.388.388,0,0,1-.388-.388v-7.021A.393.393,0,0,1,416.462,204.372Z" transform="translate(-173.382 -85.164)" fill="#fff"/>
      <path id="Trazado_115580" data-name="Trazado 115580" d="M338.415,154.735h38.171a2.64,2.64,0,0,1,2.636,2.636v31.614a2.64,2.64,0,0,1-2.636,2.636H338.424a2.639,2.639,0,0,1-2.636-2.636V157.371a2.639,2.639,0,0,1,2.636-2.636Z" transform="translate(-139.926 -64.479)" fill="#3a4245"/>
      <path id="Trazado_115581" data-name="Trazado 115581" d="M377.348,167.351H346.883v21.594h30.465Z" transform="translate(-144.549 -69.737)" fill="#4d5256"/>
      <path id="Trazado_115582" data-name="Trazado 115582" d="M339.757,190.882h38.8V157.6Z" transform="translate(-141.58 -65.675)" fill="#fff" opacity="0.2"/>
      <path id="Trazado_115583" data-name="Trazado 115583" d="M427.455,180.651H416.219V154.706h11.237Zm-11.008-.228h10.789v-25.5H416.447Z" transform="translate(-173.442 -64.467)" fill="#4d5256"/>
      <path id="Trazado_115584" data-name="Trazado 115584" d="M421.947,159.057h-5.728v-4.351h5.728Zm-5.508-.219h5.28v-3.9h-5.28Z" transform="translate(-173.442 -64.467)" fill="#4d5256"/>
      <path id="Trazado_115585" data-name="Trazado 115585" d="M431.391,159.057h-5.728v-4.351h5.728Zm-5.509-.219h5.281v-3.9h-5.281Z" transform="translate(-177.377 -64.467)" fill="#4d5256"/>
      <path id="Trazado_115586" data-name="Trazado 115586" d="M421.947,166.14h-5.728v-4.351h5.728Zm-5.508-.228h5.28v-3.9h-5.28Z" transform="translate(-173.442 -67.419)" fill="#4d5256"/>
      <path id="Trazado_115587" data-name="Trazado 115587" d="M431.391,166.14h-5.728v-4.351h5.728Zm-5.509-.228h5.281v-3.9h-5.281Z" transform="translate(-177.377 -67.419)" fill="#4d5256"/>
      <path id="Trazado_115588" data-name="Trazado 115588" d="M421.947,173.208h-5.728v-4.351h5.728Zm-5.508-.219h5.28v-3.9h-5.28Z" transform="translate(-173.442 -70.364)" fill="#4d5256"/>
      <path id="Trazado_115589" data-name="Trazado 115589" d="M431.391,173.208h-5.728v-4.351h5.728Zm-5.509-.219h5.281v-3.9h-5.281Z" transform="translate(-177.377 -70.364)" fill="#4d5256"/>
      <path id="Trazado_115590" data-name="Trazado 115590" d="M426.874,184.142a2.062,2.062,0,1,1-2.062-2.061A2.059,2.059,0,0,1,426.874,184.142Z" transform="translate(-176.164 -75.875)" fill="#9dd6e5" opacity="0.5"/>
      <path id="Trazado_115591" data-name="Trazado 115591" d="M429.1,187.677a2.061,2.061,0,1,1-2.061-2.062A2.059,2.059,0,0,1,429.1,187.677Z" transform="translate(-177.094 -77.347)" fill="#9dd6e5" opacity="0.5"/>
      <path id="Trazado_115592" data-name="Trazado 115592" d="M424.165,187.677a2.062,2.062,0,1,1-2.061-2.062A2.059,2.059,0,0,1,424.165,187.677Z" transform="translate(-175.035 -77.347)" fill="#9dd6e5" opacity="0.5"/>
      <path id="Trazado_115593" data-name="Trazado 115593" d="M514.823,241.577c-1.183-.811-4.232-1.385-7.806-1.385s-6.683.591-7.841,1.411c-.9.135-1.571.6-1.571,1.149v8.279c0,.659.946,1.2,2.121,1.2H514.4c1.174,0,2.12-.533,2.12-1.2v-8.279C516.521,242.178,515.795,241.688,514.823,241.577Z" transform="translate(-207.356 -100.09)" fill="#ffce88"/>
      <path id="Trazado_115594" data-name="Trazado 115594" d="M514.115,252.325H499.44c-1.4,0-2.5-.692-2.5-1.58v-8.28c0-.726.727-1.326,1.808-1.512,1.318-.87,4.427-1.427,7.984-1.427s6.607.549,7.942,1.4c1.148.16,1.943.786,1.943,1.546v8.279c0,.887-1.1,1.58-2.509,1.58Zm-7.385-12.03c-3.954,0-6.674.675-7.62,1.343l-.076.051-.093.017c-.778.118-1.242.481-1.242.769v8.279c0,.38.743.811,1.732.811h14.675c1,0,1.732-.431,1.732-.811v-8.279c0-.3-.515-.693-1.36-.786h-.093l-.076-.068c-1.158-.794-4.207-1.318-7.6-1.318Z" transform="translate(-207.079 -99.813)" fill="#ad5a00"/>
      <path id="Trazado_115595" data-name="Trazado 115595" d="M542.043,281.834v1.411c2.518,0,4.554-.633,4.554-1.411Z" transform="translate(-225.874 -117.443)" fill="#3a4245"/>
      <path id="Trazado_115596" data-name="Trazado 115596" d="M519.374,262.955V252.682a5.207,5.207,0,0,0-5.2-5.2H489.644a5.207,5.207,0,0,0-5.2,5.2v18.342a1.847,1.847,0,0,0,1.842,1.842h31.285a1.841,1.841,0,0,0,1.842-1.842Z" transform="translate(-201.87 -103.126)" fill="#b8c7d8"/>
      <path id="Trazado_115597" data-name="Trazado 115597" d="M519.374,266.673V256.4l-34.935,17.353v.981a1.846,1.846,0,0,0,1.842,1.841h31.285a1.841,1.841,0,0,0,1.842-1.841l-.034-8.069Z" transform="translate(-201.87 -106.844)" fill="#a3b5c6"/>
      <path id="Trazado_115598" data-name="Trazado 115598" d="M489.489,252.854h26.824a4.727,4.727,0,0,1,2.7.845,4.153,4.153,0,0,0-4.14-3.861H490.926a4.154,4.154,0,0,0-4.14,3.861A4.727,4.727,0,0,1,489.489,252.854Z" transform="translate(-202.848 -104.11)" fill="#fff"/>
      <path id="Trazado_115599" data-name="Trazado 115599" d="M491.776,288.193H494.3a.762.762,0,0,1,.76.76v1.191a.763.763,0,0,1-.76.761h-2.526a.757.757,0,0,1-.761-.761v-1.191A.757.757,0,0,1,491.776,288.193Z" transform="translate(-204.61 -120.092)" fill="#3a4245"/>
      <path id="Trazado_115600" data-name="Trazado 115600" d="M531.637,288.048h2.526a.763.763,0,0,1,.761.76V290a.762.762,0,0,1-.761.76h-2.526a.757.757,0,0,1-.761-.76v-1.192A.757.757,0,0,1,531.637,288.048Z" transform="translate(-221.221 -120.032)" fill="#3a4245"/>
      <path id="Trazado_115601" data-name="Trazado 115601" d="M535.016,282.132h-4.646v-2.239h4.646Z" transform="translate(-221.009 -116.634)" fill="#fff"/>
      <path id="Trazado_115602" data-name="Trazado 115602" d="M175.845,217.228h3.329a1.569,1.569,0,0,1,1.571,1.571v3.65a1.568,1.568,0,0,1-1.571,1.571h-3.329a1.569,1.569,0,0,1-1.571-1.571v-3.658a1.569,1.569,0,0,1,1.571-1.571Z" transform="translate(-72.621 -90.517)" fill="#4c5155"/>
      <path id="Trazado_115603" data-name="Trazado 115603" d="M272.861,217.228h3.328a1.569,1.569,0,0,1,1.571,1.571v3.65a1.568,1.568,0,0,1-1.571,1.571h-3.328a1.568,1.568,0,0,1-1.571-1.571v-3.658a1.568,1.568,0,0,1,1.571-1.571Z" transform="translate(-113.049 -90.517)" fill="#4c5155"/>
      <path id="Trazado_115604" data-name="Trazado 115604" d="M175.845,217.228h3.329a1.569,1.569,0,0,1,1.571,1.571v3.65a1.568,1.568,0,0,1-1.571,1.571h-3.329a1.569,1.569,0,0,1-1.571-1.571v-3.658a1.569,1.569,0,0,1,1.571-1.571Z" transform="translate(-72.621 -90.517)" fill="#4c5155"/>
      <path id="Trazado_115605" data-name="Trazado 115605" d="M272.861,217.228h3.328a1.569,1.569,0,0,1,1.571,1.571v3.65a1.568,1.568,0,0,1-1.571,1.571h-3.328a1.568,1.568,0,0,1-1.571-1.571v-3.658a1.568,1.568,0,0,1,1.571-1.571Z" transform="translate(-113.049 -90.517)" fill="#4c5155"/>
      <path id="Trazado_115606" data-name="Trazado 115606" d="M169.712,0h65.771a3.148,3.148,0,0,1,3.143,3.143v123.83a3.148,3.148,0,0,1-3.143,3.143H169.712a3.148,3.148,0,0,1-3.143-3.143V3.143A3.147,3.147,0,0,1,169.712,0Z" transform="translate(-69.411)" fill="#b8c7d8"/>
      <path id="Trazado_115607" data-name="Trazado 115607" d="M166.569,129.218a3.142,3.142,0,0,0,3.143,3.143h65.771a3.143,3.143,0,0,0,3.143-3.143V5.388Z" transform="translate(-69.411 -2.245)" fill="#a3b5c6"/>
      <path id="Trazado_115608" data-name="Trazado 115608" d="M238.627,10.414H166.569v.422h72.058Z" transform="translate(-69.411 -4.34)" fill="#4c5155"/>
      <path id="Trazado_115609" data-name="Trazado 115609" d="M238.627,210.934H166.569v.422h72.058Z" transform="translate(-69.411 -87.898)" fill="#4c5155"/>
      <path id="Trazado_115610" data-name="Trazado 115610" d="M228.742,4.226A1.445,1.445,0,1,1,227.3,2.781,1.444,1.444,0,0,1,228.742,4.226Z" transform="translate(-94.115 -1.159)" fill="#9dd6e5"/>
      <path id="Trazado_115611" data-name="Trazado 115611" d="M244.93,4.745a.718.718,0,1,1-.718-.718A.717.717,0,0,1,244.93,4.745Z" transform="translate(-101.466 -1.678)" fill="#4c5155"/>
      <path id="Trazado_115612" data-name="Trazado 115612" d="M212.153,4.745a.718.718,0,1,1-.718-.718A.718.718,0,0,1,212.153,4.745Z" transform="translate(-87.808 -1.678)" fill="#4c5155"/>
      <path id="Trazado_115613" data-name="Trazado 115613" d="M238.627,110.674H166.569v.422h72.058Z" transform="translate(-69.411 -46.119)" fill="#4c5155"/>
      <path id="Trazado_115614" data-name="Trazado 115614" d="M186.78,108.869a2.527,2.527,0,0,1-2.526,2.526h-7.469a2.526,2.526,0,0,1,0-5.052h7.469A2.527,2.527,0,0,1,186.78,108.869Z" transform="translate(-72.616 -44.314)" fill="#4c5155"/>
      <path id="Trazado_115615" data-name="Trazado 115615" d="M198.349,41.845l-10.7,5.025,3.474,7.395,10.7-5.025Z" transform="translate(-78.196 -17.437)" fill="#a3b5c6"/>
      <path id="Trazado_115616" data-name="Trazado 115616" d="M198.351,39.667l-10.7,5.027,3.474,7.394,10.7-5.027Z" transform="translate(-78.197 -16.53)" fill="#b3009d"/>
      <path id="Trazado_115617" data-name="Trazado 115617" d="M202.282,40.691A3.278,3.278,0,1,1,199,37.413,3.281,3.281,0,0,1,202.282,40.691Z" transform="translate(-81.561 -15.59)" fill="#fff"/>
      <path id="Trazado_115618" data-name="Trazado 115618" d="M198.226,41.863c0,.262-.152.473-.338.473s-.338-.211-.338-.473.152-.482.338-.482S198.226,41.593,198.226,41.863Z" transform="translate(-82.321 -17.244)"/>
      <path id="Trazado_115619" data-name="Trazado 115619" d="M202.716,41.863c0,.262-.152.473-.338.473s-.338-.211-.338-.473.152-.482.338-.482S202.716,41.593,202.716,41.863Z" transform="translate(-84.192 -17.244)"/>
      <path id="Trazado_115620" data-name="Trazado 115620" d="M191.192,44.068l5.289.456v-.912Z" transform="translate(-79.671 -18.173)" fill="#b3009d"/>
      <path id="Trazado_115621" data-name="Trazado 115621" d="M243.668,596.324h1.724a.811.811,0,0,1,.811.811v1.884a.811.811,0,0,1-.811.811h-1.724a.811.811,0,0,1-.811-.811v-1.893a.811.811,0,0,1,.811-.811Z" transform="translate(-101.201 -248.49)" fill="#4c5155"/>
      <path id="Trazado_115622" data-name="Trazado 115622" d="M293.8,596.33h1.724a.812.812,0,0,1,.811.811v1.892a.812.812,0,0,1-.811.811h-1.715a.812.812,0,0,1-.811-.811v-1.892a.812.812,0,0,1,.811-.811Z" transform="translate(-122.096 -248.496)" fill="#4c5155"/>
      <path id="Trazado_115623" data-name="Trazado 115623" d="M271.442,520.331H266.93v10.924h4.512Z" transform="translate(-111.232 -216.826)" fill="#8da3b5"/>
      <path id="Trazado_115624" data-name="Trazado 115624" d="M247.726,517.558h23.512a4.075,4.075,0,0,0,4.072-4.072v-8H243.654v8A4.074,4.074,0,0,0,247.726,517.558Z" transform="translate(-101.533 -210.64)" fill="#8da3b5"/>
      <path id="Trazado_115625" data-name="Trazado 115625" d="M234.6,514H271.5a6.389,6.389,0,0,0,6.4-6.387v-7.789H228.214v7.789a6.389,6.389,0,0,0,6.4,6.387Z" transform="translate(-95.099 -208.28)" fill="#9dd6e5"/>
      <path id="Trazado_115626" data-name="Trazado 115626" d="M271.489,514.639H234.595a6.389,6.389,0,0,1-6.4-6.387v2.881a6.389,6.389,0,0,0,6.4,6.387h36.894a6.389,6.389,0,0,0,6.4-6.387v-2.881A6.389,6.389,0,0,1,271.489,514.639Z" transform="translate(-95.092 -211.793)" fill="#00cca7"/>
      <path id="Trazado_115627" data-name="Trazado 115627" d="M270.524,534.149H240.388a6.4,6.4,0,0,0-6.4,6.4v31.631h42.919V540.545a6.4,6.4,0,0,0-6.4-6.4Z" transform="translate(-97.507 -222.584)" fill="#b8c7d8"/>
      <path id="Trazado_115628" data-name="Trazado 115628" d="M275.05,537.365l-41.043,36.151h42.919V541.885A6.373,6.373,0,0,0,275.05,537.365Z" transform="translate(-97.513 -223.924)" fill="#a3b5c6"/>
      <path id="Trazado_115629" data-name="Trazado 115629" d="M274.387,559.822A12.622,12.622,0,1,1,261.765,547.2,12.623,12.623,0,0,1,274.387,559.822Z" transform="translate(-103.82 -228.023)" fill="#8da3b5"/>
      <path id="Trazado_115630" data-name="Trazado 115630" d="M274.387,555.708a12.622,12.622,0,1,1-12.622-12.622A12.623,12.623,0,0,1,274.387,555.708Z" transform="translate(-103.82 -226.309)" fill="#fff"/>
      <path id="Trazado_115631" data-name="Trazado 115631" d="M270.885,558.622l-.338-11.422-.33,11.422Z" transform="translate(-112.602 -228.023)" fill="#9dd6e5"/>
      <path id="Trazado_115632" data-name="Trazado 115632" d="M253.729,564.581H251.49v.313h2.239Z" transform="translate(-104.798 -235.266)" fill="#9dd6e5"/>
      <path id="Trazado_115633" data-name="Trazado 115633" d="M288.477,564.581h-2.239v.313h2.239Z" transform="translate(-119.278 -235.266)" fill="#9dd6e5"/>
      <path id="Trazado_115634" data-name="Trazado 115634" d="M270.835,545.563h-.313V547.8h.313Z" transform="translate(-112.729 -227.341)" fill="#b3009d"/>
      <path id="Trazado_115635" data-name="Trazado 115635" d="M257.2,551l-.222.22,1.574,1.592.223-.22Z" transform="translate(-107.084 -229.606)" fill="#9dd6e5"/>
      <path id="Trazado_115636" data-name="Trazado 115636" d="M281.53,575.808l.22-.219,1.58,1.588-.219.211Z" transform="translate(-117.316 -239.853)" fill="#9dd6e5"/>
      <path id="Trazado_115637" data-name="Trazado 115637" d="M283.1,551.038l-1.574,1.592.222.22,1.574-1.592Z" transform="translate(-117.316 -229.622)" fill="#9dd6e5"/>
      <path id="Trazado_115638" data-name="Trazado 115638" d="M258.534,575.589l-1.583,1.584.221.221,1.583-1.584Z" transform="translate(-107.074 -239.853)" fill="#9dd6e5"/>
      <path id="Trazado_115639" data-name="Trazado 115639" d="M271.927,536.38H263.96v1.563h7.967Z" transform="translate(-109.994 -223.514)" fill="#fff"/>
      <path id="Trazado_115640" data-name="Trazado 115640" d="M386.794,112.871a17.461,17.461,0,0,0,2.222-8.693c0-7.849-4.74-14.2-10.595-14.2s-10.594,6.362-10.594,14.2a17.383,17.383,0,0,0,2.222,8.693Z" transform="translate(-153.277 -37.494)" fill="#b3009d"/>
      <path id="Trazado_115641" data-name="Trazado 115641" d="M386.794,112.871a17.461,17.461,0,0,0,2.222-8.693c0-7.849-4.74-14.2-10.595-14.2s-10.594,6.362-10.594,14.2a17.383,17.383,0,0,0,2.222,8.693Z" transform="translate(-153.277 -37.494)" fill="#00cca7"/>
      <path id="Trazado_115642" data-name="Trazado 115642" d="M379.97,96.219c-5.643,0-10.425,4.959-12.056,11.8a17.03,17.03,0,0,0,2.18,7.452h16.745a17.468,17.468,0,0,0,2.222-8.693,18,18,0,0,0-1.411-7.088,10.706,10.706,0,0,0-7.671-3.472Z" transform="translate(-153.313 -40.095)" fill="#9dd6e5"/>
      <path id="Trazado_115643" data-name="Trazado 115643" d="M387.986,101.839c-.87,8.237-6.142,14.574-12.529,14.574A10.346,10.346,0,0,1,368.943,114a16.435,16.435,0,0,0,1.571,3.828h16.745a17.465,17.465,0,0,0,2.222-8.693,17.863,17.863,0,0,0-1.5-7.283Z" transform="translate(-153.742 -42.437)" fill="#00cca7"/>
      <path id="Trazado_115644" data-name="Trazado 115644" d="M388.637,129.87a.642.642,0,0,1-.642.642h-17.15a.642.642,0,1,1,0-1.284h17.15A.642.642,0,0,1,388.637,129.87Z" transform="translate(-154.266 -53.85)" fill="#00cca7"/>
      <path id="Trazado_115645" data-name="Trazado 115645" d="M379,92.149c-2.146,2.23-3.641,7.181-3.641,12.935a27.466,27.466,0,0,0,1.3,8.693h1.817a32.177,32.177,0,0,1-1.513-10.121,30.223,30.223,0,0,1,2.044-11.507Z" transform="translate(-156.415 -38.399)" fill="#8bc6d6"/>
      <path id="Trazado_115646" data-name="Trazado 115646" d="M391.336,75.066H353.951l4.563-25.979h28.26Z" transform="translate(-147.494 -20.455)" fill="#b3009d"/>
      <path id="Trazado_115647" data-name="Trazado 115647" d="M390.687,75.066h-32.84l4.013-25.979h24.822Z" transform="translate(-149.118 -20.455)" fill="#b3009d"/>
      <path id="Trazado_115648" data-name="Trazado 115648" d="M389.546,75.066H364.7l3.033-25.979h18.781Z" transform="translate(-151.973 -20.455)" fill="#b3009d"/>
      <path id="Trazado_115649" data-name="Trazado 115649" d="M388.069,75.066H373.563l1.766-25.979H386.3Z" transform="translate(-155.667 -20.455)" fill="#b3009d"/>
      <path id="Trazado_115650" data-name="Trazado 115650" d="M386.71,75.066h-4.993l.608-25.979H386.1Z" transform="translate(-159.065 -20.455)" fill="#b3009d"/>
      <path id="Trazado_115651" data-name="Trazado 115651" d="M65.428,528.336l-2.687-.195,5.711-68.011c1.115-14.666-9.767-22.464-20.353-23.5-9.986-.98-21.476,4.081-23.09,17.506-2.256,18.713,13.408,32.442,13.568,32.577l-1.757,2.044c-.693-.6-16.914-14.818-14.489-34.943,1.833-15.224,14.776-20.969,26.03-19.871,11.845,1.166,24.027,9.919,22.777,26.385Z" transform="translate(-9.203 -180.772)" fill="#b8c7d8"/>
      <path id="Trazado_115652" data-name="Trazado 115652" d="M97.5,478.921,91.786,546.94l2.687.195,5.711-68.011Z" transform="translate(-38.248 -199.571)" fill="#b8c7d8"/>
      <path id="Trazado_115653" data-name="Trazado 115653" d="M22.332,453.818c-2.425,20.125,13.8,34.352,14.489,34.943l1.757-2.044c-.161-.135-15.824-13.864-13.568-32.577,1.614-13.425,13.1-18.494,23.09-17.506l.262-2.678c-11.245-1.1-24.2,4.647-26.03,19.871Z" transform="translate(-9.203 -180.778)" fill="#b8c7d8"/>
      <path id="Trazado_115654" data-name="Trazado 115654" d="M102.585,490.808l.98-11.684-2.687-.2-.98,11.684Z" transform="translate(-41.628 -199.571)" fill="#9dd6e5"/>
      <path id="Trazado_115655" data-name="Trazado 115655" d="M47.758,527.908s-.49-.474-.684-.668a1.455,1.455,0,0,1,.034.186A5.613,5.613,0,0,0,47.758,527.908Z" transform="translate(-19.616 -219.705)" fill="#2e3638"/>
      <path id="Trazado_115656" data-name="Trazado 115656" d="M50.376,524.778a2.312,2.312,0,0,0,.346.254A1.987,1.987,0,0,0,50.376,524.778Z" transform="translate(-20.992 -218.679)" fill="#2e3638"/>
      <path id="Trazado_115657" data-name="Trazado 115657" d="M47.262,528.718a.207.207,0,0,0,.034.127C47.3,528.845,47.3,528.794,47.262,528.718Z" transform="translate(-19.694 -220.321)" fill="#2e3638"/>
      <path id="Trazado_115658" data-name="Trazado 115658" d="M47.013,527.172a.342.342,0,0,0-.017-.059c-.034-.025-.059-.042-.068-.034l.076.093Z" transform="translate(-19.556 -219.638)" fill="#2e3638"/>
      <path id="Trazado_115659" data-name="Trazado 115659" d="M47.049,528.12c-.017-.144-.034-.406-.076-.685a.939.939,0,0,0-.22-.152C46.728,527.309,46.965,527.866,47.049,528.12Z" transform="translate(-19.482 -219.723)" fill="#2e3638"/>
      <path id="Trazado_115660" data-name="Trazado 115660" d="M70.336,457.591c0-.4,1.065-.819,1.048-1.208s-1.115-.718-1.149-1.106.989-.9.938-1.293-1.174-.617-1.251-1,.9-1,.82-1.377-1.233-.5-1.335-.87.8-1.081.675-1.453-1.276-.363-1.419-.726.684-1.158.524-1.512-1.309-.228-1.487-.575.558-1.225.355-1.554-1.326-.085-1.546-.414.422-1.276.186-1.588-1.326.051-1.58-.245.287-1.31.017-1.6-1.31.194-1.6-.076.152-1.335-.144-1.588-1.284.321-1.6.085.017-1.343-.3-1.563-1.25.447-1.58.236-.11-1.335-.448-1.538-1.2.566-1.555.38-.228-1.318-.583-1.487-1.149.667-1.512.515-.346-1.293-.71-1.428-1.09.761-1.462.642-.448-1.259-.828-1.36-1.022.845-1.4.761-.558-1.225-.938-1.293-.946.929-1.335.878-.65-1.174-1.048-1.208c-.363-.034-.82,1.014-1.191.989s-.693-1.115-1.065-1.115-.735,1.073-1.107,1.081-.786-1.056-1.149-1.031-.651,1.124-1.014,1.166-.862-.988-1.233-.929-.558,1.174-.921,1.242-.946-.912-1.3-.828-.456,1.216-.811,1.318-1.022-.828-1.369-.709-.346,1.25-.693,1.385-1.09-.735-1.428-.592-.228,1.276-.558,1.436S33.1,435.82,32.774,436s-.1,1.293-.422,1.487-1.208-.507-1.512-.3.025,1.3-.262,1.521-1.259-.38-1.538-.143.169,1.284-.1,1.546-1.293-.245-1.546.025.3,1.259.068,1.546-1.309-.1-1.538.194.439,1.217.228,1.529-1.31.043-1.5.355.566,1.166.4,1.5-1.3.177-1.462.515.684,1.1.549,1.445-1.276.3-1.4.659.794,1.031.684,1.385-1.242.422-1.335.786.879.955.811,1.318-1.2.524-1.259.9.955.878.912,1.25c-.051.4-1.157.684-1.191,1.073s1.014.87,1,1.267-1.107.76-1.115,1.149,1.073.794,1.081,1.191-1.056.836-1.031,1.225,1.124.718,1.157,1.107-1,.9-.946,1.3,1.174.642,1.233,1.031-.929.972-.853,1.36,1.208.558,1.3.946-.862,1.031-.769,1.411,1.242.482,1.352.862-.8,1.081-.676,1.453,1.276.405,1.4.777-.735,1.124-.591,1.5,1.293.33,1.445.693-.667,1.166-.5,1.529,1.31.253,1.487.608-.6,1.2-.414,1.546,1.326.186,1.512.532-.541,1.234-.338,1.572,1.335.118,1.538.447-.473,1.259-.262,1.58c.22.338,1.335.059,1.563.38s-.414,1.276-.186,1.6,1.343,0,1.571.3c.245.321-.355,1.3-.11,1.6.254.321,1.343-.068,1.588.228.27.313-.287,1.318-.034,1.605.279.313,1.343-.118,1.6.152.3.313-.211,1.343.042,1.605.321.321,1.36-.16,1.605.068a1.4,1.4,0,0,1,.33.684c.194.135.786.633.8.608s-.786-.735-.76-.769.845.667.87.642-.786-.736-.76-.769.845.676.87.642-.786-.735-.76-.76.845.675.87.642-.786-.735-.76-.769.845.668.87.642-.786-.735-.76-.769.845.676.87.642-.794-.735-.76-.76.845.676.87.642-.794-.735-.769-.76.845.675.87.642-.794-.735-.769-.76.845.667.87.642-.794-.735-.76-.761.845.667.87.642-.794-.735-.76-.769.845.676.87.642-.794-.736-.76-.761.845.676.87.642-.794-.735-.76-.761.845.676.87.642-.786-.735-.76-.761.845.676.87.642-.507-.49-.693-.684c-.034-.025-.059-.042-.059-.051l-.017-.034a.041.041,0,0,1,.025.009.607.607,0,0,0,.059-.921c-.22-.211-1.25.279-1.546-.017-.237-.245.3-1.251.025-1.546-.237-.253-1.284.194-1.546-.1-.237-.262.346-1.242.093-1.546-.228-.271-1.3.127-1.538-.177-.228-.279.4-1.234.169-1.538-.22-.288-1.3.059-1.529-.245-.211-.3.448-1.217.237-1.529-.211-.3-1.309,0-1.512-.313s.507-1.2.3-1.521-1.31-.068-1.5-.38.558-1.174.372-1.5-1.3-.127-1.479-.456.617-1.141.448-1.479-1.293-.194-1.453-.533.676-1.115.524-1.453-1.284-.262-1.419-.608.735-1.073.608-1.419-1.267-.338-1.386-.693.8-1.022.693-1.385-1.242-.414-1.343-.769.862-.98.777-1.335-1.217-.49-1.284-.853.921-.912.862-1.284-1.183-.575-1.225-.938.98-.853.946-1.225-1.141-.651-1.157-1.023,1.039-.777,1.031-1.149-1.09-.735-1.081-1.1,1.09-.7,1.107-1.073-1.031-.811-1.005-1.174,1.141-.625,1.183-1c.042-.329-.98-.8-.929-1.123s1.174-.456,1.233-.778-.912-.878-.836-1.191,1.208-.355,1.3-.659-.828-.954-.718-1.267,1.233-.237,1.352-.533-.735-1.039-.591-1.334,1.25-.11,1.4-.4-.617-1.107-.456-1.385,1.25.025,1.436-.245-.5-1.166-.3-1.428,1.242.16,1.453-.085-.372-1.217-.144-1.453,1.217.3,1.453.076-.237-1.242.017-1.453,1.183.422,1.436.228-.1-1.267.169-1.445,1.124.541,1.411.372.025-1.267.313-1.419,1.073.659,1.36.515.152-1.259.448-1.385,1.005.752,1.31.642.262-1.242.574-1.335.929.836,1.25.752.372-1.208.693-1.284.853.921,1.183.853.473-1.175.794-1.225.777.988,1.107.954.566-1.132.887-1.149.7,1.048,1.022,1.039.651-1.09.98-1.081.617,1.1.938,1.115.735-1.031,1.065-1c.346.034.566,1.149.912,1.2s.862-.963,1.208-.9.473,1.191.82,1.268.938-.887,1.276-.794.372,1.225.71,1.326,1.014-.8,1.343-.684.27,1.251.6,1.385,1.073-.718,1.394-.574.161,1.267.473,1.427,1.132-.617,1.436-.447.051,1.276.346,1.47,1.183-.516,1.47-.313-.076,1.276.2,1.487,1.233-.4,1.5-.169-.194,1.259.059,1.5,1.267-.271,1.5-.017-.329,1.234-.093,1.5,1.284-.135,1.5.143-.456,1.192-.253,1.487,1.293,0,1.479.3-.583,1.14-.414,1.445,1.284.144,1.436.456-.7,1.065-.566,1.394,1.259.279,1.377.608-.811.988-.71,1.326,1.225.405,1.31.743-.9.9-.845,1.251,1.183.515,1.225.87-.988.811-.954,1.166,1.132.625,1.14.98-1.056.726-1.056,1.081,1.073.718,1.056,1.073-1.107.634-1.132.989l2.687.2c.034-.4,1.132-.736,1.14-1.124s-1.056-.811-1.056-1.2Z" transform="translate(-8.848 -180.395)" fill="#2e3638"/>
      <path id="Trazado_115661" data-name="Trazado 115661" d="M49.564,524.2c.093.067.279.194.456.3-.2-.16-.431-.346-.5-.38v.017A.268.268,0,0,0,49.564,524.2Z" transform="translate(-20.636 -218.408)" fill="#2e3638"/>
      <path id="Trazado_115662" data-name="Trazado 115662" d="M94.28,595.966c0,1.149-1.411,2.07-3.151,2.07s-3.151-.929-3.151-2.07,1.411-2.069,3.151-2.069S94.28,594.826,94.28,595.966Z" transform="translate(-36.661 -247.482)" fill="#4d5256"/>
      <path id="Trazado_115663" data-name="Trazado 115663" d="M87.234,596.142H97.423a.669.669,0,0,1,.667.667v1.5a.669.669,0,0,1-.667.668h-10.2a.669.669,0,0,1-.667-.668v-1.5a.669.669,0,0,1,.667-.667Z" transform="translate(-36.069 -248.417)" fill="#3a4245"/>
      <path id="Trazado_115664" data-name="Trazado 115664" d="M105.594,480.669l-.288,1.355.554.117.288-1.356Z" transform="translate(-43.882 -200.299)" fill="#00cca7"/>
      <path id="Trazado_115665" data-name="Trazado 115665" d="M105.857,482.606l-.554.117.287,1.356.554-.118Z" transform="translate(-43.881 -201.106)" fill="#00cca7"/>
      <path id="Trazado_115666" data-name="Trazado 115666" d="M48.317,521.363a1.326,1.326,0,0,1,0,1.884L45.563,526a1.332,1.332,0,0,1-1.884-1.884l2.754-2.762a1.326,1.326,0,0,1,1.884,0Z" transform="translate(-18.038 -217.089)" fill="#3a4245"/>
      <path id="Trazado_115667" data-name="Trazado 115667" d="M48.9,555.345H25.84c0-19.424,9.657-35.9,23.073-41.778v41.778Z" transform="translate(-10.768 -214.008)" fill="#9dd6e5"/>
      <path id="Trazado_115668" data-name="Trazado 115668" d="M53.49,515.662v-2.1c-13.408,5.88-23.073,22.355-23.073,41.778H31.9C34.531,538.524,42.541,524.246,53.49,515.662Z" transform="translate(-12.675 -214.008)" fill="#8bc6d6"/>
      <path id="Trazado_115669" data-name="Trazado 115669" d="M48.9,513.567a30.076,30.076,0,0,0-5.323,3.033v27.745a6.436,6.436,0,0,1-6.438,6.438H26.011c-.118,1.5-.186,3.025-.186,4.571H47.893a6.82,6.82,0,0,0,1.005-.828V513.567Z" transform="translate(-10.762 -214.008)" fill="#00cca7"/>
      <path id="Trazado_115670" data-name="Trazado 115670" d="M53.026,512.394H46.2a1.614,1.614,0,0,0-1.614,1.614v31.648a6.438,6.438,0,0,1-6.429,6.294H25.078a1.614,1.614,0,0,0-1.614,1.614v6.826A1.613,1.613,0,0,0,25.078,562H53.026a1.608,1.608,0,0,0,1.614-1.613V514.008A1.614,1.614,0,0,0,53.026,512.394Z" transform="translate(-9.778 -213.519)" fill="#a3b5c6"/>
      <path id="Trazado_115671" data-name="Trazado 115671" d="M37.039,547.694a2.271,2.271,0,0,0,2.273-2.264v-7.342a2.274,2.274,0,0,0-2.273-2.273H35.4a54.566,54.566,0,0,0-5.635,11.879h7.274Z" transform="translate(-12.403 -223.279)" fill="#00cca7"/>
      <path id="Trazado_115672" data-name="Trazado 115672" d="M37.071,547.484a1.983,1.983,0,0,0,1.985-1.985v-6.438a1.983,1.983,0,0,0-1.985-1.985H35.634a48.123,48.123,0,0,0-4.942,10.417h6.379Z" transform="translate(-12.79 -223.804)" fill="#9dd6e5"/>
      <path id="Trazado_115673" data-name="Trazado 115673" d="M40.742,539.922a1.809,1.809,0,0,0-.853-1.529,43.435,43.435,0,0,0-4.3,9.158h3.379c.558-1.267,1.149-2.5,1.774-3.708Z" transform="translate(-14.83 -224.353)" fill="#8bc6d6"/>
      <path id="Trazado_115674" data-name="Trazado 115674" d="M63.5,583.1a11.183,11.183,0,1,1,0-15.816A11.183,11.183,0,0,1,63.5,583.1Z" transform="translate(-18.507 -235.026)" fill="#4d5256"/>
      <path id="Trazado_115675" data-name="Trazado 115675" d="M63.519,583.1a9.947,9.947,0,1,1,0-14.067A9.943,9.943,0,0,1,63.519,583.1Z" transform="translate(-19.393 -235.905)" fill="#3a4245"/>
      <path id="Trazado_115676" data-name="Trazado 115676" d="M65.728,577.854a7.452,7.452,0,1,1-7.452-7.451A7.453,7.453,0,0,1,65.728,577.854Z" transform="translate(-21.179 -237.692)" fill="#a3b5c6"/>
      <path id="Trazado_115677" data-name="Trazado 115677" d="M62.451,571.684a7.452,7.452,0,0,0-10.358,10.349l10.349-10.349Z" transform="translate(-21.172 -237.688)" fill="#ebecf0"/>
      <path id="Trazado_115678" data-name="Trazado 115678" d="M66.765,575.994,56.415,586.343a7.454,7.454,0,0,0,10.358-10.349Z" transform="translate(-23.509 -240.022)" fill="#ebecf0"/>
      <path id="Trazado_115679" data-name="Trazado 115679" d="M132.912,577.275a2.83,2.83,0,0,1-3.371,2.163l-.11-.025a2.838,2.838,0,0,1-2.163-3.379l4.757-18.984a2.834,2.834,0,0,1,3.38-2.163l.1.026a2.833,2.833,0,0,1,2.163,3.379Z" transform="translate(-53.006 -231.198)" fill="#b8c7d8"/>
      <path id="Trazado_115680" data-name="Trazado 115680" d="M166.13,556.641a1.81,1.81,0,0,1-1.808,1.808H139.365a1.808,1.808,0,0,1,0-3.616h24.957A1.809,1.809,0,0,1,166.13,556.641Z" transform="translate(-57.321 -231.204)" fill="#b8c7d8"/>
      <path id="Trazado_115681" data-name="Trazado 115681" d="M159.274,566.826h-9.4a.422.422,0,0,0-.422.422v4.258a.422.422,0,0,0,.422.422h9.4a.423.423,0,0,0,.423-.422v-4.258A.423.423,0,0,0,159.274,566.826Z" transform="translate(-62.276 -236.201)" fill="#b3009d"/>
      <path id="Trazado_115682" data-name="Trazado 115682" d="M149.544,568.767h-8.381V584.49l.82.82h41.711C178.886,574.351,165.419,568.767,149.544,568.767Z" transform="translate(-58.824 -237.01)" fill="#00cca7"/>
      <path id="Trazado_115683" data-name="Trazado 115683" d="M193.466,576.689l7.139,7.14a2.157,2.157,0,0,0,2.332.481A26.554,26.554,0,0,0,193.466,576.689Z" transform="translate(-80.619 -240.311)" fill="#00cca7"/>
      <path id="Trazado_115684" data-name="Trazado 115684" d="M134.017,581.3v6.227h43.122c-4.6-8.913-19.009-13.458-34.216-13.458H134.4l-.794,4.393a9.923,9.923,0,0,1,.414,2.847Z" transform="translate(-55.674 -239.219)" fill="#00cca7"/>
      <path id="Trazado_115685" data-name="Trazado 115685" d="M138.98,558.427a2.527,2.527,0,0,0-1.073-.541l-.093-.026a2.564,2.564,0,0,0-3.05,1.994l-4.376,17.708a2.6,2.6,0,0,0,1.96,3.1l.093.026a2.457,2.457,0,0,0,1.217-.043,3.055,3.055,0,0,0,.135-.422l5.17-20.58a3.006,3.006,0,0,0,.017-1.225Z" transform="translate(-54.309 -232.44)" fill="#00cca7"/>
      <path id="Trazado_115686" data-name="Trazado 115686" d="M163.212,557.817H141.693a1.539,1.539,0,0,0-1.529,1.555,1.682,1.682,0,0,0,.025.3c.085.008.16.025.245.025H164.7a1.966,1.966,0,0,0,.034-.321,1.539,1.539,0,0,0-1.529-1.555Z" transform="translate(-58.408 -232.447)" fill="#00cca7"/>
      <path id="Trazado_115687" data-name="Trazado 115687" d="M180.976,600.174H131.865v-3.033h46.3Z" transform="translate(-54.949 -248.834)" fill="#b8c7d8"/>
      <path id="Trazado_115688" data-name="Trazado 115688" d="M131.865,598.1H179.05l-.887-.955h-46.3Z" transform="translate(-54.949 -248.834)" fill="#a3b5c6"/>
      <path id="Trazado_115689" data-name="Trazado 115689" d="M139.649,588.2h32.628c1.251,0,1.749-.879.946-1.833-4.554-5.39-13.9-8.576-24.678-8.576-7.207,0-9.876,3.025-10.84,8.17a1.892,1.892,0,0,0,1.952,2.239Z" transform="translate(-57.369 -240.77)" fill="#b8c7d8"/>
      <path id="Trazado_115690" data-name="Trazado 115690" d="M154.967,587.26h9.167c1.25,0,1.732-.9.735-1.647a13.793,13.793,0,0,0-8.052-2.188c-1.943,0-2.991.591-3.548,1.656C152.686,586.187,153.725,587.26,154.967,587.26Z" transform="translate(-63.799 -243.118)" fill="#b3009d"/>
      <path id="Trazado_115691" data-name="Trazado 115691" d="M194.958,577.573l5.568,5.567a1.544,1.544,0,0,0,2.18,0l-5.568-5.567Z" transform="translate(-81.241 -240.68)" fill="#9dd6e5"/>
      <path id="Trazado_115692" data-name="Trazado 115692" d="M200.779,582.786a1.541,1.541,0,0,0,1.986.16l-5.373-5.373h-1.825Z" transform="translate(-81.494 -240.68)" fill="#8bc6d6"/>
      <path id="Trazado_115693" data-name="Trazado 115693" d="M32.06,404.886h2.366A1.114,1.114,0,0,1,35.54,406v2.585a1.114,1.114,0,0,1-1.115,1.115H32.068a1.114,1.114,0,0,1-1.115-1.115v-2.593a1.114,1.114,0,0,1,1.115-1.115Z" transform="translate(-12.898 -168.716)" fill="#4c5155"/>
      <path id="Trazado_115694" data-name="Trazado 115694" d="M84.044,404.886h2.366A1.114,1.114,0,0,1,87.524,406v2.585a1.114,1.114,0,0,1-1.115,1.115H84.052a1.114,1.114,0,0,1-1.115-1.115v-2.593a1.114,1.114,0,0,1,1.115-1.115Z" transform="translate(-34.56 -168.716)" fill="#4c5155"/>
      <path id="Trazado_115695" data-name="Trazado 115695" d="M39.943,318.349H30.388c0,3.286,1.31,5.956,3.945,5.956H44.928c8.795,0,17.3-2.67,17.3-5.956Z" transform="translate(-12.663 -132.659)" fill="#9dd6e5"/>
      <path id="Trazado_115696" data-name="Trazado 115696" d="M40.263,323.462H31.156c.583,1.774,1.74,2.974,3.5,2.974H45.248c5.889,0,11.634-1.2,14.793-2.974H40.263Z" transform="translate(-12.983 -134.789)" fill="#00cca7"/>
      <path id="Trazado_115697" data-name="Trazado 115697" d="M34.226,327.648a2.151,2.151,0,0,0,2.154,2.12H50.8a2.151,2.151,0,0,0,2.154-2.12Z" transform="translate(-14.262 -136.534)" fill="#a3b5c6"/>
      <path id="Trazado_115698" data-name="Trazado 115698" d="M52.839,329.7H34.878v6.784H52.839Z" transform="translate(-14.534 -137.39)" fill="#8da3b5"/>
      <path id="Trazado_115699" data-name="Trazado 115699" d="M20.4,355.3H9.531v13.2H20.4Z" transform="translate(-3.972 -148.056)" fill="#8da3b5"/>
      <path id="Trazado_115700" data-name="Trazado 115700" d="M4.638,350.127H1.478A1.479,1.479,0,0,0,0,351.606v16.28a1.479,1.479,0,0,0,1.478,1.479h3.16a1.479,1.479,0,0,0,1.479-1.479v-16.28A1.479,1.479,0,0,0,4.638,350.127Z" transform="translate(0 -145.901)" fill="#b8c7d8"/>
      <path id="Trazado_115701" data-name="Trazado 115701" d="M6.117,367.315c0,.456-.659.82-1.479.82H1.478c-.82,0-1.478-.372-1.478-.82v-9.04c0-.456.659-.82,1.478-.82h3.16c.82,0,1.479.363,1.479.82Z" transform="translate(0 -148.955)" fill="#a3b5c6"/>
      <path id="Trazado_115702" data-name="Trazado 115702" d="M6.117,366.819c0,.127-.659.236-1.479.236H1.478c-.82,0-1.478-.1-1.478-.236v-2.594c0-.127.659-.236,1.478-.236h3.16c.82,0,1.479.1,1.479.236Z" transform="translate(0 -151.677)" fill="#8da3b5"/>
      <path id="Trazado_115703" data-name="Trazado 115703" d="M50.263,339.829H28.61a3.927,3.927,0,0,0-3.929,3.928v32.721a3.927,3.927,0,0,0,3.929,3.928H62.75a3.927,3.927,0,0,0,3.929-3.928V359.894C66.679,356.025,54.995,339.829,50.263,339.829Z" transform="translate(-10.285 -141.61)" fill="#b8c7d8"/>
      <path id="Trazado_115704" data-name="Trazado 115704" d="M26.506,383.8a3.911,3.911,0,0,0,2.864,1.259h34.14a3.927,3.927,0,0,0,3.929-3.929V364.542c0-2.239-3.9-8.592-8.119-13.56Z" transform="translate(-11.045 -146.257)" fill="#a3b5c6"/>
      <path id="Trazado_115705" data-name="Trazado 115705" d="M35.644,400.547H30.33v-4.562Z" transform="translate(-12.639 -165.01)" fill="#fff"/>
      <path id="Trazado_115706" data-name="Trazado 115706" d="M50.574,343.8c4.216,0,14.134,13.315,15.63,18.291v-.532c0-3.574-10.789-18.528-15.157-18.528H31.058a3.608,3.608,0,0,0-2.408.921A3.861,3.861,0,0,1,29.7,343.8Z" transform="translate(-11.939 -142.944)" fill="#fff"/>
      <path id="Trazado_115707" data-name="Trazado 115707" d="M156.8,515.132h-1.732v1.115H156.8Z" transform="translate(-64.618 -214.66)" fill="#3a4245"/>
      <path id="Trazado_115708" data-name="Trazado 115708" d="M192.765,515.132h-1.732v1.115h1.732Z" transform="translate(-79.605 -214.66)" fill="#3a4245"/>
      <path id="Trazado_115709" data-name="Trazado 115709" d="M151.666,457.325h25.827a1.489,1.489,0,0,1,1.487,1.487v31.082a1.489,1.489,0,0,1-1.487,1.487H151.666a1.48,1.48,0,0,1-1.479-1.479V458.821a1.489,1.489,0,0,1,1.487-1.487Z" transform="translate(-62.584 -190.571)" fill="#b8c7d8"/>
      <path id="Trazado_115710" data-name="Trazado 115710" d="M166.773,474.344h3.861a.433.433,0,0,1,.431.431v3.861a.433.433,0,0,1-.431.431h-3.853a.433.433,0,0,1-.431-.431v-3.861a.433.433,0,0,1,.431-.431Z" transform="translate(-69.32 -197.663)" fill="#8da3b5"/>
      <path id="Trazado_115711" data-name="Trazado 115711" d="M166.773,484.121h3.861a.432.432,0,0,1,.431.43v3.861a.432.432,0,0,1-.431.431h-3.853a.433.433,0,0,1-.431-.431v-3.861a.432.432,0,0,1,.431-.43Z" transform="translate(-69.32 -201.737)" fill="#8da3b5"/>
      <path id="Trazado_115712" data-name="Trazado 115712" d="M166.767,493.9h3.853a.432.432,0,0,1,.431.43v3.861a.432.432,0,0,1-.431.43h-3.853a.432.432,0,0,1-.43-.43v-3.861A.432.432,0,0,1,166.767,493.9Z" transform="translate(-69.314 -205.812)" fill="#8da3b5"/>
      <path id="Trazado_115713" data-name="Trazado 115713" d="M166.767,503.689h3.853a.433.433,0,0,1,.431.431v3.861a.433.433,0,0,1-.431.431h-3.853a.433.433,0,0,1-.43-.431V504.12A.433.433,0,0,1,166.767,503.689Z" transform="translate(-69.314 -209.892)" fill="#8da3b5"/>
      <path id="Trazado_115714" data-name="Trazado 115714" d="M176.559,474.344h3.852a.433.433,0,0,1,.431.431v3.861a.433.433,0,0,1-.431.431h-3.852a.433.433,0,0,1-.431-.431v-3.861A.433.433,0,0,1,176.559,474.344Z" transform="translate(-73.394 -197.663)" fill="#8da3b5"/>
      <path id="Trazado_115715" data-name="Trazado 115715" d="M176.553,484.121h3.853a.432.432,0,0,1,.43.43v3.861a.432.432,0,0,1-.43.431h-3.861a.432.432,0,0,1-.43-.431v-3.861a.432.432,0,0,1,.43-.43Z" transform="translate(-73.388 -201.737)" fill="#8da3b5"/>
      <path id="Trazado_115716" data-name="Trazado 115716" d="M176.559,493.9h3.852a.432.432,0,0,1,.431.43v3.861a.432.432,0,0,1-.431.43h-3.852a.432.432,0,0,1-.431-.43v-3.861A.432.432,0,0,1,176.559,493.9Z" transform="translate(-73.394 -205.812)" fill="#8da3b5"/>
      <path id="Trazado_115717" data-name="Trazado 115717" d="M176.559,503.689h3.852a.433.433,0,0,1,.431.431v3.861a.433.433,0,0,1-.431.431h-3.852a.433.433,0,0,1-.431-.431V504.12A.433.433,0,0,1,176.559,503.689Z" transform="translate(-73.394 -209.892)" fill="#8da3b5"/>
      <path id="Trazado_115718" data-name="Trazado 115718" d="M186.33,474.344h3.852a.433.433,0,0,1,.431.431v3.861a.433.433,0,0,1-.431.431h-3.861a.433.433,0,0,1-.431-.431v-3.861a.433.433,0,0,1,.431-.431Z" transform="translate(-77.462 -197.663)" fill="#8da3b5"/>
      <path id="Trazado_115719" data-name="Trazado 115719" d="M186.33,484.121h3.852a.432.432,0,0,1,.431.43v3.861a.433.433,0,0,1-.431.431h-3.861a.433.433,0,0,1-.431-.431v-3.861a.433.433,0,0,1,.431-.43Z" transform="translate(-77.462 -201.737)" fill="#8da3b5"/>
      <path id="Trazado_115720" data-name="Trazado 115720" d="M186.335,493.9h3.853a.432.432,0,0,1,.431.43v3.861a.432.432,0,0,1-.431.43h-3.853a.432.432,0,0,1-.43-.43v-3.861A.432.432,0,0,1,186.335,493.9Z" transform="translate(-77.468 -205.812)" fill="#8da3b5"/>
      <path id="Trazado_115721" data-name="Trazado 115721" d="M186.335,503.689h3.853a.433.433,0,0,1,.431.431v3.861a.433.433,0,0,1-.431.431h-3.853a.433.433,0,0,1-.43-.431v-3.853a.433.433,0,0,1,.43-.431Z" transform="translate(-77.468 -209.892)" fill="#8da3b5"/>
      <path id="Trazado_115722" data-name="Trazado 115722" d="M176.559,474.344h3.852a.433.433,0,0,1,.431.431v3.861a.433.433,0,0,1-.431.431h-3.852a.433.433,0,0,1-.431-.431v-3.861A.433.433,0,0,1,176.559,474.344Z" transform="translate(-73.394 -197.663)" fill="#8da3b5"/>
      <path id="Trazado_115723" data-name="Trazado 115723" d="M176.553,484.121h3.853a.432.432,0,0,1,.43.43v3.861a.432.432,0,0,1-.43.431h-3.861a.432.432,0,0,1-.43-.431v-3.861a.432.432,0,0,1,.43-.43Z" transform="translate(-73.388 -201.737)" fill="#8da3b5"/>
      <path id="Trazado_115724" data-name="Trazado 115724" d="M176.559,493.9h3.852a.432.432,0,0,1,.431.43v3.861a.432.432,0,0,1-.431.43h-3.852a.432.432,0,0,1-.431-.43v-3.861A.432.432,0,0,1,176.559,493.9Z" transform="translate(-73.394 -205.812)" fill="#8da3b5"/>
      <path id="Trazado_115725" data-name="Trazado 115725" d="M176.559,503.689h3.852a.433.433,0,0,1,.431.431v3.861a.433.433,0,0,1-.431.431h-3.852a.433.433,0,0,1-.431-.431V504.12A.433.433,0,0,1,176.559,503.689Z" transform="translate(-73.394 -209.892)" fill="#8da3b5"/>
      <path id="Trazado_115726" data-name="Trazado 115726" d="M186.33,474.344h3.852a.433.433,0,0,1,.431.431v3.861a.433.433,0,0,1-.431.431h-3.861a.433.433,0,0,1-.431-.431v-3.861a.433.433,0,0,1,.431-.431Z" transform="translate(-77.462 -197.663)" fill="#8da3b5"/>
      <path id="Trazado_115727" data-name="Trazado 115727" d="M186.33,484.121h3.852a.432.432,0,0,1,.431.43v3.861a.433.433,0,0,1-.431.431h-3.861a.433.433,0,0,1-.431-.431v-3.861a.433.433,0,0,1,.431-.43Z" transform="translate(-77.462 -201.737)" fill="#8da3b5"/>
      <path id="Trazado_115728" data-name="Trazado 115728" d="M186.335,493.9h3.853a.432.432,0,0,1,.431.43v3.861a.432.432,0,0,1-.431.43h-3.853a.432.432,0,0,1-.43-.43v-3.861A.432.432,0,0,1,186.335,493.9Z" transform="translate(-77.468 -205.812)" fill="#8da3b5"/>
      <path id="Trazado_115729" data-name="Trazado 115729" d="M186.335,503.689h3.853a.433.433,0,0,1,.431.431v3.861a.433.433,0,0,1-.431.431h-3.853a.433.433,0,0,1-.43-.431v-3.853a.433.433,0,0,1,.43-.431Z" transform="translate(-77.468 -209.892)" fill="#8da3b5"/>
      <path id="Trazado_115730" data-name="Trazado 115730" d="M151.659,457.325a1.489,1.489,0,0,0-1.487,1.487v30.28h5.12a1.489,1.489,0,0,0,1.487-1.487V457.333h-5.12Z" transform="translate(-62.578 -190.571)" fill="#8da3b5"/>
      <path id="Trazado_115731" data-name="Trazado 115731" d="M145.179,452.009h6.514a1.481,1.481,0,0,1,1.479,1.479V484.57a1.489,1.489,0,0,1-1.487,1.487H145.17a1.49,1.49,0,0,1-1.487-1.487V453.5a1.49,1.49,0,0,1,1.487-1.487Z" transform="translate(-59.874 -188.356)" fill="#9dd6e5"/>
      <path id="Trazado_115732" data-name="Trazado 115732" d="M166.767,473.324h3.853a.433.433,0,0,1,.431.431v3.853a.433.433,0,0,1-.431.43h-3.853a.432.432,0,0,1-.43-.43v-3.861a.432.432,0,0,1,.43-.43Z" transform="translate(-69.314 -197.235)" fill="#8da3b5"/>
      <path id="Trazado_115733" data-name="Trazado 115733" d="M166.773,483.107h3.861a.433.433,0,0,1,.431.431V487.4a.433.433,0,0,1-.431.431h-3.853a.433.433,0,0,1-.431-.431v-3.861a.433.433,0,0,1,.431-.431Z" transform="translate(-69.32 -201.315)" fill="#8da3b5"/>
      <path id="Trazado_115734" data-name="Trazado 115734" d="M166.767,492.884h3.853a.433.433,0,0,1,.431.43v3.861a.433.433,0,0,1-.431.43h-3.853a.432.432,0,0,1-.43-.43v-3.861A.432.432,0,0,1,166.767,492.884Z" transform="translate(-69.314 -205.389)" fill="#8da3b5"/>
      <path id="Trazado_115735" data-name="Trazado 115735" d="M166.773,502.675h3.861a.433.433,0,0,1,.431.431v3.861a.433.433,0,0,1-.431.431h-3.853a.433.433,0,0,1-.431-.431v-3.861a.433.433,0,0,1,.431-.431Z" transform="translate(-69.32 -209.469)" fill="#8da3b5"/>
      <path id="Trazado_115736" data-name="Trazado 115736" d="M176.553,473.33h3.853a.433.433,0,0,1,.43.431v3.861a.433.433,0,0,1-.43.431h-3.861a.433.433,0,0,1-.43-.431v-3.861a.433.433,0,0,1,.43-.431Z" transform="translate(-73.388 -197.241)" fill="#8da3b5"/>
      <path id="Trazado_115737" data-name="Trazado 115737" d="M176.553,483.107h3.853a.433.433,0,0,1,.43.431V487.4a.433.433,0,0,1-.43.431h-3.861a.433.433,0,0,1-.43-.431v-3.861a.433.433,0,0,1,.43-.431Z" transform="translate(-73.388 -201.315)" fill="#8da3b5"/>
      <path id="Trazado_115738" data-name="Trazado 115738" d="M176.559,492.884h3.852a.433.433,0,0,1,.431.43v3.861a.433.433,0,0,1-.431.43h-3.852a.433.433,0,0,1-.431-.43v-3.861A.432.432,0,0,1,176.559,492.884Z" transform="translate(-73.394 -205.389)" fill="#8da3b5"/>
      <path id="Trazado_115739" data-name="Trazado 115739" d="M176.553,502.675h3.853a.433.433,0,0,1,.43.431v3.861a.433.433,0,0,1-.43.431h-3.861a.433.433,0,0,1-.43-.431v-3.861a.433.433,0,0,1,.43-.431Z" transform="translate(-73.388 -209.469)" fill="#8da3b5"/>
      <path id="Trazado_115740" data-name="Trazado 115740" d="M186.33,473.33h3.852a.433.433,0,0,1,.431.431v3.861a.433.433,0,0,1-.431.431h-3.861a.433.433,0,0,1-.431-.431v-3.861a.433.433,0,0,1,.431-.431Z" transform="translate(-77.462 -197.241)" fill="#8da3b5"/>
      <path id="Trazado_115741" data-name="Trazado 115741" d="M186.33,483.107h3.852a.433.433,0,0,1,.431.431V487.4a.433.433,0,0,1-.431.431h-3.861a.433.433,0,0,1-.431-.431v-3.861a.433.433,0,0,1,.431-.431Z" transform="translate(-77.462 -201.315)" fill="#8da3b5"/>
      <path id="Trazado_115742" data-name="Trazado 115742" d="M186.335,492.884h3.853a.432.432,0,0,1,.431.43v3.861a.433.433,0,0,1-.431.43h-3.853a.432.432,0,0,1-.43-.43v-3.853a.432.432,0,0,1,.43-.431Z" transform="translate(-77.468 -205.389)" fill="#8da3b5"/>
      <path id="Trazado_115743" data-name="Trazado 115743" d="M186.33,502.675h3.852a.433.433,0,0,1,.431.431v3.861a.433.433,0,0,1-.431.431h-3.861a.433.433,0,0,1-.431-.431v-3.853a.433.433,0,0,1,.431-.43Z" transform="translate(-77.462 -209.469)" fill="#8da3b5"/>
      <path id="Trazado_115744" data-name="Trazado 115744" d="M166.767,462.3h15.444a.432.432,0,0,1,.43.431v3.853a.433.433,0,0,1-.43.431H166.767a.432.432,0,0,1-.43-.431v-3.861a.433.433,0,0,1,.43-.431Z" transform="translate(-69.314 -192.641)" fill="#3a4245"/>
      <path id="Trazado_115745" data-name="Trazado 115745" d="M328.414,388.108l.272-.116a.133.133,0,0,1,.177.071l.454,1.065a.133.133,0,0,1-.071.177l-.272.116a.134.134,0,0,1-.177-.071l-.454-1.064A.134.134,0,0,1,328.414,388.108Z" transform="translate(-136.818 -161.675)" fill="#b8c7d8"/>
      <path id="Trazado_115746" data-name="Trazado 115746" d="M328.354,387.478l.454-1.065a.133.133,0,0,1,.177-.071l.272.116a.133.133,0,0,1,.071.177l-.454,1.065a.134.134,0,0,1-.178.071l-.272-.116A.133.133,0,0,1,328.354,387.478Z" transform="translate(-136.823 -160.987)" fill="#b8c7d8"/>
      <path id="Trazado_115747" data-name="Trazado 115747" d="M328.516,388.348a.579.579,0,0,1-1.158,0V385.9a.575.575,0,0,1,.575-.575.583.583,0,0,1,.583.575Z" transform="translate(-136.413 -160.568)" fill="#fff"/>
      <path id="Trazado_115748" data-name="Trazado 115748" d="M280.714,410.911a.923.923,0,0,1-.921.921h-1.064a.921.921,0,0,1,0-1.841h1.064A.923.923,0,0,1,280.714,410.911Z" transform="translate(-115.765 -170.847)" fill="#1f2426"/>
      <path id="Trazado_115749" data-name="Trazado 115749" d="M313.318,410.911a.923.923,0,0,1-.921.921h-1.065a.921.921,0,0,1,0-1.841H312.4A.923.923,0,0,1,313.318,410.911Z" transform="translate(-129.351 -170.847)" fill="#1f2426"/>
      <path id="Trazado_115750" data-name="Trazado 115750" d="M273.679,370.13a5.34,5.34,0,0,0,10.68,0h-10.68Z" transform="translate(-114.044 -154.236)" fill="#8da3b5"/>
      <path id="Trazado_115751" data-name="Trazado 115751" d="M276.63,370.13h-.778c0,2.949,1.825,5.339,4.072,5.339a2.914,2.914,0,0,0,.389-.026C278.252,375.191,276.63,372.909,276.63,370.13Z" transform="translate(-114.95 -154.236)" fill="#b8c7d8"/>
      <path id="Trazado_115752" data-name="Trazado 115752" d="M309.222,363.477c-4.2.718-6.4,6.945-5.111,14.481a1.538,1.538,0,0,0,3.033-.515c-1-5.83.549-10.578,2.6-10.933.929-.16,2.137.633,3.219,2.112l2.484-1.816C313.607,364.288,311.393,363.106,309.222,363.477Z" transform="translate(-126.573 -151.436)" fill="#b3009d"/>
      <path id="Trazado_115753" data-name="Trazado 115753" d="M315.8,382.3a1.752,1.752,0,0,1-.3-.025,1.541,1.541,0,0,1-1.216-1.808,18.979,18.979,0,0,0-.026-6.7,17.617,17.617,0,0,0-2.847-7.333c-1.09-1.487-2.289-2.273-3.227-2.112-2.044.346-3.591,5.094-2.594,10.932a1.538,1.538,0,1,1-3.033.516c-1.284-7.536.912-13.763,5.111-14.481,2.163-.372,4.376.811,6.218,3.329a20.7,20.7,0,0,1,3.4,8.634,22.023,22.023,0,0,1,.017,7.806,1.537,1.537,0,0,1-1.512,1.242Z" transform="translate(-125.928 -150.525)" fill="#b3009d"/>
      <path id="Trazado_115754" data-name="Trazado 115754" d="M287.4,355.82c-7.114,0-12.884,14.134-12.884,31.581h25.768C300.288,369.962,294.518,355.82,287.4,355.82Z" transform="translate(-114.395 -148.273)" fill="#b8c7d8"/>
      <path id="Trazado_115755" data-name="Trazado 115755" d="M298.49,360.384a16.023,16.023,0,0,0-1.115-1.453,6.722,6.722,0,0,0-10.95,0,17.268,17.268,0,0,0-1.115,1.453h13.18Z" transform="translate(-118.891 -148.394)" fill="#b5b5b5"/>
      <path id="Trazado_115756" data-name="Trazado 115756" d="M302.025,363.453c2.467,6.2,4.056,15.951,4.056,26.925h1.909c0-11.431-1.791-21.434-4.469-26.925Z" transform="translate(-125.856 -151.454)" fill="#fff"/>
      <path id="Trazado_115757" data-name="Trazado 115757" d="M274.52,408.7v.727a.888.888,0,0,0,.8.955h24.171a.894.894,0,0,0,.8-.955V408.7H274.52Z" transform="translate(-114.395 -170.309)" fill="#3a4245"/>
      <path id="Trazado_115758" data-name="Trazado 115758" d="M298.344,359.262c-1.884-2.433-4.038-3.819-6.319-3.819s-4.427,1.377-6.319,3.819c-.194.253-.085.464.228.464h12.174c.321,0,.422-.211.228-.464Z" transform="translate(-119.015 -148.116)" fill="#4d5256"/>
      <path id="Trazado_115759" data-name="Trazado 115759" d="M298.433,355.747a19.173,19.173,0,0,1,2.044,3.836h1.437C300.867,357.546,299.684,356.212,298.433,355.747Z" transform="translate(-124.36 -148.243)" fill="#fff"/>
    </g>
  </g>
</svg>
