<svg xmlns="http://www.w3.org/2000/svg" width="101" height="101" viewBox="0 0 101 101">
  <g id="Grupo_81665" data-name="Grupo 81665" transform="translate(-750 -1971)">
    <g id="Grupo_81664" data-name="Grupo 81664" transform="translate(113 975)">
      <g id="Grupo_81656" data-name="Grupo 81656">
        <g id="Grupo_81659" data-name="Grupo 81659">
          <circle id="Elipse_1142" data-name="Elipse 1142" cx="50.5" cy="50.5" r="50.5" transform="translate(637 996)" fill="#b3009d"/>
        </g>
      </g>
    </g>
    <g id="Grupo_81662" data-name="Grupo 81662">
      <g id="Group_10_1_" data-name="Group 10 (1)" transform="translate(772.881 1993)">
        <path id="Trazado_117996" data-name="Trazado 117996" d="M467.689,374.151a6.362,6.362,0,0,1-6.356-6.356,6.357,6.357,0,1,1,12.712,0A6.362,6.362,0,0,1,467.689,374.151Z" transform="translate(-424.68 -332.625)" fill="#f6a96c"/>
        <path id="Trazado_117997" data-name="Trazado 117997" d="M439.373,522.667a11.039,11.039,0,0,0-6.466,2.1l-2.333,5.271,4.033,5.337h16V533.79A11.214,11.214,0,0,0,439.373,522.667Z" transform="translate(-396.364 -481.141)" fill="#b3ddff"/>
        <path id="Trazado_117998" data-name="Trazado 117998" d="M8.051,13.423,3.129,16l.934-5.643L0,6.494,5.633,5.7,8.051,0l2.477,5.7L16,6.494l-3.957,3.859L12.973,16Z" fill="#fdbf00"/>
        <path id="Trazado_117999" data-name="Trazado 117999" d="M253.25,10.339,254.2,16l-4.926-2.574L244.352,16l.953-5.657-3.973-3.845,5.53-.794L249.278,0l2.479,5.7,5.466.794Z" transform="translate(-222.159)" fill="#fdbf00"/>
        <path id="Trazado_118000" data-name="Trazado 118000" d="M489.278,13.423,484.356,16l.934-5.643-3.957-3.859L486.86,5.7,489.278,0l2.477,5.7,5.574.794-4.063,3.859L494.2,16Z" transform="translate(-443.091)" fill="#fdbf00"/>
        <path id="Trazado_118001" data-name="Trazado 118001" d="M67.689,374.151a6.362,6.362,0,0,1-6.356-6.356,6.357,6.357,0,1,1,12.712,0A6.362,6.362,0,0,1,67.689,374.151Z" transform="translate(-56.46 -332.625)" fill="#ffbd86"/>
        <path id="Trazado_118002" data-name="Trazado 118002" d="M11.229,522.667A11.214,11.214,0,0,0,0,533.79v1.589H16l3.942-4.767L17.7,524.771A11.037,11.037,0,0,0,11.229,522.667Z" transform="translate(0 -481.141)" fill="#04dab3"/>
        <path id="Trazado_118003" data-name="Trazado 118003" d="M346.259,16l-4.926-2.574V0l2.479,5.7,5.466.794-3.972,3.845Z" transform="translate(-314.214)" fill="#fdbf00"/>
        <g id="Grupo_81661" data-name="Grupo 81661">
          <path id="Trazado_118004" data-name="Trazado 118004" d="M267.689,321.333a6.375,6.375,0,0,0-6.356,6.356,6.466,6.466,0,0,0,6.356,6.462c3.5,0,6.356-6.462,6.356-6.462S271.185,321.333,267.689,321.333Z" transform="translate(-240.57 -295.803)" fill="#fed2a4"/>
        </g>
        <path id="Trazado_118005" data-name="Trazado 118005" d="M223.579,493.79v4.767H201.333V493.79a11.123,11.123,0,0,1,22.246,0Z" transform="translate(-185.337 -444.319)" fill="#cf00b5"/>
      </g>
    </g>
  </g>
</svg>
