<svg xmlns="http://www.w3.org/2000/svg" width="450.815" height="377.873" viewBox="0 0 450.815 377.873">
  <g id="Grupo_81636" data-name="Grupo 81636" transform="translate(-895.049 -125)">
    <g id="Group_28_" data-name="Group (28)" transform="translate(894.051 124.795)">
      <path id="Trazado_114715" data-name="Trazado 114715" d="M358.072,114.034l-.039-.013c-.36-.13-.726-.244-1.095-.351-.126-.037-.251-.073-.378-.107s-.269-.066-.4-.1-.274-.066-.413-.1-.263-.053-.392-.078c-.146-.027-.295-.054-.443-.08-.125-.021-.253-.041-.379-.059-.159-.023-.322-.043-.483-.062-.119-.014-.235-.027-.354-.039-.185-.019-.369-.03-.557-.043l-.294-.021c-.288-.014-.575-.023-.865-.023H219.159c-.31,0-.616.007-.922.023q-.916.048-1.807.182-.445.069-.883.158a17.9,17.9,0,0,0-14.3,17.547V402.32a17.915,17.915,0,0,0,11.814,16.844c.03.011.062.021.091.032.342.121.689.231,1.04.333.126.036.253.073.381.107s.269.066.4.1.274.066.413.1.263.053.392.077c.148.028.295.055.442.08.126.021.253.041.379.059.159.023.321.044.483.062.118.014.235.027.353.039.185.018.37.03.557.043.1.007.2.014.294.018.285.014.575.023.864.023H351.975a17.908,17.908,0,0,0,17.911-17.912V130.878A17.916,17.916,0,0,0,358.072,114.034Z" transform="translate(-79.373 -44.694)" fill="#13375b"/>
      <path id="Trazado_114716" data-name="Trazado 114716" d="M363.09,151.866H211.818V410.307H363.09Z" transform="translate(-83.563 -60.114)" fill="#e1f0ff"/>
      <path id="Trazado_114717" data-name="Trazado 114717" d="M301.658,132.071H344.74a1.085,1.085,0,0,1,1.083,1.084v1.07a1.085,1.085,0,0,1-1.083,1.084H301.658a1.085,1.085,0,0,1-1.083-1.084v-1.07A1.085,1.085,0,0,1,301.658,132.071Z" transform="translate(-118.744 -52.268)" fill="#fff" opacity="0.6"/>
      <path id="Trazado_114718" data-name="Trazado 114718" d="M363.09,151.866H211.818V165.58H363.09Z" transform="translate(-83.563 -60.114)" fill="#bcdeff" opacity="0.2"/>
      <path id="Trazado_114719" data-name="Trazado 114719" d="M363.09,562.051H211.818v10.842H363.09Z" transform="translate(-83.563 -222.7)" fill="#bcdeff"/>
      <path id="Trazado_114720" data-name="Trazado 114720" d="M613.862,45.949l-2.694,15.142,11.167-7.423,33.859-15.455-25.716,1.214s-13.187,2.594-13.922,3.2A31.8,31.8,0,0,0,613.862,45.949Z" transform="translate(-241.854 -15.065)" fill="#ffdc9d"/>
      <path id="Trazado_114721" data-name="Trazado 114721" d="M597.518,34.963l53.268,1.962L608.451,44.66Z" transform="translate(-236.444 -13.777)" fill="#f7cc7f"/>
      <path id="Trazado_114722" data-name="Trazado 114722" d="M634.033,62.026,620.574,50.2l39.35-11.99Z" transform="translate(-245.583 -15.065)" fill="#f7cc7f"/>
      <path id="Trazado_114723" data-name="Trazado 114723" d="M488.561,108.354a33.624,33.624,0,0,1,.851-3.608c.322-1.095.705-2.2,1.141-3.272l1.163.47c-.419,1.036-.789,2.1-1.1,3.155a32.8,32.8,0,0,0-.819,3.474c-.062.34-.116.682-.167,1.024l-1.243-.182c.052-.361.112-.719.173-1.063Zm5.872-14.122a47.837,47.837,0,0,1,5.171-6.362l.9.869a46.453,46.453,0,0,0-5.037,6.2l-1.04-.7Zm39.877-.746c-.071-.05-.141-.1-.21-.15l.741-1.013c.062.045.121.089.173.126a.793.793,0,0,0,.126.045,5.774,5.774,0,0,0,3.5-.281A5.321,5.321,0,0,0,540.773,90l1.1.6a6.639,6.639,0,0,1-2.637,2.715,6.979,6.979,0,0,1-4.451.379,1.609,1.609,0,0,1-.474-.212ZM505.7,82.4a65.632,65.632,0,0,1,6.764-4.6l.641,1.079a64.035,64.035,0,0,0-6.634,4.51Zm24.032,1.077a15.268,15.268,0,0,1,.618-3.661,18.1,18.1,0,0,1,.718-1.991l1.154.493a17.04,17.04,0,0,0-.668,1.852,14.056,14.056,0,0,0-.568,3.36,11.648,11.648,0,0,0,.144,2.352l-1.239.2A12.819,12.819,0,0,1,529.735,83.48Zm6.3-6.12-.155-.082.584-1.111.168.089a12.617,12.617,0,0,1,5.607,5.97l-1.154.491a11.352,11.352,0,0,0-5.048-5.356Zm-15.822-2.4a28.818,28.818,0,0,1,5.313-.979c1.038,0,1.987.027,2.9.1l-.094,1.252c-.883-.066-1.8-.1-2.8-.091a25.793,25.793,0,0,0-5,.94l-.313-1.216Zm15.45-4.017A28.077,28.077,0,0,1,542.13,65.8l.63,1.086a26.864,26.864,0,0,0-6.175,4.911Z" transform="translate(-193.188 -26)" fill="#13375b"/>
      <path id="Trazado_114724" data-name="Trazado 114724" d="M590.43,61.606a24.124,24.124,0,0,1,3.992-.573l-.071-1.252a25.394,25.394,0,0,0-4.2.6Z" transform="translate(-233.524 -23.614)" fill="#13375b"/>
      <path id="Trazado_114725" data-name="Trazado 114725" d="M133.217,70.425l-2.653,2.965.94,3.867a.388.388,0,0,1-.534.447L127.329,76.1l-3.388,2.087a.387.387,0,0,1-.589-.37l.4-3.958-3.031-2.575a.388.388,0,0,1,.169-.675l3.889-.839,1.513-3.68a.387.387,0,0,1,.693-.048l2,3.438,3.967.3a.388.388,0,0,1,.26.646Z" transform="translate(-47.401 -26.019)" fill="#12263f"/>
      <path id="Trazado_114726" data-name="Trazado 114726" d="M483.268,6.388l-3.581,4,1.268,5.219a.524.524,0,0,1-.721.6l-4.914-2.169-4.572,2.82a.524.524,0,0,1-.8-.5l.543-5.345-4.1-3.477a.523.523,0,0,1,.228-.91L471.88,5.5,473.922.53a.524.524,0,0,1,.937-.064l2.7,4.642,5.356.406a.524.524,0,0,1,.351.871Z" transform="translate(-184.399 0)" fill="#f7cc7f"/>
      <path id="Trazado_114727" data-name="Trazado 114727" d="M238.461,27.374l2.858-4.656-2.3-.931a.983.983,0,1,1,.737-1.823l2.653,1.072,2.555-4.181-2.459-.992a.983.983,0,0,1,.737-1.823l2.81,1.136,2.968-4.788a.985.985,0,0,1,1.2-.395l.429.173a.984.984,0,0,1,.47,1.426l-2.76,4.519,4.076,1.647,2.968-4.788a.986.986,0,0,1,1.2-.395l.468.189a.984.984,0,0,1,.47,1.426l-2.76,4.519,2.3.931a.983.983,0,0,1-.737,1.823L253.7,20.391l-2.516,4.2,2.459.992A.983.983,0,0,1,252.9,27.4l-2.811-1.136-3.031,4.939a.984.984,0,0,1-1.207.4l-.5-.2a.984.984,0,0,1-.47-1.426l2.858-4.656-4.076-1.647-3.032,4.939a.984.984,0,0,1-1.207.4l-.5-.2a.984.984,0,0,1-.47-1.426Zm10.375-3.741,2.555-4.181L247.316,17.8l-2.555,4.181,4.076,1.647Z" transform="translate(-94.064 -3.852)" fill="#ffd947"/>
      <path id="Trazado_114728" data-name="Trazado 114728" d="M723.055,137.919l2.215-3.608-1.784-.721a.762.762,0,0,1,.57-1.414l2.057.831,1.981-3.239L726.189,129a.762.762,0,1,1,.57-1.414l2.179.881,2.3-3.712a.762.762,0,0,1,.933-.305l.333.135a.763.763,0,0,1,.365,1.1l-2.139,3.5,3.157,1.275,2.3-3.711a.763.763,0,0,1,.933-.306l.363.146a.763.763,0,0,1,.365,1.1l-2.139,3.5,1.784.721a.762.762,0,1,1-.57,1.414l-2.058-.83-1.95,3.253,1.905.768a.762.762,0,0,1-.57,1.414l-2.179-.88-2.35,3.825a.761.761,0,0,1-.935.308l-.388-.157a.763.763,0,0,1-.365-1.106l2.215-3.609-3.157-1.275-2.349,3.825a.763.763,0,0,1-.936.308l-.387-.157a.763.763,0,0,1-.365-1.106Zm8.039-2.9,1.98-3.239-3.157-1.275-1.98,3.239Z" transform="translate(-286.157 -49.224)" fill="#f7cc7f"/>
      <path id="Trazado_114729" data-name="Trazado 114729" d="M451.072,174.586H310.292a8.463,8.463,0,0,0-8.463,8.463V436.192a8.463,8.463,0,0,0,8.463,8.463h140.78a8.463,8.463,0,0,0,8.464-8.463V183.049A8.464,8.464,0,0,0,451.072,174.586Z" transform="translate(-119.241 -69.12)" fill="#ffd947"/>
      <path id="Trazado_114730" data-name="Trazado 114730" d="M317.926,236.22h-2.534v67.046h2.534Z" transform="translate(-124.617 -93.55)" fill="#12263f"/>
      <path id="Trazado_114731" data-name="Trazado 114731" d="M355.685,420.271H341.978l-.041-.023-17.984-10.464.167-.326L342.064,419.9h13.621Z" transform="translate(-128.01 -162.216)" fill="#ffca00"/>
      <path id="Trazado_114732" data-name="Trazado 114732" d="M355.685,439.569H341.978l-.041-.023-17.984-10.464.167-.328L342.064,439.2h13.621Z" transform="translate(-128.01 -169.865)" fill="#ffca00"/>
      <path id="Trazado_114733" data-name="Trazado 114733" d="M355.685,461.167H341.978l-.041-.023L323.952,450.68l.167-.328L342.064,460.8h13.621Z" transform="translate(-128.01 -178.426)" fill="#ffca00"/>
      <path id="Trazado_114734" data-name="Trazado 114734" d="M355.685,481.481H341.978l-.041-.021-17.984-10.466.167-.327,17.946,10.441h13.621Z" transform="translate(-128.01 -186.478)" fill="#ffca00"/>
      <path id="Trazado_114735" data-name="Trazado 114735" d="M322.1,427.065h-4.124v2.37H322.1Z" transform="translate(-125.642 -169.195)" fill="#ffd947"/>
      <path id="Trazado_114736" data-name="Trazado 114736" d="M322.1,423.974h-4.124v1.863H322.1Z" transform="translate(-125.642 -167.97)" fill="#12263f"/>
      <path id="Trazado_114737" data-name="Trazado 114737" d="M322.1,430.991h-4.124v1.864H322.1Z" transform="translate(-125.642 -170.752)" fill="#12263f"/>
      <path id="Trazado_114738" data-name="Trazado 114738" d="M322.1,448.659h-4.124v2.37H322.1Z" transform="translate(-125.642 -177.755)" fill="#ffd947"/>
      <path id="Trazado_114739" data-name="Trazado 114739" d="M322.1,445.571h-4.124v1.864H322.1Z" transform="translate(-125.642 -176.531)" fill="#12263f"/>
      <path id="Trazado_114740" data-name="Trazado 114740" d="M322.1,452.589h-4.124v1.864H322.1Z" transform="translate(-125.642 -179.312)" fill="#12263f"/>
      <path id="Trazado_114741" data-name="Trazado 114741" d="M322.1,468.975h-4.124v2.37H322.1Z" transform="translate(-125.642 -185.807)" fill="#ffd947"/>
      <path id="Trazado_114742" data-name="Trazado 114742" d="M322.1,465.888h-4.124v1.863H322.1Z" transform="translate(-125.642 -184.584)" fill="#12263f"/>
      <path id="Trazado_114743" data-name="Trazado 114743" d="M322.1,472.9h-4.124v1.863H322.1Z" transform="translate(-125.642 -187.364)" fill="#12263f"/>
      <path id="Trazado_114744" data-name="Trazado 114744" d="M322.1,407.765h-4.124v2.37H322.1Z" transform="translate(-125.642 -161.545)" fill="#ffd947"/>
      <path id="Trazado_114745" data-name="Trazado 114745" d="M322.1,404.677h-4.124v1.864H322.1Z" transform="translate(-125.642 -160.321)" fill="#12263f"/>
      <path id="Trazado_114746" data-name="Trazado 114746" d="M322.1,411.691h-4.124v1.864H322.1Z" transform="translate(-125.642 -163.102)" fill="#12263f"/>
      <path id="Trazado_114747" data-name="Trazado 114747" d="M462.677,326.108h-.522V287.171l-28.741-15.8.239-.495,29.024,15.954Z" transform="translate(-171.398 -107.286)" fill="#ffca00"/>
      <path id="Trazado_114748" data-name="Trazado 114748" d="M464.714,408.2H398V326.28h.523v81.362h66.188Z" transform="translate(-157.362 -129.247)" fill="#ffca00"/>
      <path id="Trazado_114749" data-name="Trazado 114749" d="M469.762,477.962H410.739v.559h59.023Z" transform="translate(-162.41 -189.369)" fill="#ffca00"/>
      <path id="Trazado_114750" data-name="Trazado 114750" d="M486.7,516.346H453.477v.559H486.7Z" transform="translate(-179.35 -204.584)" fill="#ffca00"/>
      <path id="Trazado_114751" data-name="Trazado 114751" d="M422.762,511.192l-.436-.31,7.292-11.718h44.737v.559H429.9Z" transform="translate(-167.003 -197.773)" fill="#ffca00"/>
      <path id="Trazado_114752" data-name="Trazado 114752" d="M464.82,538.617H452.26v-.559H464.3V521.316h20.684v.559H464.82Z" transform="translate(-178.868 -206.554)" fill="#ffca00"/>
      <path id="Trazado_114753" data-name="Trazado 114753" d="M422.752,525.817l-.37-.394,8.066-8.632V486.465h43.929v.559H430.971v30Z" transform="translate(-167.025 -192.74)" fill="#ffca00"/>
      <path id="Trazado_114754" data-name="Trazado 114754" d="M478.829,448.372H433.614v.558h45.215Z" transform="translate(-171.477 -177.641)" fill="#ffca00"/>
      <path id="Trazado_114755" data-name="Trazado 114755" d="M501.324,416.745h-17.2V392.131h.522v24.055h16.68Z" transform="translate(-191.497 -155.349)" fill="#ffca00"/>
      <path id="Trazado_114756" data-name="Trazado 114756" d="M498.1,423.158H478.929V393.907h.523V422.6H498.1Z" transform="translate(-189.438 -156.052)" fill="#ffca00"/>
      <path id="Trazado_114757" data-name="Trazado 114757" d="M499.185,413.02h-7.758V392.131h.522v20.33h7.236Z" transform="translate(-194.392 -155.349)" fill="#ffca00"/>
      <path id="Trazado_114758" data-name="Trazado 114758" d="M521.107,409.166h-.522V388.827L508.2,374.093l.388-.374,12.521,14.894Z" transform="translate(-201.04 -148.051)" fill="#ffca00"/>
      <path id="Trazado_114759" data-name="Trazado 114759" d="M527.325,397.131H526.8v-24.1l-18.589-19.89.37-.4,18.742,20.056Z" transform="translate(-201.046 -139.739)" fill="#ffca00"/>
      <path id="Trazado_114760" data-name="Trazado 114760" d="M524.764,403.9h-.523V380.929L510.4,367.106l.356-.409,14.007,13.988Z" transform="translate(-201.913 -145.267)" fill="#ffca00"/>
      <path id="Trazado_114761" data-name="Trazado 114761" d="M456.4,328.139h-.522V296.65l-22.465-12.214.235-.5L456.4,296.307Z" transform="translate(-171.399 -112.464)" fill="#ffca00"/>
      <path id="Trazado_114762" data-name="Trazado 114762" d="M471.276,317.109h-.523V282.5l-36.312-19.666.235-.5,36.6,19.824Z" transform="translate(-171.805 -103.9)" fill="#ffca00"/>
      <g id="Grupo_81421" data-name="Grupo 81421" transform="translate(278.498 205.989)">
        <path id="Trazado_114763" data-name="Trazado 114763" d="M495.216,378.031V341.117h-34.5v36.914Z" transform="translate(-460.718 -341.117)" fill="#ffd947"/>
      </g>
      <path id="Trazado_114764" data-name="Trazado 114764" d="M494.5,344.824H464.176v32.445H494.5Z" transform="translate(-183.591 -136.597)" fill="#12263f"/>
      <g id="Grupo_81422" data-name="Grupo 81422" transform="translate(198.433 139.688)">
        <path id="Trazado_114765" data-name="Trazado 114765" d="M396.306,304.285v-73H328.078v73Z" transform="translate(-328.078 -231.28)" fill="#ffd947"/>
      </g>
      <path id="Trazado_114766" data-name="Trazado 114766" d="M395.591,234.988H331.54v68.535h64.051Z" transform="translate(-131.018 -93.061)" fill="#12263f"/>
      <g id="Grupo_81423" data-name="Grupo 81423" transform="translate(221.06 252.737)">
        <path id="Trazado_114767" data-name="Trazado 114767" d="M408.728,464.749V418.562H365.563v46.187Z" transform="translate(-365.563 -418.562)" fill="#ffd947"/>
      </g>
      <path id="Trazado_114768" data-name="Trazado 114768" d="M408.013,422.262H369.025v41.716h38.988Z" transform="translate(-145.876 -167.292)" fill="#12263f"/>
      <g id="Grupo_81424" data-name="Grupo 81424" transform="translate(246.239 306.808)">
        <path id="Trazado_114769" data-name="Trazado 114769" d="M422.671,524.608v-16.47H407.277v16.47Z" transform="translate(-407.277 -508.138)" fill="#ffd947"/>
      </g>
      <path id="Trazado_114770" data-name="Trazado 114770" d="M421.956,511.838H410.739v12h11.217Z" transform="translate(-162.41 -202.797)" fill="#12263f"/>
      <g id="Grupo_81425" data-name="Grupo 81425" transform="translate(265.693 306.808)">
        <path id="Trazado_114771" data-name="Trazado 114771" d="M454.9,524.608v-16.47H439.505v16.47Z" transform="translate(-439.505 -508.138)" fill="#ffd947"/>
      </g>
      <path id="Trazado_114772" data-name="Trazado 114772" d="M454.184,511.838H442.967v12h11.217Z" transform="translate(-175.184 -202.797)" fill="#12263f"/>
      <g id="Grupo_81426" data-name="Grupo 81426" transform="translate(246.239 326.547)">
        <path id="Trazado_114773" data-name="Trazado 114773" d="M422.671,557.309v-16.47H407.277v16.47Z" transform="translate(-407.277 -540.839)" fill="#ffd947"/>
      </g>
      <path id="Trazado_114774" data-name="Trazado 114774" d="M421.956,544.542H410.739v12h11.217Z" transform="translate(-162.41 -215.76)" fill="#12263f"/>
      <g id="Grupo_81427" data-name="Grupo 81427" transform="translate(265.693 326.549)">
        <path id="Trazado_114775" data-name="Trazado 114775" d="M454.9,557.313v-16.47H439.505v16.47Z" transform="translate(-439.505 -540.843)" fill="#ffd947"/>
      </g>
      <path id="Trazado_114776" data-name="Trazado 114776" d="M454.184,544.542H442.967v12h11.217Z" transform="translate(-175.184 -215.76)" fill="#12263f"/>
      <g id="Grupo_81428" data-name="Grupo 81428" transform="translate(300.415 252.737)">
        <path id="Trazado_114777" data-name="Trazado 114777" d="M497.027,485.768V418.562h31.33v14.3h-5.934v38.614h5.934v14.3Z" transform="translate(-497.027 -418.562)" fill="#ffd947"/>
      </g>
      <path id="Trazado_114778" data-name="Trazado 114778" d="M521.708,475.174V432.091h5.931v-9.829H500.489V485H527.64v-9.828Z" transform="translate(-197.984 -167.292)" fill="#12263f"/>
      <path id="Trazado_114779" data-name="Trazado 114779" d="M544.023,444.509h-8.381v5.224h8.381Z" transform="translate(-211.918 -176.11)" fill="#12263f"/>
      <path id="Trazado_114780" data-name="Trazado 114780" d="M544.023,457.207h-8.381v5.224h8.381Z" transform="translate(-211.918 -181.143)" fill="#12263f"/>
      <path id="Trazado_114781" data-name="Trazado 114781" d="M544.023,469.9h-8.381v5.224h8.381Z" transform="translate(-211.918 -186.176)" fill="#12263f"/>
      <path id="Trazado_114782" data-name="Trazado 114782" d="M544.023,482.6h-8.381v5.224h8.381Z" transform="translate(-211.918 -191.209)" fill="#12263f"/>
      <path id="Trazado_114783" data-name="Trazado 114783" d="M544.023,495.3h-8.381v5.224h8.381Z" transform="translate(-211.918 -196.242)" fill="#12263f"/>
      <path id="Trazado_114784" data-name="Trazado 114784" d="M514.2,228.528c7.742,0,14.017-6.715,14.017-15s-6.276-15-14.017-15-14.018,6.715-14.018,15S506.455,228.528,514.2,228.528Z" transform="translate(-197.861 -78.611)" fill="#12263f"/>
      <path id="Trazado_114785" data-name="Trazado 114785" d="M515.823,227.618c6.375,0,11.543-5.529,11.543-12.35s-5.168-12.35-11.543-12.35-11.543,5.53-11.543,12.35S509.448,227.618,515.823,227.618Z" transform="translate(-199.487 -80.35)" fill="#1b755e"/>
      <path id="Trazado_114786" data-name="Trazado 114786" d="M516.742,227.1c5.6,0,10.142-4.859,10.142-10.854S522.343,205.4,516.742,205.4s-10.142,4.86-10.142,10.854S511.141,227.1,516.742,227.1Z" transform="translate(-200.407 -81.332)" fill="#12263f"/>
      <path id="Trazado_114787" data-name="Trazado 114787" d="M517.5,226.678c4.961,0,8.983-4.3,8.983-9.611s-4.022-9.61-8.983-9.61-8.983,4.3-8.983,9.61S512.541,226.678,517.5,226.678Z" transform="translate(-201.167 -82.149)" fill="#1b755e"/>
      <path id="Trazado_114788" data-name="Trazado 114788" d="M519.9,225.335a5.714,5.714,0,1,0-5.326-5.7A5.523,5.523,0,0,0,519.9,225.335Z" transform="translate(-203.569 -84.716)" fill="#12263f"/>
      <path id="Trazado_114789" data-name="Trazado 114789" d="M328.42,511.838H317.977v6H328.42Z" transform="translate(-125.642 -202.797)" fill="#ffd947"/>
      <path id="Trazado_114790" data-name="Trazado 114790" d="M328.42,504.023H317.977v4.717H328.42Z" transform="translate(-125.642 -199.699)" fill="#12263f"/>
      <path id="Trazado_114791" data-name="Trazado 114791" d="M328.42,521.781H317.977V526.5H328.42Z" transform="translate(-125.642 -206.738)" fill="#12263f"/>
      <path id="Trazado_114792" data-name="Trazado 114792" d="M355.524,539.573H345.081v6h10.443Z" transform="translate(-136.385 -213.79)" fill="#ffd947"/>
      <path id="Trazado_114793" data-name="Trazado 114793" d="M355.524,531.758H345.081v4.717h10.443Z" transform="translate(-136.385 -210.693)" fill="#12263f"/>
      <path id="Trazado_114794" data-name="Trazado 114794" d="M355.524,549.512H345.081v4.717h10.443Z" transform="translate(-136.385 -217.73)" fill="#12263f"/>
      <path id="Trazado_114795" data-name="Trazado 114795" d="M391.576,520.715H381.133v6h10.443Z" transform="translate(-150.675 -206.316)" fill="#ffd947"/>
      <path id="Trazado_114796" data-name="Trazado 114796" d="M391.576,512.9H381.133v4.717h10.443Z" transform="translate(-150.675 -203.218)" fill="#12263f"/>
      <path id="Trazado_114797" data-name="Trazado 114797" d="M391.576,530.658H381.133v4.717h10.443Z" transform="translate(-150.675 -210.257)" fill="#12263f"/>
      <path id="Trazado_114798" data-name="Trazado 114798" d="M375.3,380.217V369.044H369.69v11.173Z" transform="translate(-146.139 -146.197)" fill="#ffd947"/>
      <path id="Trazado_114799" data-name="Trazado 114799" d="M383.385,380.221V369.048h-4.409v11.173Z" transform="translate(-149.82 -146.199)" fill="#12263f"/>
      <path id="Trazado_114800" data-name="Trazado 114800" d="M366.791,380.217V369.044h-4.41v11.173Z" transform="translate(-143.242 -146.197)" fill="#12263f"/>
      <path id="Trazado_114801" data-name="Trazado 114801" d="M423.651,380.221V369.048h-5.607v11.173Z" transform="translate(-165.305 -146.199)" fill="#ffd947"/>
      <path id="Trazado_114802" data-name="Trazado 114802" d="M431.742,380.217V369.044h-4.409v11.173Z" transform="translate(-168.987 -146.197)" fill="#12263f"/>
      <path id="Trazado_114803" data-name="Trazado 114803" d="M415.149,380.217V369.044h-4.41v11.173Z" transform="translate(-162.41 -146.197)" fill="#12263f"/>
      <path id="Trazado_114804" data-name="Trazado 114804" d="M362.667,215.856V204.683H357.06v11.173Z" transform="translate(-141.133 -81.049)" fill="#ffd947"/>
      <path id="Trazado_114805" data-name="Trazado 114805" d="M370.758,215.852V204.679h-4.409v11.173Z" transform="translate(-144.815 -81.048)" fill="#12263f"/>
      <path id="Trazado_114806" data-name="Trazado 114806" d="M354.165,215.856V204.683h-4.41v11.173Z" transform="translate(-138.238 -81.049)" fill="#12263f"/>
      <path id="Trazado_114807" data-name="Trazado 114807" d="M410.107,215.856V204.683H404.5v11.173Z" transform="translate(-159.937 -81.049)" fill="#ffd947"/>
      <path id="Trazado_114808" data-name="Trazado 114808" d="M418.195,215.852V204.679h-4.409v11.173Z" transform="translate(-163.617 -81.048)" fill="#12263f"/>
      <path id="Trazado_114809" data-name="Trazado 114809" d="M401.6,215.852V204.679h-4.409v11.173Z" transform="translate(-157.04 -81.048)" fill="#12263f"/>
      <path id="Trazado_114810" data-name="Trazado 114810" d="M457.327,215.856V204.683H451.72v11.173Z" transform="translate(-178.654 -81.049)" fill="#ffd947"/>
      <path id="Trazado_114811" data-name="Trazado 114811" d="M465.417,215.852V204.679h-4.409v11.173Z" transform="translate(-182.335 -81.048)" fill="#12263f"/>
      <path id="Trazado_114812" data-name="Trazado 114812" d="M448.823,215.856V204.683h-4.409v11.173Z" transform="translate(-175.758 -81.049)" fill="#12263f"/>
      <g id="Grupo_81429" data-name="Grupo 81429" transform="translate(313.541 175.946)">
        <path id="Trazado_114813" data-name="Trazado 114813" d="M528.983,315.681V291.346H518.772v24.335Z" transform="translate(-518.772 -291.346)" fill="#ffd947"/>
      </g>
      <path id="Trazado_114814" data-name="Trazado 114814" d="M528.264,295.045H522.23V314.91h6.034Z" transform="translate(-206.602 -116.866)" fill="#ffd947"/>
      <g id="Grupo_81430" data-name="Grupo 81430" transform="translate(313.541 155.5)">
        <path id="Trazado_114815" data-name="Trazado 114815" d="M528.983,271.143V257.474H518.772v13.669Z" transform="translate(-518.772 -257.474)" fill="#ffd947"/>
      </g>
      <path id="Trazado_114816" data-name="Trazado 114816" d="M528.264,259.552H522.23v11.157h6.034Z" transform="translate(-206.602 -102.798)" fill="#ffd947"/>
      <path id="Trazado_114817" data-name="Trazado 114817" d="M440.135,601.165H395.422V577.489h44.713Zm-42.66-2.2h40.607V579.686H397.475Z" transform="translate(-156.339 -228.819)" fill="#12263f"/>
      <path id="Trazado_114818" data-name="Trazado 114818" d="M438.922,583.754H401.28v16.11h37.642Z" transform="translate(-158.661 -231.303)" fill="#ffd947"/>
      <path id="Trazado_114819" data-name="Trazado 114819" d="M2.124,621.511H450.688c1.5,0,1.5,2.836,0,2.836H2.124C.623,624.347.623,621.511,2.124,621.511Z" transform="translate(0 -246.268)" fill="#12263f"/>
      <path id="Trazado_114820" data-name="Trazado 114820" d="M533.393,249.358c.171-.927,4.286.6,4.932-.069s-4.262-3.554-4.045-4.343c.4-1.451,5.571,2.833,5.794,2.176s-4.891-5.335-3.677-5.988,4.8,5.406,5.354,4.809-3.839-5.333-2.881-6.788c.513-.778,6.485,9.049,7.749,9.188s1.33-4.854,2.459-4.955-.721,8.951-.454,9.615c1.74,4.3,12.972,19.922,12.972,19.922s13.227,9.216,17.851,12.546c1.4,3.025-4.321,7.16-2.763,10.078-8.089-4.968-17.784-13.681-20.1-15.592-3.6-2.968-10.918-19.276-12.617-22.983-1.207-2.632-3.767-3.346-5.347-5.112s-5.4-1.581-5.224-2.509Z" transform="translate(-211.024 -94.695)" fill="#f7a491"/>
      <path id="Trazado_114821" data-name="Trazado 114821" d="M661.664,381.743a5.818,5.818,0,0,1-.616,1.492,56.634,56.634,0,0,1-5.885,7.829l-3.18-7.167s.518-2.252,1.419-5.468c3.072.8,6,1.266,8.262,3.312Z" transform="translate(-258.032 -149.917)" fill="#f8a492"/>
      <path id="Trazado_114822" data-name="Trazado 114822" d="M637.807,357.166s17.743,7.64,18.315,7.493c.369-.094,7.277-11.657,7.352-22.531.034-5.023-5.18-11.064-11-9.869-2.929.6-2.883,1.417-7.218,7.715s-7.448,17.191-7.448,17.191Z" transform="translate(-252.413 -131.556)" fill="#2e5280"/>
      <path id="Trazado_114823" data-name="Trazado 114823" d="M605.875,600.556s.42,6.969.424,6.983a38.053,38.053,0,0,1,.764,3.876c0,3.02-14.346-2.564-11.132-3.9.292-.121,1.816-1.038,1.912-2.067.148-1.586.523-4.79.523-4.79l7.511-.1Z" transform="translate(-235.629 -237.962)" fill="#f7a491"/>
      <path id="Trazado_114824" data-name="Trazado 114824" d="M588.485,611.948s3.367.924,5.094,1.154,4-1.716,5.219-1.189c1.344.579,1.291,5.785,1.291,5.785s-18.062,1.482-23.143-.05C574.935,617.041,581.6,614.1,588.485,611.948Z" transform="translate(-228.146 -242.428)" fill="#355389"/>
      <path id="Trazado_114825" data-name="Trazado 114825" d="M652.672,313.129l1.626,10.288s-6.2,4.978-9.811,3.926c-3.031-.881-.954-4.845-.954-4.845s1.615-5.491,1.12-8.37S652.672,313.129,652.672,313.129Z" transform="translate(-254.408 -123.795)" fill="#f7a491"/>
      <path id="Trazado_114826" data-name="Trazado 114826" d="M652.588,316.243a25.327,25.327,0,0,1-7.015,1.977,13.666,13.666,0,0,0,.164-4.088c-.228-1.327,1.462-1.642,3.349-1.6,2.468.212,4.669.6,4.669.6l.313,1.978a5.117,5.117,0,0,1-1.48,1.134Z" transform="translate(-255.491 -123.798)" fill="#b3009d"/>
      <path id="Trazado_114827" data-name="Trazado 114827" d="M659.966,290.24c.255,0-2.45,11.492-6.638,13.471s-10.432.946-11.6-2.149c-1.3-3.424,3.431-15.147,9.321-16.637s8.919,5.315,8.919,5.315Z" transform="translate(-253.88 -112.771)" fill="#f7a491"/>
      <path id="Trazado_114828" data-name="Trazado 114828" d="M659.646,276.023a13.2,13.2,0,0,1,5.4,5.963c1.569.744,3.47,2.357,4.382,6.7,1.123,5.338-2.865,9.453-7.09,10.691s-4.88,4.036-4.88,4.036l-.479-3.009a11.9,11.9,0,0,1,2.354-3.933c1.414-1.312-.671-3.223-.854-4.781-.141-1.2.744-3.531.552-5.5,0,0-2.348-3.558-4.663-4.437-3.946-1.5.99-8.2,5.281-5.724Z" transform="translate(-258.405 -109.113)" fill="#f7cc7f"/>
      <path id="Trazado_114829" data-name="Trazado 114829" d="M655.1,600.556s.42,6.969.424,6.983a38.036,38.036,0,0,1,.764,3.876c0,3.02-14.346-2.564-11.132-3.9.292-.121,1.816-1.038,1.912-2.067.148-1.586.522-4.79.522-4.79l7.512-.1Z" transform="translate(-255.14 -237.962)" fill="#f7a491"/>
      <path id="Trazado_114830" data-name="Trazado 114830" d="M637.7,611.948s3.367.924,5.094,1.154,4-1.716,5.219-1.189c1.344.579,1.291,5.785,1.291,5.785s-18.062,1.482-23.143-.05C624.154,617.041,630.82,614.1,637.7,611.948Z" transform="translate(-247.655 -242.428)" fill="#355389"/>
      <path id="Trazado_114831" data-name="Trazado 114831" d="M643.59,417.742s2.432,11.755,1.44,20.668-1.068,40.573-1.068,40.573l3.78,50.658-8.972.2S628.13,479.2,628.329,480.5s-3.568-35.65-3.568-35.65l12.683-28.223,6.143,1.113Z" transform="translate(-247.242 -165.06)" fill="#12263f"/>
      <path id="Trazado_114832" data-name="Trazado 114832" d="M628.719,414.989s1.586,10.585-.4,15.227-17,50.188-17.2,53.9-5.192,44.761-5.192,44.761l-10.432-.295-2.256-45.635,4.727-57.358,4.587-14.5Z" transform="translate(-234.751 -162.864)" fill="#12263f"/>
      <path id="Trazado_114833" data-name="Trazado 114833" d="M654.756,328.382a9.366,9.366,0,0,1-4.971,1.492c-2.4-.2-5.792-2.409-5.792-2.409l.472-1.6s6.207-.9,6.365-.808,3.928,3.321,3.928,3.321Z" transform="translate(-254.865 -128.76)" fill="#f7a491"/>
      <path id="Trazado_114834" data-name="Trazado 114834" d="M605.822,365.647c1.368-7.45,11.3-30.638,12.088-34.908.386-2.076,5.739-2.124,10.84-1.852,5.386.285,10.737.967,10.737.967s4.768.782,6.866,2.749,2.655,7.4-.36,17.725c-2.382,8.148-5.334,12.622-6.793,18.555-.3,1.991-.55,3.956-.885,6.248-.536,8.874-11.531,8.335-11.531,8.335s-9.364,11.486-19.075,3.317c0,0-3.289-13.5-1.886-21.137Z" transform="translate(-239.597 -130.234)" fill="#2e5280"/>
      <path id="Trazado_114835" data-name="Trazado 114835" d="M594.589,306.572s-7.006,11.2-6.928,11.786c.05.379,12.22,13.053,21.126,15.175,4.925,1.172,13.34-7.932,12.759-12.22C621.142,318.34,594.589,306.572,594.589,306.572Z" transform="translate(-232.537 -121.435)" fill="#2e5280"/>
      <path id="Trazado_114836" data-name="Trazado 114836" d="M644.5,332.681a7.6,7.6,0,0,0-1.921-1.241c3.406,3.244-.089,19.023-.8,19.575s-12.01.244-12.316-1.027c-.552-2.29.395-5.922,1.341-12.553.639-4.472-.445-7.074-1.218-8.3-.878-.066-1.784-.126-2.689-.173,0,0,5.176,4-4.439,31.238-.79,2.236-10.2,1.236-17.23.831a41.474,41.474,0,0,0-1.257,4.692c-1.4,7.635-3.171,27.294-3.171,27.294,9.711,8.169,34.9,2.936,34.9,2.936s.232-11.871.768-20.745c.336-2.3.589-4.259.886-6.248,1.459-5.934,4.411-10.407,6.793-18.555,3.016-10.32,2.459-15.759.36-17.725Z" transform="translate(-237.745 -130.31)" fill="#12263f"/>
      <path id="Trazado_114837" data-name="Trazado 114837" d="M658.117,286.231a2.515,2.515,0,0,1,.781,2.555c-.454,1.549-3.534,5.893-3.059,7.865s-.46,9.723,2.751,11.016a46.082,46.082,0,0,1,1.079-4.777c.178,0,2.536-1.243,2.735-2.222s.2-4.678.226-4.827-.976-8.409-.976-8.409l-3.536-1.2Z" transform="translate(-259.541 -113.372)" fill="#f7cc7f"/>
      <path id="Trazado_114838" data-name="Trazado 114838" d="M654.147,299.125c-.547,1.328-.323,2.646.5,2.943s1.934-.536,2.482-1.863.324-2.644-.5-2.943S654.695,297.8,654.147,299.125Z" transform="translate(-258.771 -117.721)" fill="#f7a491"/>
      <path id="Trazado_114839" data-name="Trazado 114839" d="M164.639,390.762a1.446,1.446,0,0,1-.26-.205c-2.541-2.535-23.863-23.813-24.534-25.007-.6-1.076-6.924-23.375-6.924-23.375l11.014.6,5.121,20.665c.657.908,13.4,17.287,13.4,17.287s2.256,3.066,3.7,4.793c.534.19,1.042.36,1.469.493a13.185,13.185,0,0,0,2.582.34,15.182,15.182,0,0,1,3.264.57c.488.226,1.481.723,2.072,1.031s1.3.643,1.594.844a3.427,3.427,0,0,0,.995.283.57.57,0,0,1,.212,1.04,2.5,2.5,0,0,1-1.537.094c-1.216-.185-2.922-1.15-2.94-.965s2.167,2.687,2.4,2.989a40.294,40.294,0,0,1,3.059,3.951c.3.728-.1,1.036-.52.86-.36-.15-4.147-3.928-4.147-3.928s-.484-.481-.506-.116,3.408,3.8,3.823,4.407.409,1.209-.282,1.157c-.842-.064-4.28-3.956-4.28-3.956s-.44-.482-.568-.231,2.842,3.126,2.981,3.515-.1.89-.725.712c-.732-.21-3.771-3.709-3.771-3.709s-.306-.2-.322.009,2.34,2.84,2.366,3.319a.374.374,0,0,1-.34.426c-.755.222-2.692-2.653-3.976-3.691s-2.236-2.8-3.9-3.873l-.527-.328Z" transform="translate(-52.291 -135.547)" fill="#f8a492"/>
      <path id="Trazado_114840" data-name="Trazado 114840" d="M134.675,353.309l13.071-3.926s-2-11.29-3.782-15.767c-4.971-12.508-14.344-9.727-15.526-7.122C125.8,332.32,134.675,353.309,134.675,353.309Z" transform="translate(-50.319 -128.448)" fill="#2e5280"/>
      <path id="Trazado_114841" data-name="Trazado 114841" d="M129.28,337.379c.272,1.9,3.716,54.178,3.716,54.178-23.585,11.529-35.064,1.326-35.064,1.326s.771-36.2-.153-41.129c-.611-3.26-1.376-24.924.712-25.531a51.744,51.744,0,0,1,9.1-1.958c2.859-.3,13.959-.474,15.944.2a25.711,25.711,0,0,1,5.746,12.912Z" transform="translate(-38.101 -128.343)" fill="#2e5280"/>
      <path id="Trazado_114842" data-name="Trazado 114842" d="M66.7,589.757s-2.4,2.352-2.457,3.216-.212,10.11.769,10.975,3.862,1.476,2.936,2.448c-.7.735-6.086.577-9.654.381-1.043-.057-2.347-8.4-2.76-9.624-.6-1.782-2.058-5.792-1.512-7.033a10.381,10.381,0,0,1,3.326-3.007,16.414,16.414,0,0,0,3.684-3.937L66.7,589.76Z" transform="translate(-20.968 -231.073)" fill="#f48c7f"/>
      <path id="Trazado_114843" data-name="Trazado 114843" d="M114.4,603.067l-2.154,6.109c-.159.965-.789,3.351-.789,4.229,0,3.3,14.821-2.8,11.5-4.259a3.527,3.527,0,0,1-1.344-2.311,7.739,7.739,0,0,1,1.248-3.9l-8.463.13Z" transform="translate(-43.782 -238.906)" fill="#f7a491"/>
      <path id="Trazado_114844" data-name="Trazado 114844" d="M138.713,415.155s1.081,10.924,1.081,11.089c0,17.672,3.493,52.193,2.827,55.515-1.62,8.1-19.053,49.444-19.053,49.444l-9.421-1.129,12.277-49.5L121.9,460.653l-6.394-39.382,23.2-6.118Z" transform="translate(-44.849 -164.474)" fill="#12263f"/>
      <path id="Trazado_114845" data-name="Trazado 114845" d="M56.671,589.6s5.536,15.642,7.7,16.4c.575.2,3.337.709,3.857,1.935a5.3,5.3,0,0,1,0,1.6H56.692s-1.46-6.892-2.037-9.921c0,0-3.054-7.4-2.715-8.07S56.671,589.6,56.671,589.6Z" transform="translate(-20.182 -233.619)" fill="#5184ce"/>
      <path id="Trazado_114846" data-name="Trazado 114846" d="M110.062,618.55l1.7-5.379s3.563,1.513,5.347,1.262,5.261-1.262,5.261-1.262c7.113,2.349,12.941,3.49,11.881,5.379Z" transform="translate(-43.23 -242.963)" fill="#5184ce"/>
      <path id="Trazado_114847" data-name="Trazado 114847" d="M118.629,305.543l-1.693,11.2s6.182,13.331,9.873,12.175c3.1-.969,1.19-12.766,1.19-12.766s-1.688-6.334-1.181-9.5S118.629,305.543,118.629,305.543Z" transform="translate(-45.955 -120.765)" fill="#f7a491"/>
      <path id="Trazado_114848" data-name="Trazado 114848" d="M127.838,306.645c.506-3.171-8.189-1.1-8.189-1.1l-.139.928a5.224,5.224,0,0,0,.942,1.56,11.432,11.432,0,0,0,7.6,3.454A17.342,17.342,0,0,1,127.838,306.645Z" transform="translate(-46.974 -120.765)" fill="#9d068b"/>
      <path id="Trazado_114849" data-name="Trazado 114849" d="M116.932,277.44c-.246-.089-1.971,12.752,1.3,16.285s9.647,4.69,11.935,1.907c2.53-3.077,2.4-16.881-2.685-20.515S116.932,277.44,116.932,277.44Z" transform="translate(-45.686 -108.502)" fill="#f7a491"/>
      <path id="Trazado_114850" data-name="Trazado 114850" d="M121.417,264.456A14.145,14.145,0,0,0,114,268.7c-1.786.212-4.213,1.2-6.718,5.366-3.082,5.119-.805,10.792,2.781,13.575s3.538,6,3.538,6l.568-1.663a9.319,9.319,0,0,0,.449-3.917,7.693,7.693,0,0,0-.579-2.354c-.862-1.859,1.853-3.094,2.614-4.64.586-1.191.614-3.914,1.537-5.883l1.1-1.5s2.546-1.987,5.037-1.426,2.133-8.828-2.913-7.8Z" transform="translate(-41.555 -104.71)" fill="#13375b"/>
      <path id="Trazado_114851" data-name="Trazado 114851" d="M121.333,293.965c.025,1.567-.684,2.849-1.585,2.865s-1.654-1.243-1.679-2.808.685-2.849,1.586-2.865S121.308,292.4,121.333,293.965Z" transform="translate(-46.403 -115.325)" fill="#f7a491"/>
      <path id="Trazado_114852" data-name="Trazado 114852" d="M132.283,301.638l4.932-.255a2.163,2.163,0,0,1-2.183,2.062c-2.642.215-2.749-1.8-2.749-1.8Z" transform="translate(-52.038 -119.379)" fill="#fff"/>
      <path id="Trazado_114853" data-name="Trazado 114853" d="M114.975,337.553a25.639,25.639,0,0,0-5.8-12.911,5.826,5.826,0,0,0-1.059-.2c1.964,2.532,4.617,9.04,5.238,10.993.705,2.215,1.574,14.072,1.574,14.072-2.265,1.285-12.825,1.134-12.825,1.134s-1.236-10.573-2.747-15.493-6.264-10.7-6.264-10.7c-.7.073-1.38.167-2.051.273,1.462,1.809,6.079,7.827,7.008,12.729,1.106,5.839,6.143,25.878,0,27.842-3.045.974-9.079.871-14.394.287.018,7.594-.107,16.5-.2,22.07l-4.067,54.187-18.42,41.65s2.591,6.061,6.415,6.912l29.32-42.761,18.01-54.109c1.3-.529,2.634-1.12,4.012-1.791,0,0-3.474-52.282-3.748-54.178Z" transform="translate(-23.771 -128.517)" fill="#12263f"/>
      <path id="Trazado_114854" data-name="Trazado 114854" d="M285.035,379.148l-.872-2.92a.522.522,0,0,0-.581-.368l-11.169,1.729a1.591,1.591,0,0,0-.981.554l-1.975,2.364-77.733,23.2a1.63,1.63,0,0,0,.933,3.123l77.733-23.2,2.948.895a1.589,1.589,0,0,0,1.122-.075l10.288-4.676a.523.523,0,0,0,.285-.625Z" transform="translate(-75.137 -148.897)" fill="#13375b"/>
      <path id="Trazado_114855" data-name="Trazado 114855" d="M225.027,416.14l-4.38-14.677a2,2,0,1,1,3.831-1.143L228.857,415a2,2,0,1,1-3.83,1.143Z" transform="translate(-87.03 -158.029)" fill="#9d068b"/>
      <path id="Trazado_114856" data-name="Trazado 114856" d="M138.623,429.874,174.707,419.1a4.227,4.227,0,0,1,3.118.276,1.6,1.6,0,0,0,1.175.094l5.431-1.622L179.671,401.9l-5.431,1.622a1.6,1.6,0,0,0-.931.723,4.222,4.222,0,0,1-2.459,1.939l-36.084,10.769a4.227,4.227,0,0,1-3.118-.276,1.6,1.6,0,0,0-1.175-.094l-7.85,2.343a8.324,8.324,0,0,0,4.761,15.952l7.85-2.343a1.6,1.6,0,0,0,.931-.723A4.22,4.22,0,0,1,138.623,429.874Z" transform="translate(-45.852 -159.221)" fill="#9d068b"/>
      <path id="Trazado_114857" data-name="Trazado 114857" d="M219.246,402.222a1.931,1.931,0,0,0,.08.671l4.38,14.677a1.959,1.959,0,0,0,.3.6l1.076-.322L220.322,401.9Z" transform="translate(-86.506 -159.221)" fill="#b3009d"/>
      <path id="Trazado_114858" data-name="Trazado 114858" d="M144.427,429.979a1.831,1.831,0,0,1,1.232-2.279l38.846-11.593a1.832,1.832,0,0,1,1.047,3.511l-38.846,11.593A1.832,1.832,0,0,1,144.427,429.979Z" transform="translate(-56.821 -164.822)" fill="#b3009d"/>
      <path id="Trazado_114859" data-name="Trazado 114859" d="M129.429,393.906a1.415,1.415,0,0,1-.26-.205c-2.541-2.535-23.863-23.813-24.534-25.006-.607-1.076-6.923-23.375-6.923-23.375l11.014.6,5.121,20.665c.657.908,13.4,17.287,13.4,17.287s2.256,3.066,3.7,4.793c.534.189,1.042.36,1.469.493a13.184,13.184,0,0,0,2.582.34,15.252,15.252,0,0,1,3.264.57c.488.226,1.481.723,2.072,1.031s1.3.644,1.594.844a3.4,3.4,0,0,0,.995.283.57.57,0,0,1,.212,1.04,2.5,2.5,0,0,1-1.538.094c-1.216-.185-2.922-1.15-2.94-.965s2.167,2.687,2.4,2.989a40.114,40.114,0,0,1,3.059,3.951c.3.728-.1,1.036-.518.86-.36-.15-4.147-3.928-4.147-3.928s-.484-.482-.509-.116,3.408,3.8,3.825,4.407.409,1.209-.283,1.157c-.842-.064-4.28-3.956-4.28-3.956s-.44-.481-.566-.231,2.84,3.126,2.981,3.516-.1.887-.726.712c-.732-.21-3.77-3.709-3.77-3.709s-.306-.2-.322.009,2.34,2.84,2.367,3.319a.376.376,0,0,1-.34.427c-.755.221-2.694-2.653-3.976-3.691s-2.235-2.8-3.9-3.873l-.527-.328Z" transform="translate(-38.334 -136.794)" fill="#f8a492"/>
      <path id="Trazado_114860" data-name="Trazado 114860" d="M99.631,356.2,112.7,352.27s-2-11.289-3.782-15.767c-4.97-12.505-14.344-9.727-15.525-7.122C90.753,335.207,99.631,356.2,99.631,356.2Z" transform="translate(-36.429 -129.593)" fill="#2e5280"/>
    </g>
  </g>
</svg>
